<svg width="408" height="346" viewBox="0 0 408 346" fill="none" xmlns="http://www.w3.org/2000/svg">
<path d="M394.01 181.018C358.211 107.82 255.806 0.618648 122.75 0.332309C-16.0979 0.0459708 -29.5298 137.755 45.3086 176.04C120.147 214.325 10.7203 262.039 88.9427 309.975C168.115 358.496 337.322 353.941 378.971 316.196C420.62 278.452 409.479 212.639 394.01 181.018Z" fill="url(#paint0_linear)"/>
<path d="M56.5215 276.148C56.5215 276.148 74.0922 256.586 72.231 248.874C70.3698 241.162 81.2702 231.798 81.485 220.566C81.7258 207.843 74.9317 211.247 72.576 205.806C69.0878 197.743 76.8515 190.604 65.1181 187.52C57.1072 185.411 51.452 189.524 52.2069 179.613C52.9618 169.701 49.363 157.434 42.9594 152.983C33.7901 146.619 15.1326 146.124 21.419 158.944C28.0243 172.422 22.1999 194.613 20.6641 200.691C4.39486 264.922 56.5215 276.148 56.5215 276.148Z" fill="url(#paint1_linear)"/>
<path d="M36.9399 166.194C38.9508 182.775 59.7169 209.275 50.3263 226.982C40.9357 244.69 55.1875 272.107 55.1875 272.107" stroke="url(#paint2_linear)" stroke-width="0.93" stroke-miterlimit="10"/>
<path d="M109.806 239.1C98.3919 243.134 110.75 257.9 98.2682 264.551C85.7865 271.202 69.7841 274.573 69.0487 271.345C68.9966 271.13 68.3263 268.989 67.617 265.859C67.4543 265.137 67.2916 264.356 67.1289 263.536C67.0899 263.308 67.0443 263.074 66.9988 262.84C66.5326 260.342 66.2175 257.819 66.0552 255.284C66.0552 255.206 66.0552 255.128 66.0552 255.05C65.9966 254.041 65.9771 253.026 65.9966 252.017C66.0161 251.009 66.0682 250.065 66.1723 249.134C66.5432 245.542 67.5714 242.23 69.6734 239.854C70.2112 239.237 70.8232 238.688 71.4956 238.221C80.1703 232.188 83.6324 235.117 83.5673 226.201C83.4502 210.921 87.8039 208.631 92.9254 210.147C98.047 211.663 102.036 212.099 102.798 206.431C103.559 200.763 98.893 175.61 110.555 175.656C130.729 175.721 120.518 201.44 118.481 205.591C113.6 215.594 123.752 217.162 126.167 224.464C128.581 231.765 121.214 235.065 109.806 239.1Z" fill="url(#paint3_linear)"/>
<path d="M66.8165 293.302C66.8165 293.302 63.7514 265.195 85.1552 249.414C94.8386 242.295 112.839 216.876 111.186 189.361" stroke="url(#paint4_linear)" stroke-width="2.67" stroke-miterlimit="10"/>
<path d="M36.7639 215.086C39.4255 210.57 58.5712 229.195 55.2197 233.308C51.8682 237.421 34.2259 219.375 36.7639 215.086Z" fill="url(#paint5_linear)"/>
<path d="M31.9352 240.466C32.3192 235.208 55.428 242.77 54.2436 247.963C53.0592 253.156 31.5708 245.484 31.9352 240.466Z" fill="url(#paint6_linear)"/>
<path d="M75.5567 217.266C79.6501 220.475 59.4437 237.876 55.8384 234.017C52.2331 230.158 71.6586 214.208 75.5567 217.266Z" fill="url(#paint7_linear)"/>
<path d="M73.4412 239.165C76.8838 243.069 57.3672 252.831 54.4388 248.425C51.5103 244.019 70.1874 235.488 73.4412 239.165Z" fill="url(#paint8_linear)"/>
<path d="M33.4647 259.378C32.456 254.549 57.9271 257.328 58.1484 262.299C58.3697 267.271 34.4279 263.972 33.4647 259.378Z" fill="url(#paint9_linear)"/>
<path d="M72.1986 253.755C74.8407 258.219 56.5801 269.373 54.4651 264.499C52.3501 259.625 69.6801 249.499 72.1986 253.755Z" fill="url(#paint10_linear)"/>
<path d="M62.1309 193.357C67.272 193.734 60.6211 219.642 55.5386 218.444C50.4561 217.247 57.2306 192.999 62.1309 193.357Z" fill="url(#paint11_linear)"/>
<path d="M38.697 213.843C41.3586 209.327 60.5042 227.952 57.1528 232.065C53.8013 236.178 36.159 218.145 38.697 213.843Z" fill="url(#paint12_linear)"/>
<path d="M33.4712 239.399C33.8552 234.141 56.964 241.703 55.7796 246.896C54.5952 252.089 33.0938 244.403 33.4712 239.399Z" fill="url(#paint13_linear)"/>
<path d="M76.3375 216.108C80.4308 219.316 60.2244 236.718 56.6192 232.859C53.0139 229 72.4394 213.056 76.3375 216.108Z" fill="url(#paint14_linear)"/>
<path d="M66.5889 248.139C66.9468 244.612 67.9295 241.358 69.9533 239.028C72.3937 238.54 74.4437 238.638 75.3417 239.679C77.2485 241.8 72.0683 245.783 66.5889 248.139Z" fill="url(#paint15_linear)"/>
<path d="M74.4045 238.371C77.8471 242.275 58.3305 252.037 55.402 247.631C52.4736 243.225 71.1246 234.661 74.4045 238.371Z" fill="url(#paint16_linear)"/>
<path d="M56.9119 212.333C56.9119 212.333 57.4976 225.791 55.7145 237.538C53.9313 249.284 58.4282 269.165 65.7493 275.517" stroke="url(#paint17_linear)" stroke-width="1.55" stroke-miterlimit="10"/>
<path d="M33.4647 258.453C32.456 253.625 57.9271 256.403 58.1484 261.375C58.3697 266.347 34.4279 263.054 33.4647 258.453Z" fill="url(#paint18_linear)"/>
<path d="M67.5194 262.28C67.4804 262.059 67.4413 261.824 67.3958 261.597C66.9486 259.144 66.6466 256.666 66.4912 254.178C66.4912 254.1 66.4912 254.022 66.4912 253.95C70.6496 251.646 75.0879 250.488 76.2528 252.479C77.73 254.985 72.641 259.586 67.5194 262.28Z" fill="url(#paint19_linear)"/>
<path d="M75.3158 250.566C77.9579 255.03 59.6974 266.185 57.5824 261.31C55.4674 256.436 72.7908 246.323 75.3158 250.566Z" fill="url(#paint20_linear)"/>
<path d="M63.3741 193.019C68.5151 193.396 61.8643 219.303 56.7818 218.106C51.6993 216.908 58.4738 192.661 63.3741 193.019Z" fill="url(#paint21_linear)"/>
<path d="M67.7863 317.335H51.9661C48.5132 317.334 45.178 316.08 42.5797 313.806C39.9814 311.532 38.2965 308.393 37.8379 304.97L33.9333 275.829C33.8713 275.365 33.909 274.893 34.044 274.444C34.179 273.995 34.4081 273.581 34.7161 273.228C35.0241 272.875 35.4038 272.592 35.8299 272.397C36.256 272.203 36.7187 272.101 37.1871 272.1H82.5523C83.0207 272.101 83.4834 272.203 83.9095 272.397C84.3356 272.592 84.7153 272.875 85.0233 273.228C85.3313 273.581 85.5604 273.995 85.6954 274.444C85.8304 274.893 85.8681 275.365 85.8061 275.829L81.9015 304.97C81.4432 308.39 79.7602 311.528 77.1646 313.802C74.569 316.076 71.2369 317.331 67.7863 317.335Z" fill="url(#paint22_linear)"/>
<path d="M250.028 21.2155H59.7492C55.6339 21.2155 52.2979 24.5516 52.2979 28.6668V154.656C52.2979 158.771 55.6339 162.107 59.7492 162.107H250.028C254.143 162.107 257.479 158.771 257.479 154.656V28.6668C257.479 24.5516 254.143 21.2155 250.028 21.2155Z" fill="url(#paint23_linear)"/>
<path d="M247.19 27.2611H62.5865C60.1281 27.2611 58.1353 29.254 58.1353 31.7124V151.617C58.1353 154.075 60.1281 156.068 62.5865 156.068H247.19C249.649 156.068 251.641 154.075 251.641 151.617V31.7124C251.641 29.254 249.649 27.2611 247.19 27.2611Z" fill="white"/>
<path d="M269.785 298.131C269.216 298.127 268.655 298.001 268.139 297.761C267.624 297.521 267.165 297.174 266.795 296.742C266.425 296.311 266.152 295.804 265.994 295.258C265.836 294.712 265.797 294.138 265.88 293.575L275.258 224.034L282.989 224.926L273.716 294.721C273.436 296.68 269.785 298.131 269.785 298.131Z" fill="url(#paint24_linear)"/>
<path d="M267.195 276.903L270.67 283.196L278.369 288.187L281.603 287.751L285.963 277.99L284.661 273.545L279.13 270.942L267.195 276.903Z" fill="url(#paint25_linear)"/>
<path d="M310.256 77.5721C310.848 75.7369 311.187 70.9082 311.499 69.3985C309.059 69.7303 306.944 73.3747 306.944 75.5808C307.562 75.4962 309.573 77.1231 310.256 77.5721Z" fill="url(#paint26_linear)"/>
<path d="M277.165 192.674C270.657 193.78 251.986 197.008 247.119 203.086C243.37 207.771 240.611 221.509 234.045 237.635C232.138 232.846 229.717 224.158 228.507 219.609C226.821 213.271 225.253 199.142 239.648 195.478C249.149 193.058 269.974 192.205 277.165 192.674Z" fill="#191337"/>
<path d="M265.809 192.225C265.809 192.225 249.8 193.845 242.524 202.722C236.83 209.672 231.708 230.828 231.708 230.828" stroke="#F3F6FD" stroke-miterlimit="10" stroke-linecap="round"/>
<path d="M339.124 293.022L329.5 222.16L336.007 219.557L346.895 291.662C347.344 294.226 345.372 294.695 343.426 295.046C341.48 295.398 339.606 295.638 339.124 293.022Z" fill="url(#paint27_linear)"/>
<path d="M313.998 301.515L305.766 220.735H313.797L321.977 300.942C322.159 303.435 320.259 303.337 318.385 303.617C316.302 303.929 314.226 304.333 313.998 301.515Z" fill="url(#paint28_linear)"/>
<path d="M343.797 211.325C342.098 223.878 323.623 225.642 302.148 226.338C301.497 226.663 277.77 226.52 266.72 222.798L267.104 137.794C267.104 130.636 270.169 118.772 280.646 118.597C298.217 118.304 330.853 115.623 343.628 119.573C346.55 130.063 348.678 141.647 343.81 171.947C341.018 189.283 344.617 205.325 343.797 211.325Z" fill="url(#paint29_linear)"/>
<path d="M338.955 124.844C342.86 136.558 342.365 143.326 337.166 162.244C328.504 193.773 342.723 209.958 312.677 225.856C330.899 224.815 342.352 222.01 343.797 211.325C344.617 205.299 341.018 189.283 343.797 171.94C347.383 149.625 354.073 131.391 345.177 120.614C342.717 117.633 337.654 120.887 338.955 124.844Z" fill="url(#paint30_linear)"/>
<path d="M230.863 286.71C225.78 284.829 218.986 280.853 218.986 280.853C218.986 280.853 210.526 289.964 209.583 290.855C212.713 292.092 211.138 301.137 213.728 302.569C216.318 304.001 223.171 297.805 226.47 298.56C226.769 295.658 229.971 288.285 230.863 286.71Z" fill="url(#paint31_linear)"/>
<path d="M280.841 272.022L267.175 278.647C265.477 277.345 264.572 274.222 263.381 272.373C261.234 269.048 258.936 269.556 255.364 264.33L246.448 249.141L265.255 220.559L277.392 253.482C278.434 256.156 278.043 263.49 278.043 263.49C278.98 265.657 283.048 271.169 280.841 272.022Z" fill="#191337"/>
<path d="M343.797 150.621C339.209 151.395 325.049 153.283 320.617 151.311C321.079 155.697 321.554 163.474 321.554 163.474C321.554 163.474 283.705 159.862 269.492 165.276C269.492 164.814 269.492 164.268 269.525 163.669C269.701 158.606 270.534 149.482 270.534 149.482C270.534 149.482 263.681 148.181 261.657 146.118C261.523 145.985 261.405 145.836 261.306 145.675C261.618 143.072 264.755 132.172 270.534 123.243C275.427 115.714 282.339 112.265 294.879 110.514L311.441 109.362C311.441 109.362 327.925 107.618 335.519 115.922C343.114 124.226 343.797 150.621 343.797 150.621Z" fill="url(#paint32_linear)"/>
<path d="M270.559 149.482C270.559 149.482 270.559 157.448 271.249 163.148C258.149 169.051 255.351 173.736 255.52 174.699L252.728 163.22L258.214 162.628L261.683 146.105C263.707 148.168 270.559 149.482 270.559 149.482Z" fill="url(#paint33_linear)"/>
<path d="M253.952 180.465H197.674L187.326 136.122C187.199 135.577 187.196 135.01 187.318 134.464C187.441 133.918 187.685 133.407 188.033 132.969C188.381 132.531 188.824 132.177 189.328 131.934C189.832 131.691 190.385 131.565 190.945 131.566H243.553L253.952 180.465Z" fill="url(#paint34_linear)"/>
<path d="M328.471 191.489C328.471 191.489 335.395 209.906 313.386 217.637C299.154 222.635 272.388 221.607 272.388 221.607L242.225 277.475C241.25 279.273 239.714 280.704 237.852 281.549L237.012 281.927C235.984 283.397 232.906 291.037 231.246 290.341L215.433 282.942C214.02 282.363 217.541 277.248 218.218 275.881C218.686 274.931 217.919 269.217 218.628 266.256C223.509 245.757 237.585 209.418 242.387 203.489C247.288 197.437 254.752 194.763 261.26 193.656C268.327 192.452 276.995 189.485 276.995 189.485L328.471 191.489Z" fill="#1F1844"/>
<path d="M270.163 190.604C270.163 190.604 267.807 190.311 264.13 190.071" stroke="#17FF44" stroke-width="1.95" stroke-miterlimit="10"/>
<path d="M301.992 118.082C300.11 118.445 298.162 118.178 296.448 117.321C294.734 116.465 293.35 115.067 292.51 113.345C292.51 113.345 292.185 112.746 291.755 110.091L291.566 108.913L291.391 107.826L291.169 106.525C290.548 106.603 289.922 106.645 289.295 106.648C284.382 106.648 276.351 104.696 272.844 97.2579C270.39 92.0517 271.705 86.787 271.295 83.5917C270.885 80.3964 269.271 78.314 268.191 74.8194C266.811 70.3486 267.852 64.3615 269.915 62.702C279.202 55.1791 298.354 58.3028 298.354 58.3028C298.354 58.3028 304.862 60.177 304.211 73.3291C304.784 72.8215 303.912 75.7044 304.751 75.4115C306.508 74.8259 308.089 74.8909 309.261 75.5677C311.864 77.032 312.463 81.3856 308.747 88.017C308.708 88.095 308.662 88.1731 308.617 88.2512C308.633 89.4817 308.729 90.7098 308.903 91.9281C308.903 92.1103 308.948 92.299 308.975 92.4942C309.274 94.7459 309.625 97.6613 310.035 100.479C310.582 104.546 311.207 108.028 311.428 109.382C311.968 112.649 308.903 116.963 301.992 118.082Z" fill="url(#paint35_linear)"/>
<path d="M304.224 73.3096C304.875 60.1575 298.367 58.2833 298.367 58.2833C298.367 58.2833 279.215 55.1596 269.928 62.6825C268.471 63.8539 268.542 66.3724 268.477 68.5394C272.082 64.7454 280.458 64.9602 286.959 64.2769C290.07 63.9515 289.126 67.4526 290.011 67.4917C296.714 65.3311 301.725 68.175 301.777 78.0407L304.705 75.3985C303.983 75.4962 304.777 72.8215 304.224 73.3096Z" fill="url(#paint36_linear)"/>
<path d="M371.975 309.78H366.352C364.667 309.78 363.3 308.862 363.3 307.723V189.628H375.014V307.723C375.027 308.862 373.661 309.78 371.975 309.78Z" fill="url(#paint37_linear)"/>
<path d="M171.779 309.78H164.458C163.456 309.78 162.642 309.194 162.642 308.478V189.628H173.595V308.471C173.595 309.194 172.781 309.78 171.779 309.78Z" fill="url(#paint38_linear)"/>
<path d="M326.526 186.517L271.432 180.465V162.244L332.858 167.378L326.526 186.517Z" fill="url(#paint39_linear)"/>
<path d="M162.824 180.361H374.747C375.641 180.361 376.525 180.537 377.35 180.879C378.175 181.221 378.925 181.721 379.556 182.353C380.188 182.984 380.689 183.734 381.03 184.559C381.372 185.384 381.548 186.269 381.548 187.162V192.674H156.024V187.162C156.024 185.358 156.74 183.628 158.016 182.353C159.291 181.078 161.021 180.361 162.824 180.361Z" fill="url(#paint40_linear)"/>
<path d="M277.783 177.699L277.191 180.342H253.952L241.796 133.883C241.725 133.611 241.718 133.326 241.775 133.05C241.831 132.774 241.95 132.515 242.122 132.292C242.294 132.069 242.515 131.888 242.767 131.764C243.019 131.639 243.297 131.574 243.579 131.573C243.993 131.573 244.395 131.712 244.721 131.968C245.047 132.224 245.277 132.582 245.375 132.985L252.728 163.226L255.52 174.699C255.518 174.736 255.518 174.773 255.52 174.81V174.849H275.434C275.79 174.838 276.144 174.909 276.469 175.056C276.794 175.204 277.08 175.423 277.307 175.698C277.534 175.974 277.695 176.297 277.777 176.644C277.86 176.991 277.862 177.352 277.783 177.699Z" fill="url(#paint41_linear)"/>
<path d="M218.172 161.925C220.782 161.925 222.897 159.81 222.897 157.2C222.897 154.591 220.782 152.476 218.172 152.476C215.563 152.476 213.448 154.591 213.448 157.2C213.448 159.81 215.563 161.925 218.172 161.925Z" fill="white"/>
<path d="M320.656 151.077L319.113 142.161" stroke="white" stroke-miterlimit="10" stroke-linecap="round"/>
<path d="M270.56 149.482L271.933 142.161" stroke="white" stroke-miterlimit="10" stroke-linecap="round"/>
<path d="M311.779 68.6175C311.87 66.3138 311.428 63.8799 310.666 60.5675C309.026 53.409 304.23 50.435 296.727 49.0879L289.568 48.255C288.917 48.1769 276.917 47.3048 271.347 50.5912C269.251 51.8212 266.499 54.8212 266.531 56.8191C266.616 61.9211 266.531 64.6283 267.689 68.5329C270.136 58.0881 275.694 70.316 288.781 59.6694C291.208 57.7171 290.948 62.8452 291.833 62.8842C299.401 60.4439 304.783 64.3745 303.384 77.5721C305.336 76.4072 306.638 75.2033 307.803 75.0471C309.267 73.1794 311.727 69.8279 311.779 68.6175Z" fill="#1F1844"/>
<path d="M308.987 92.4747C307.447 96.3143 305.092 99.7738 302.084 102.614C299.076 105.455 295.488 107.608 291.566 108.926L291.39 107.839L291.169 106.538C290.547 106.616 289.922 106.658 289.295 106.662C293.134 103.356 303.814 94.0105 308.759 88.03C308.72 88.1081 308.675 88.1862 308.629 88.2642C308.646 89.4947 308.742 90.7229 308.916 91.9411C308.942 92.0908 308.961 92.2795 308.987 92.4747Z" fill="url(#paint42_linear)"/>
<path d="M304.692 76.9799C304.927 76.7131 305.656 76.0558 305.656 76.0558L305.096 73.6219L301.66 75.9127C301.335 76.1293 301.078 76.4325 300.917 76.7879C300.756 77.1433 300.698 77.5367 300.749 77.9235L301.901 86.5723C297.137 89.4942 286.282 97.8891 284.226 98.2275C281.623 98.6636 280.751 95.4097 279.345 96.1646C277.939 96.9195 278.148 98.8783 277.171 98.8783C276.664 98.8783 273.338 96.7958 272.245 95.3967C272.245 95.3967 273.937 100.915 274.302 101.904C275.141 104.15 280.041 108.692 280.041 108.692C280.29 108.939 280.591 109.126 280.923 109.239C281.254 109.352 281.607 109.387 281.955 109.343L288.104 108.601L291.195 106.681C295.504 104.202 305.473 94.4401 305.512 93.106C305.727 85.3033 302.35 79.6286 304.692 76.9799Z" fill="#1F1844"/>
<path d="M305.766 79.4008C305.766 79.4008 307.152 76.7977 308.617 78.4246C310.081 80.0515 308.617 83.39 308.617 83.39L305.766 79.4008Z" fill="url(#paint43_linear)"/>
<path d="M342.723 150.816C342.664 156.393 342.254 169.038 339.866 174.439C336.755 181.474 332.493 181.383 320.844 179.424C309.195 177.465 289.907 170.528 283.907 170.528C277.906 170.528 274.145 174.869 274.145 174.869H255.422C255.253 173.905 255.325 168.947 269.544 163.662C271.926 162.654 278.791 161.821 284.74 161.391C301.074 160.213 321.183 163.194 321.183 163.194C321.183 163.194 321.104 155.69 320.642 151.304C325.016 153.263 338.662 151.428 342.723 150.816Z" fill="url(#paint44_linear)"/>
<path d="M304.621 164.274C304.621 164.274 310.569 163.786 310.569 168.771C310.569 173.756 304.621 173.808 304.621 173.808" stroke="#D6D9E8" stroke-width="5.49" stroke-miterlimit="10"/>
<path d="M305.317 180.342H290.518L288.442 159.289C288.423 159.015 288.462 158.739 288.556 158.481C288.65 158.223 288.798 157.987 288.99 157.79C289.182 157.593 289.413 157.438 289.668 157.337C289.924 157.235 290.198 157.189 290.473 157.2H304.66C304.93 157.188 305.199 157.233 305.451 157.33C305.704 157.428 305.933 157.577 306.124 157.768C306.316 157.959 306.465 158.187 306.564 158.439C306.662 158.691 306.708 158.96 306.696 159.231L305.317 180.342Z" fill="url(#paint45_linear)"/>
<path d="M290.245 115.382C290.245 115.382 291.169 121.239 301.256 120.699C311.343 120.158 314.408 112.239 314.408 112.239" stroke="white" stroke-miterlimit="10" stroke-linecap="round"/>
<path d="M190.684 294.597C190.684 294.597 184.515 293.237 182.152 294.083C179.79 294.929 179.185 296.686 179.016 298.567C178.846 300.448 180.831 303.122 188.497 305.96C196.351 308.76 204.349 311.134 212.459 313.072C214.971 313.58 219.227 314.335 222.871 314.127C223.873 314.054 224.825 313.665 225.591 313.016C226.357 312.367 226.897 311.491 227.133 310.515C227.319 309.765 227.572 309.033 227.888 308.328C228.539 307.027 228.292 305.491 228.669 304.424C229.047 303.357 229.971 295.964 227.888 294.897C225.806 293.829 222.448 300.148 217.841 299.628C213.233 299.107 212.719 293.341 212.719 293.341C212.719 293.341 214.919 291.33 213.734 289.918C212.55 288.506 213.91 287.387 212.973 286.827C212.036 286.267 208.73 288.239 208.73 288.239C208.73 288.239 198.09 292.612 193.918 294.376C193.072 294.701 190.684 294.597 190.684 294.597Z" fill="#191337"/>
<path d="M181.788 300.09C195.454 307.899 211.346 308.062 211.346 308.062C215.791 309.096 220.229 312.051 225.93 308.66L226.431 308.387" stroke="white" stroke-miterlimit="10" stroke-linecap="round"/>
<path d="M267.865 279.623C267.865 279.623 275.759 281.998 277.301 284.569C278.844 287.139 284.115 279.298 281.792 274.866C279.468 270.434 282.638 271.156 284.818 272.959C286.998 274.762 288.761 273.454 290.284 274.749C291.807 276.044 294.937 278.914 292.653 284.302C290.369 289.69 285.254 292.007 283.223 296.048C281.193 300.09 281.922 308.322 278.805 311.4C275.687 314.478 269.765 318.415 263.049 315.129C256.333 311.843 262.334 302.855 263.895 300.617C265.457 298.378 265.763 290.725 265.848 287.601C265.932 284.478 265.418 280.554 267.865 279.623Z" fill="#191337"/>
<path d="M284.629 273.935C284.629 273.935 289.048 275.276 287.518 280.677C285.989 286.079 280.386 290.211 279.833 295.918C279.28 301.625 279.312 306.695 273.787 310.834C268.262 314.973 265.848 314.394 265.848 314.394" stroke="white" stroke-width="0.76" stroke-miterlimit="10"/>
<defs>
<linearGradient id="paint0_linear" x1="0.223354" y1="172.89" x2="407.937" y2="172.89" gradientUnits="userSpaceOnUse">
<stop stop-color="#F0F2F5"/>
<stop offset="0.99" stop-color="#F5F7F8"/>
</linearGradient>
<linearGradient id="paint1_linear" x1="56.3718" y1="275.282" x2="40.4019" y2="154.122" gradientUnits="userSpaceOnUse">
<stop stop-color="#1F1844"/>
<stop offset="0.99" stop-color="#3D3C99"/>
</linearGradient>
<linearGradient id="paint2_linear" x1="55.565" y1="272.165" x2="41.5214" y2="165.589" gradientUnits="userSpaceOnUse">
<stop stop-color="#3F3D9E"/>
<stop offset="0.99" stop-color="#423E9F"/>
</linearGradient>
<linearGradient id="paint3_linear" x1="63.7514" y1="230.718" x2="122.997" y2="217.104" gradientUnits="userSpaceOnUse">
<stop offset="0.01" stop-color="#BBC0D9"/>
<stop offset="1" stop-color="#D6DBF8"/>
</linearGradient>
<linearGradient id="paint4_linear" x1="65.9638" y1="241.28" x2="112.049" y2="241.434" gradientUnits="userSpaceOnUse">
<stop stop-color="#BAC6D8"/>
<stop offset="0.99" stop-color="#D6DBF8"/>
</linearGradient>
<linearGradient id="paint5_linear" x1="1774.91" y1="8022.12" x2="1230.05" y2="7498.63" gradientUnits="userSpaceOnUse">
<stop stop-color="#1F1844"/>
<stop offset="0.99" stop-color="#3D3C99"/>
</linearGradient>
<linearGradient id="paint6_linear" x1="2047.41" y1="4894.08" x2="1504.4" y2="4510.19" gradientUnits="userSpaceOnUse">
<stop stop-color="#1F1844"/>
<stop offset="0.99" stop-color="#3D3C99"/>
</linearGradient>
<linearGradient id="paint7_linear" x1="1972.22" y1="7289.96" x2="2508.16" y2="6796.51" gradientUnits="userSpaceOnUse">
<stop stop-color="#1F1844"/>
<stop offset="0.99" stop-color="#3D3C99"/>
</linearGradient>
<linearGradient id="paint8_linear" x1="1837.07" y1="5007.39" x2="2245.65" y2="4665.11" gradientUnits="userSpaceOnUse">
<stop stop-color="#1F1844"/>
<stop offset="0.99" stop-color="#3D3C99"/>
</linearGradient>
<linearGradient id="paint9_linear" x1="2394.65" y1="3773.95" x2="1554.25" y2="3460.51" gradientUnits="userSpaceOnUse">
<stop stop-color="#1F1844"/>
<stop offset="0.99" stop-color="#3D3C99"/>
</linearGradient>
<linearGradient id="paint10_linear" x1="1713.45" y1="6054.07" x2="2089.09" y2="5732.46" gradientUnits="userSpaceOnUse">
<stop stop-color="#1F1844"/>
<stop offset="0.99" stop-color="#3D3C99"/>
</linearGradient>
<linearGradient id="paint11_linear" x1="61.7795" y1="194.014" x2="55.9681" y2="217.767" gradientUnits="userSpaceOnUse">
<stop offset="0.01" stop-color="#3D3C99"/>
<stop offset="1" stop-color="#1F1844"/>
</linearGradient>
<linearGradient id="paint12_linear" x1="43.6197" y1="227.407" x2="49.0099" y2="221.947" gradientUnits="userSpaceOnUse">
<stop stop-color="#E0E4EB"/>
<stop offset="0.99" stop-color="#F3F6FD"/>
</linearGradient>
<linearGradient id="paint13_linear" x1="16516.3" y1="-90385.6" x2="16597.5" y2="-90638.9" gradientUnits="userSpaceOnUse">
<stop stop-color="#E0E4EB"/>
<stop offset="0.99" stop-color="#F3F6FD"/>
</linearGradient>
<linearGradient id="paint14_linear" x1="-52531.5" y1="34158.2" x2="-52377.5" y2="34348.7" gradientUnits="userSpaceOnUse">
<stop stop-color="#E0E4EB"/>
<stop offset="0.99" stop-color="#F3F6FD"/>
</linearGradient>
<linearGradient id="paint15_linear" x1="1051.41" y1="4200.26" x2="1167.08" y2="4084.67" gradientUnits="userSpaceOnUse">
<stop offset="0.01" stop-color="#BBC0D9"/>
<stop offset="1" stop-color="#D6DBF8"/>
</linearGradient>
<linearGradient id="paint16_linear" x1="-37425" y1="20143.6" x2="-37304.3" y2="20350.1" gradientUnits="userSpaceOnUse">
<stop stop-color="#E0E4EB"/>
<stop offset="0.99" stop-color="#F3F6FD"/>
</linearGradient>
<linearGradient id="paint17_linear" x1="1800.35" y1="-20485.2" x2="1976.62" y2="-20527.1" gradientUnits="userSpaceOnUse">
<stop stop-color="#E0E4EB"/>
<stop offset="0.99" stop-color="#F3F6FD"/>
</linearGradient>
<linearGradient id="paint18_linear" x1="-177.495" y1="-118931" x2="-166.13" y2="-119215" gradientUnits="userSpaceOnUse">
<stop stop-color="#E0E4EB"/>
<stop offset="0.99" stop-color="#F3F6FD"/>
</linearGradient>
<linearGradient id="paint19_linear" x1="1147.15" y1="5028.91" x2="1280.69" y2="4891.74" gradientUnits="userSpaceOnUse">
<stop offset="0.01" stop-color="#BBC0D9"/>
<stop offset="1" stop-color="#D6DBF8"/>
</linearGradient>
<linearGradient id="paint20_linear" x1="-47823.5" y1="24146.5" x2="-47737.2" y2="24374.6" gradientUnits="userSpaceOnUse">
<stop stop-color="#E0E4EB"/>
<stop offset="0.99" stop-color="#F3F6FD"/>
</linearGradient>
<linearGradient id="paint21_linear" x1="63.0292" y1="193.676" x2="57.2178" y2="217.429" gradientUnits="userSpaceOnUse">
<stop stop-color="#E6EAF1"/>
<stop offset="0.99" stop-color="#F3F6FD"/>
</linearGradient>
<linearGradient id="paint22_linear" x1="39.2761" y1="297.897" x2="83.5414" y2="287.725" gradientUnits="userSpaceOnUse">
<stop offset="0.11" stop-color="#8988D5"/>
<stop offset="0.56" stop-color="#9D9CE8"/>
<stop offset="1" stop-color="#A7A5EE"/>
</linearGradient>
<linearGradient id="paint23_linear" x1="52.2979" y1="91.6613" x2="257.479" y2="91.6613" gradientUnits="userSpaceOnUse">
<stop offset="0.01" stop-color="#BBBFD9"/>
<stop offset="1" stop-color="#D6DBF8"/>
</linearGradient>
<linearGradient id="paint24_linear" x1="7376.71" y1="33025.8" x2="7829.67" y2="33025.8" gradientUnits="userSpaceOnUse">
<stop offset="0.01" stop-color="#BBBFD9"/>
<stop offset="1" stop-color="#D6DBF8"/>
</linearGradient>
<linearGradient id="paint25_linear" x1="282.559" y1="286.97" x2="274.536" y2="272.868" gradientUnits="userSpaceOnUse">
<stop stop-color="#753200"/>
<stop offset="1" stop-color="#A04400"/>
</linearGradient>
<linearGradient id="paint26_linear" x1="2483.4" y1="1331.49" x2="2515.43" y2="1331.49" gradientUnits="userSpaceOnUse">
<stop stop-color="#753200"/>
<stop offset="1" stop-color="#A04400"/>
</linearGradient>
<linearGradient id="paint27_linear" x1="9277.03" y1="33304.6" x2="9746" y2="33304.6" gradientUnits="userSpaceOnUse">
<stop offset="0.01" stop-color="#BBBFD9"/>
<stop offset="1" stop-color="#D6DBF8"/>
</linearGradient>
<linearGradient id="paint28_linear" x1="8027.99" y1="37162.1" x2="8432.42" y2="37162.1" gradientUnits="userSpaceOnUse">
<stop offset="0.01" stop-color="#BBBFD9"/>
<stop offset="1" stop-color="#D6DBF8"/>
</linearGradient>
<linearGradient id="paint29_linear" x1="306.697" y1="225.303" x2="306.697" y2="117.907" gradientUnits="userSpaceOnUse">
<stop stop-color="#201F4F"/>
<stop offset="0.39" stop-color="#3D3C99"/>
<stop offset="1" stop-color="#403DA0"/>
</linearGradient>
<linearGradient id="paint30_linear" x1="340.426" y1="173.918" x2="350.188" y2="174.895" gradientUnits="userSpaceOnUse">
<stop offset="0.11" stop-color="#343381"/>
<stop offset="0.56" stop-color="#3D3C99"/>
<stop offset="1" stop-color="#403DA0"/>
</linearGradient>
<linearGradient id="paint31_linear" x1="7341.39" y1="11368.9" x2="7688.73" y2="10740.5" gradientUnits="userSpaceOnUse">
<stop stop-color="#753200"/>
<stop offset="1" stop-color="#A04400"/>
</linearGradient>
<linearGradient id="paint32_linear" x1="314.259" y1="137.248" x2="408.204" y2="137.248" gradientUnits="userSpaceOnUse">
<stop stop-color="#A7A5EE"/>
<stop offset="0.44" stop-color="#9D9CE8"/>
<stop offset="0.89" stop-color="#8988D5"/>
</linearGradient>
<linearGradient id="paint33_linear" x1="265.848" y1="170.398" x2="260.03" y2="153.204" gradientUnits="userSpaceOnUse">
<stop stop-color="#753200"/>
<stop offset="0.05" stop-color="#793300"/>
<stop offset="0.38" stop-color="#8E3D00"/>
<stop offset="0.7" stop-color="#9C4200"/>
<stop offset="1" stop-color="#A04400"/>
</linearGradient>
<linearGradient id="paint34_linear" x1="170.985" y1="156.016" x2="258.54" y2="156.016" gradientUnits="userSpaceOnUse">
<stop offset="0.01" stop-color="#BBBFD9"/>
<stop offset="0.29" stop-color="#CACDE2"/>
<stop offset="0.84" stop-color="#F2F3F8"/>
<stop offset="1" stop-color="white"/>
</linearGradient>
<linearGradient id="paint35_linear" x1="17866.4" y1="12584.4" x2="20476.8" y2="11502.6" gradientUnits="userSpaceOnUse">
<stop stop-color="#753200"/>
<stop offset="1" stop-color="#A04400"/>
</linearGradient>
<linearGradient id="paint36_linear" x1="281.219" y1="73.2966" x2="301.295" y2="60.3202" gradientUnits="userSpaceOnUse">
<stop stop-color="#A04400" stop-opacity="0"/>
<stop offset="0.18" stop-color="#9A4100" stop-opacity="0.14"/>
<stop offset="0.52" stop-color="#8A3B00" stop-opacity="0.52"/>
<stop offset="0.9" stop-color="#753200"/>
</linearGradient>
<linearGradient id="paint37_linear" x1="6974.66" y1="51276.8" x2="7185.86" y2="51276.8" gradientUnits="userSpaceOnUse">
<stop offset="0.11" stop-color="#8988D5"/>
<stop offset="0.56" stop-color="#9D9CE8"/>
<stop offset="1" stop-color="#A7A5EE"/>
</linearGradient>
<linearGradient id="paint38_linear" x1="2967.24" y1="51276.8" x2="3151.57" y2="51276.8" gradientUnits="userSpaceOnUse">
<stop offset="0.11" stop-color="#8988D5"/>
<stop offset="0.56" stop-color="#9D9CE8"/>
<stop offset="1" stop-color="#A7A5EE"/>
</linearGradient>
<linearGradient id="paint39_linear" x1="26269.4" y1="7673.74" x2="32068" y2="7673.74" gradientUnits="userSpaceOnUse">
<stop stop-color="#A7A5EE"/>
<stop offset="0.44" stop-color="#9D9CE8"/>
<stop offset="0.89" stop-color="#8988D5"/>
</linearGradient>
<linearGradient id="paint40_linear" x1="94684.5" y1="4318.11" x2="94684.5" y2="4108.18" gradientUnits="userSpaceOnUse">
<stop offset="0.11" stop-color="#343381"/>
<stop offset="0.56" stop-color="#3D3C99"/>
<stop offset="1" stop-color="#403DA0"/>
</linearGradient>
<linearGradient id="paint41_linear" x1="246.611" y1="173.346" x2="267.696" y2="145.779" gradientUnits="userSpaceOnUse">
<stop stop-color="white"/>
<stop offset="0.16" stop-color="#F2F3F8"/>
<stop offset="0.71" stop-color="#CACDE2"/>
<stop offset="0.99" stop-color="#BBBFD9"/>
</linearGradient>
<linearGradient id="paint42_linear" x1="309.059" y1="91.5051" x2="291.488" y2="108.75" gradientUnits="userSpaceOnUse">
<stop stop-color="#A04400"/>
<stop offset="1" stop-color="#753200"/>
</linearGradient>
<linearGradient id="paint43_linear" x1="1990.45" y1="976.86" x2="1973.21" y2="987.616" gradientUnits="userSpaceOnUse">
<stop stop-color="#753200"/>
<stop offset="1" stop-color="#A04400"/>
</linearGradient>
<linearGradient id="paint44_linear" x1="41195.9" y1="7458.99" x2="41165" y2="8878.84" gradientUnits="userSpaceOnUse">
<stop stop-color="#753200"/>
<stop offset="1" stop-color="#A04400"/>
</linearGradient>
<linearGradient id="paint45_linear" x1="8494.21" y1="7119.39" x2="9006.97" y2="7119.39" gradientUnits="userSpaceOnUse">
<stop stop-color="white"/>
<stop offset="0.16" stop-color="#F2F3F8"/>
<stop offset="0.71" stop-color="#CACDE2"/>
<stop offset="0.99" stop-color="#BBBFD9"/>
</linearGradient>
</defs>
</svg>
