<svg height="419pt" viewBox="-8 0 419 419.95947" width="419pt" xmlns="http://www.w3.org/2000/svg"><path d="m201.984375 413.132812c-107.453125 0-194.558594-87.105468-194.558594-194.558593v-23.894531h389.121094v23.894531c0 107.453125-87.109375 194.558593-194.5625 194.558593zm0 0" fill="#8145FF"/><path d="m201.984375 419.960938c-111.042969 0-201.386719-90.34375-201.386719-201.386719v-23.894531c0-3.773438 3.058594-6.828126 6.828125-6.828126h389.121094c3.769531 0 6.824219 3.054688 6.824219 6.828126v23.894531c0 111.046875-90.339844 201.386719-201.386719 201.386719zm-187.730469-218.453126v17.066407c0 103.511719 84.214844 187.730469 187.730469 187.730469 103.519531 0 187.734375-84.21875 187.734375-187.730469v-17.066407zm0 0" fill="#8145FF"/><path d="m396.546875 201.507812c0 107.449219-87.109375 194.558594-194.5625 194.558594-107.449219 0-194.558594-87.109375-194.558594-194.558594 0-107.453124 87.109375-194.5625 194.558594-194.5625 107.453125 0 194.5625 87.109376 194.5625 194.5625zm0 0" fill="#2a8ee6"/><path d="m201.984375 403.011719c-111.109375 0-201.503906-90.394531-201.503906-201.503907 0-111.113281 90.394531-201.507812 201.503906-201.507812 111.113281 0 201.507813 90.394531 201.507813 201.507812 0 111.109376-90.394532 201.503907-201.507813 201.503907zm0-389.121094c-103.449219 0-187.613281 84.167969-187.613281 187.617187 0 103.445313 84.164062 187.613282 187.613281 187.613282s187.617187-84.167969 187.617187-187.613282c0-103.449218-84.167968-187.617187-187.617187-187.617187zm0 0" fill="#8145FF"/><path d="m40.246094 153.710938c-.726563 0-1.460938-.109376-2.183594-.359376-3.574219-1.207031-5.492188-5.078124-4.285156-8.652343 12.347656-36.574219 36.839844-68.664063 68.96875-90.371094 3.125-2.101563 7.363281-1.28125 9.476562 1.839844 2.109375 3.117187 1.289063 7.363281-1.835937 9.480469-29.664063 20.039062-52.277344 49.664062-63.671875 83.421874-.960938 2.847657-3.621094 4.640626-6.46875 4.640626zm0 0" fill="#fff"/><path d="m371.433594 105.933594h-222.304688c-25.476562 0-46.128906 20.652344-46.128906 46.128906v35.789062h293.015625c-2.058594-29.628906-10.734375-57.417968-24.582031-81.917968zm0 0" fill="#94c1ff"/><path d="m396.015625 194.679688h-293.015625c-3.769531 0-6.828125-3.054688-6.828125-6.828126v-35.792968c0-29.199219 23.753906-52.953125 52.953125-52.953125h222.308594c2.457031 0 4.730468 1.328125 5.941406 3.46875 14.796875 26.179687 23.359375 54.710937 25.449219 84.804687.128906 1.886719-.527344 3.746094-1.820313 5.132813-1.289062 1.382812-3.09375 2.167969-4.988281 2.167969zm-286.191406-13.652344h278.734375c-2.59375-24.054688-9.695313-46.972656-21.15625-68.269532h-218.277344c-21.667969 0-39.300781 17.628907-39.300781 39.300782zm0 0" fill="#8145FF"/><path d="m164.4375 150.304688c0 9.425781-7.640625 17.066406-17.066406 17.066406-9.425782 0-17.066406-7.640625-17.066406-17.066406 0-9.425782 7.640624-17.066407 17.066406-17.066407 9.425781 0 17.066406 7.640625 17.066406 17.066407zm0 0" fill="#d7e9ff"/><path d="m147.371094 174.199219c-13.171875 0-23.890625-10.71875-23.890625-23.894531 0-13.171876 10.71875-23.890626 23.890625-23.890626 13.175781 0 23.894531 10.71875 23.894531 23.890626 0 13.175781-10.71875 23.894531-23.894531 23.894531zm0-34.132813c-5.644532 0-10.238282 4.59375-10.238282 10.238282 0 5.648437 4.59375 10.242187 10.238282 10.242187 5.648437 0 10.242187-4.59375 10.242187-10.242187 0-5.644532-4.59375-10.238282-10.242187-10.238282zm0 0" fill="#8145FF"/><path d="m219.050781 150.304688c0 9.425781-7.640625 17.066406-17.066406 17.066406s-17.066406-7.640625-17.066406-17.066406c0-9.425782 7.640625-17.066407 17.066406-17.066407s17.066406 7.640625 17.066406 17.066407zm0 0" fill="#d7e9ff"/><path d="m201.984375 174.199219c-13.171875 0-23.890625-10.71875-23.890625-23.894531 0-13.171876 10.71875-23.890626 23.890625-23.890626 13.175781 0 23.894531 10.71875 23.894531 23.890626 0 13.175781-10.71875 23.894531-23.894531 23.894531zm0-34.132813c-5.644531 0-10.238281 4.59375-10.238281 10.238282 0 5.648437 4.59375 10.242187 10.238281 10.242187 5.648437 0 10.242187-4.59375 10.242187-10.242187 0-5.644532-4.59375-10.238282-10.242187-10.238282zm0 0" fill="#8145FF"/><path d="m273.664062 150.304688c0 9.425781-7.640624 17.066406-17.066406 17.066406-9.425781 0-17.066406-7.640625-17.066406-17.066406 0-9.425782 7.640625-17.066407 17.066406-17.066407 9.425782 0 17.066406 7.640625 17.066406 17.066407zm0 0" fill="#d7e9ff"/><path d="m256.597656 174.199219c-13.171875 0-23.890625-10.71875-23.890625-23.894531 0-13.171876 10.71875-23.890626 23.890625-23.890626 13.175782 0 23.894532 10.71875 23.894532 23.890626 0 13.175781-10.71875 23.894531-23.894532 23.894531zm0-34.132813c-5.644531 0-10.238281 4.59375-10.238281 10.238282 0 5.648437 4.59375 10.242187 10.238281 10.242187 5.648438 0 10.242188-4.59375 10.242188-10.242187 0-5.644532-4.59375-10.238282-10.242188-10.238282zm0 0" fill="#8145FF"/><path d="m103 368.992188c29.003906 17.179687 62.832031 27.074218 98.984375 27.074218 107.453125 0 194.5625-87.109375 194.5625-194.558594 0-4.597656-.21875-9.140624-.53125-13.65625h-293.015625zm0 0" fill="#fff"/><path d="m201.984375 402.894531c-36.078125 0-71.511719-9.695312-102.464844-28.027343l-3.347656-1.980469v-191.859375h306.214844l.441406 6.351562c.371094 5.375.542969 9.859375.542969 14.128906 0 111.046876-90.339844 201.386719-201.386719 201.386719zm-92.160156-37.84375c28.046875 15.835938 59.820312 24.1875 92.160156 24.1875 103.519531 0 187.734375-84.21875 187.734375-187.730469 0-2.167968-.050781-4.410156-.152344-6.828124h-279.742187zm0 0" fill="#8145FF"/><path d="m164.4375 228.8125 20.480469 81.921875h116.054687l13.652344-68.269531h-143.359375" fill="#94c1ff"/><g fill="#8145FF"><path d="m300.972656 317.558594h-116.054687c-3.132813 0-5.863281-2.132813-6.621094-5.171875l-20.480469-81.921875c-.914062-3.652344 1.308594-7.359375 4.964844-8.273438 3.652344-.90625 7.363281 1.300782 8.28125 4.96875l2.121094 8.480469h141.441406c2.046875 0 3.984375.917969 5.28125 2.5 1.296875 1.578125 1.816406 3.660156 1.414062 5.664063l-13.652343 68.269531c-.636719 3.1875-3.441407 5.484375-6.695313 5.484375zm-110.722656-13.652344h105.125l10.925781-54.613281h-129.703125zm0 0"/><path d="m225.878906 331.210938c0 7.542968-6.113281 13.65625-13.652344 13.65625-7.542968 0-13.652343-6.113282-13.652343-13.65625 0-7.539063 6.109375-13.652344 13.652343-13.652344 7.539063 0 13.652344 6.113281 13.652344 13.652344zm0 0" fill-rule="evenodd"/><path d="m287.320312 331.210938c0 7.542968-6.113281 13.65625-13.65625 13.65625-7.539062 0-13.652343-6.113282-13.652343-13.65625 0-7.539063 6.113281-13.652344 13.652343-13.652344 7.542969 0 13.65625 6.113281 13.65625 13.652344zm0 0" fill-rule="evenodd"/><path d="m307.800781 283.425781h-129.707031c-3.769531 0-6.828125-3.054687-6.828125-6.828125 0-3.773437 3.058594-6.824218 6.828125-6.824218h129.707031c3.769531 0 6.824219 3.050781 6.824219 6.824218 0 3.773438-3.054688 6.828125-6.824219 6.828125zm0 0"/><path d="m164.4375 235.640625h-20.476562c-3.773438 0-6.828126-3.054687-6.828126-6.828125s3.054688-6.828125 6.828126-6.828125h20.476562c3.773438 0 6.828125 3.054687 6.828125 6.828125s-3.054687 6.828125-6.828125 6.828125zm0 0"/></g><path d="m191.746094 78.625c-3.769532 0-6.828125-3.050781-6.828125-6.824219v-27.308593c0-3.773438 3.058593-6.824219 6.828125-6.824219 3.769531 0 6.828125 3.050781 6.828125 6.824219v27.308593c0 3.773438-3.058594 6.824219-6.828125 6.824219zm0 0" fill="#fff"/><path d="m205.398438 64.972656h-27.304688c-3.769531 0-6.828125-3.054687-6.828125-6.828125 0-3.773437 3.058594-6.824219 6.828125-6.824219h27.304688c3.769531 0 6.828124 3.050782 6.828124 6.824219 0 3.773438-3.058593 6.828125-6.828124 6.828125zm0 0" fill="#fff"/></svg>
