<svg height="436pt" viewBox="-44 0 436 436.90667" width="436pt" xmlns="http://www.w3.org/2000/svg"><path d="m244.679688 361.8125h-201.734376c-15.925781 0-28.839843-12.910156-28.839843-28.839844v-297.308594c0-15.925781 12.914062-28.835937 28.839843-28.835937h201.734376c15.925781 0 28.839843 12.910156 28.839843 28.835937v297.308594c0 15.929688-12.914062 28.839844-28.839843 28.839844zm0 0" fill="#4d04ea"/><path d="m244.679688 368.640625h-201.734376c-19.664062 0-35.664062-16-35.664062-35.667969v-297.308594c0-19.664062 16-35.664062 35.664062-35.664062h201.734376c19.667968 0 35.667968 16 35.667968 35.664062v297.308594c0 19.667969-16 35.667969-35.667968 35.667969zm-201.734376-354.988281c-12.140624 0-22.011718 9.875-22.011718 22.011718v297.308594c0 12.140625 9.871094 22.015625 22.011718 22.015625h201.734376c12.140624 0 22.011718-9.875 22.011718-22.015625v-297.308594c0-12.136718-9.871094-22.011718-22.011718-22.011718zm0 0" fill="#4d04ea"/><path d="m237.855469 361.8125h-201.734375c-15.929688 0-28.839844-12.910156-28.839844-28.839844v-297.308594c0-15.925781 12.910156-28.835937 28.839844-28.835937h201.730468c15.929688 0 28.839844 12.910156 28.839844 28.835937v297.308594c0 15.929688-12.910156 28.839844-28.835937 28.839844zm0 0" fill="#94c1ff"/><path d="m237.855469 368.640625h-201.734375c-19.667969 0-35.667969-16-35.667969-35.667969v-297.308594c0-19.664062 16-35.664062 35.667969-35.664062h201.730468c19.667969 0 35.667969 16 35.667969 35.664062v297.308594c0 19.667969-16 35.667969-35.664062 35.667969zm-201.734375-354.988281c-12.140625 0-22.015625 9.875-22.015625 22.011718v297.308594c0 12.140625 9.875 22.015625 22.015625 22.015625h201.730468c12.140626 0 22.011719-9.875 22.011719-22.015625v-297.308594c.003907-12.136718-9.871093-22.011718-22.007812-22.011718zm0 0" fill="#4d04ea"/><path d="m27.761719 27.308594h218.453125v266.238281h-218.453125zm0 0" fill="#d7e9ff"/><path d="m246.214844 300.375h-218.453125c-3.773438 0-6.828125-3.054688-6.828125-6.828125v-266.238281c0-3.773438 3.054687-6.828125 6.828125-6.828125h218.453125c3.773437 0 6.824218 3.054687 6.824218 6.828125v266.238281c0 3.773437-3.050781 6.828125-6.824218 6.828125zm-211.628906-13.65625h204.800781v-252.585938h-204.800781zm0 0" fill="#4d04ea"/><path d="m150.640625 327.679688c0 7.539062-6.113281 13.652343-13.652344 13.652343-7.542969 0-13.65625-6.113281-13.65625-13.652343 0-7.539063 6.113281-13.652344 13.65625-13.652344 7.539063 0 13.652344 6.113281 13.652344 13.652344zm0 0" fill="#94c1ff"/><path d="m136.988281 348.160156c-11.292969 0-20.480469-9.1875-20.480469-20.480468 0-11.292969 9.1875-20.480469 20.480469-20.480469s20.476563 9.1875 20.476563 20.480469c0 11.292968-9.183594 20.480468-20.476563 20.480468zm0-27.308594c-3.769531 0-6.828125 3.0625-6.828125 6.828126 0 3.765624 3.058594 6.828124 6.828125 6.828124 3.765625 0 6.824219-3.0625 6.824219-6.828124 0-3.765626-3.058594-6.828126-6.824219-6.828126zm0 0" fill="#4d04ea"/><path d="m300.589844 218.453125-54.375-6.828125v-64.851562c0-9.425782-7.640625-17.066407-17.066406-17.066407-9.425782 0-17.070313 7.640625-17.070313 17.066407v161.351562c0 12.535156 8.765625 22.976562 20.480469 25.664062v96.289063h88.75v-96.289063c11.714844-2.6875 20.476562-13.128906 20.476562-25.664062v-48.472656c0-22.753906-18.445312-41.199219-41.195312-41.199219zm0 0" fill="#d7e9ff"/><g fill="#4d04ea"><path d="m321.308594 436.90625h-88.75c-3.773438 0-6.824219-3.054688-6.824219-6.828125v-91.320313c-12.289063-5.050781-20.480469-16.972656-20.480469-30.636718v-161.347656c0-13.175782 10.71875-23.894532 23.894532-23.894532 13.171874 0 23.890624 10.71875 23.890624 23.894532v58.832031l47.988282 6.019531c26.28125.242188 47.585937 21.695312 47.585937 48.027344v48.46875c0 13.664062-8.195312 25.585937-20.480469 30.636718v91.320313c0 3.773437-3.050781 6.828125-6.824218 6.828125zm-81.921875-13.652344h75.09375v-89.46875c0-3.179687 2.199219-5.9375 5.296875-6.652344 8.941406-2.046874 15.183594-9.863281 15.183594-19.011718v-48.46875c0-18.949219-15.421876-34.371094-34.375-34.371094-.285157 0-.566407-.023438-.851563-.054688l-54.375-6.824218c-3.414063-.429688-5.972656-3.335938-5.972656-6.777344v-64.851562c0-5.648438-4.59375-10.238282-10.238281-10.238282-5.648438 0-10.242188 4.589844-10.242188 10.238282v161.347656c0 9.144531 6.238281 16.964844 15.179688 19.011718 3.101562.714844 5.300781 3.472657 5.300781 6.652344zm0 0"/><path d="m246.214844 252.585938c-3.773438 0-6.828125-3.050782-6.828125-6.824219v-34.136719c0-3.773438 3.054687-6.824219 6.828125-6.824219 3.773437 0 6.824218 3.050781 6.824218 6.824219v34.136719c0 3.773437-3.050781 6.824219-6.824218 6.824219zm0 0"/><path d="m273.519531 245.761719c-3.773437 0-6.828125-3.054688-6.828125-6.828125v-20.480469c0-3.773437 3.054688-6.828125 6.828125-6.828125 3.773438 0 6.828125 3.054688 6.828125 6.828125v20.480469c0 3.773437-3.054687 6.828125-6.828125 6.828125zm0 0"/><path d="m300.828125 245.761719c-3.773437 0-6.828125-3.054688-6.828125-6.828125v-20.480469c0-3.773437 3.054688-6.828125 6.828125-6.828125s6.824219 3.054688 6.824219 6.828125v20.480469c0 3.773437-3.050782 6.828125-6.824219 6.828125zm0 0"/><path d="m184.773438 88.746094h-40.960938c-3.773438 0-6.824219-3.050782-6.824219-6.824219s3.050781-6.828125 6.824219-6.828125h40.960938c3.773437 0 6.828124 3.054688 6.828124 6.828125s-3.054687 6.824219-6.828124 6.824219zm0 0"/><path d="m102.851562 109.226562c-1.332031 0-2.652343-.390624-3.785156-1.148437l-20.480468-13.652344c-3.140626-2.09375-3.988282-6.324219-1.890626-9.464843 2.078126-3.140626 6.316407-3.988282 9.464844-1.894532l13.652344 9.101563 17.246094-40.242188c1.480468-3.472656 5.519531-5.085937 8.960937-3.585937 3.464844 1.484375 5.074219 5.5 3.585938 8.960937l-20.476563 47.785157c-.800781 1.867187-2.386718 3.28125-4.328125 3.859374-.640625.1875-1.292969.28125-1.949219.28125zm0 0"/><path d="m184.773438 170.667969h-40.960938c-3.773438 0-6.824219-3.054688-6.824219-6.828125 0-3.773438 3.050781-6.828125 6.824219-6.828125h40.960938c3.773437 0 6.828124 3.054687 6.828124 6.828125 0 3.773437-3.054687 6.828125-6.828124 6.828125zm0 0"/><path d="m102.851562 191.148438c-1.332031 0-2.652343-.394532-3.785156-1.148438l-20.480468-13.652344c-3.140626-2.09375-3.988282-6.328125-1.890626-9.46875 2.078126-3.132812 6.316407-3.984375 9.464844-1.890625l13.652344 9.097657 17.246094-40.238282c1.480468-3.472656 5.519531-5.09375 8.960937-3.589844 3.464844 1.488282 5.074219 5.503907 3.585938 8.960938l-20.476563 47.789062c-.800781 1.867188-2.386718 3.277344-4.328125 3.859376-.640625.1875-1.292969.28125-1.949219.28125zm0 0"/><path d="m184.773438 252.585938h-40.960938c-3.773438 0-6.824219-3.050782-6.824219-6.824219 0-3.773438 3.050781-6.828125 6.824219-6.828125h40.960938c3.773437 0 6.828124 3.054687 6.828124 6.828125 0 3.773437-3.054687 6.824219-6.828124 6.824219zm0 0"/><path d="m102.851562 273.066406c-1.332031 0-2.652343-.390625-3.785156-1.148437l-20.480468-13.652344c-3.140626-2.09375-3.988282-6.324219-1.890626-9.464844 2.078126-3.140625 6.316407-3.988281 9.464844-1.894531l13.652344 9.101562 17.246094-40.242187c1.480468-3.472656 5.519531-5.078125 8.960937-3.585937 3.464844 1.488281 5.074219 5.5 3.585938 8.960937l-20.476563 47.785156c-.800781 1.867188-2.386718 3.28125-4.328125 3.859375-.640625.1875-1.292969.28125-1.949219.28125zm0 0"/></g><path d="m41.414062 348.160156c-3.773437 0-6.828124-3.054687-6.828124-6.828125v-27.304687c0-3.773438 3.054687-6.828125 6.828124-6.828125 3.773438 0 6.824219 3.054687 6.824219 6.828125v27.304687c0 3.773438-3.050781 6.828125-6.824219 6.828125zm0 0" fill="#fff"/><path d="m55.066406 334.507812h-27.304687c-3.773438 0-6.828125-3.054687-6.828125-6.828124 0-3.773438 3.054687-6.828126 6.828125-6.828126h27.304687c3.773438 0 6.828125 3.054688 6.828125 6.828126 0 3.773437-3.054687 6.828124-6.828125 6.828124zm0 0" fill="#fff"/><path d="m48.238281 68.265625c-1.746093 0-3.492187-.667969-4.824219-2-2.667968-2.664063-2.667968-6.984375 0-9.652344l13.652344-13.652343c2.667969-2.667969 6.988282-2.667969 9.652344 0 2.667969 2.664062 2.667969 6.988281 0 9.652343l-13.652344 13.652344c-1.332031 1.332031-3.082031 2-4.828125 2zm0 0" fill="#fff"/></svg>
