<svg enable-background="new 0 0 32 32" height="512" viewBox="0 0 32 32" width="512" xmlns="http://www.w3.org/2000/svg"><path d="m26 32h-20c-3.314 0-6-2.686-6-6v-20c0-3.314 2.686-6 6-6h20c3.314 0 6 2.686 6 6v20c0 3.314-2.686 6-6 6z" fill="#e3f8fa"/><path d="m10 23.333c-.121 0-.242-.044-.337-.131-.068-.061-1.663-1.536-1.663-3.077 0-1.172.897-2.125 2-2.125s2 .953 2 2.125c0 1.541-1.595 3.016-1.663 3.077-.095.088-.216.131-.337.131z" fill="#26c6da"/><path d="m18.436 24h-8.436c-.276 0-.5-.224-.5-.5s.224-.5.5-.5h8.436c.094 0 .137-.058.156-.107s.026-.12-.044-.183l-4.434-4.012c-.36-.326-.481-.829-.306-1.283s.602-.748 1.089-.748h5.77c.276 0 .5.224.5.5s-.224.5-.5.5h-5.77c-.094 0-.137.058-.156.107s-.026.12.044.183l4.434 4.012c.36.326.481.829.306 1.283s-.602.748-1.089.748z" fill="#8ce1eb"/><path d="m20.667 8c-1.838 0-3.333 1.514-3.333 3.375 0 2.568 2.885 5.066 3.008 5.172.093.08.209.12.325.12s.231-.04.325-.12c.123-.106 3.008-2.604 3.008-5.172 0-1.861-1.495-3.375-3.333-3.375zm0 4.667c-.735 0-1.333-.598-1.333-1.333s.598-1.333 1.333-1.333c.735-.001 1.333.597 1.333 1.332s-.598 1.334-1.333 1.334z" fill="#26c6da"/></svg>