<svg height="512" viewBox="0 0 512 512" width="512" xmlns="http://www.w3.org/2000/svg"><g><g><g fill="#57a4ff"><g><path d="m368 312a8 8 0 1 0 8 8 8 8 0 0 0 -8-8zm108-256h-440a19.994 19.994 0 0 0 -20 20v284h288v-140a19.994 19.994 0 0 1 20-20h28l9 24h47l8-24h28a19.994 19.994 0 0 1 20 20v140h32v-284a19.994 19.994 0 0 0 -20-20zm-300 216h-96v-112l48-24 48 24zm192 40a8 8 0 1 0 8 8 8 8 0 0 0 -8-8z"/><path d="m319.93 455.58.07.42h-128l8-48h104z"/></g><circle cx="368" cy="320" r="8"/><path d="m416 200-8 24h-47l-9-24z"/></g><path d="m319.93 455.58-15.93-47.58" fill="none"/><path d="m416 200-8 24h-47l-9-24z" fill="#57a4ff"/><path d="m112 232 32-32" fill="none"/><g><path d="m368 352 32-32" fill="none"/><circle cx="368" cy="320" fill="#57a4ff" r="8"/></g></g><g fill="#004fac"><path d="m476 48h-440a28.031 28.031 0 0 0 -28 28v312a28.031 28.031 0 0 0 28 28h154.56l-5.34 32h-57.22a8 8 0 0 0 0 16h316a28.031 28.031 0 0 0 28-28v-20h4a28.031 28.031 0 0 0 28-28v-312a28.031 28.031 0 0 0 -28-28zm-440 352a12.01 12.01 0 0 1 -12-12v-20h272v32zm165.44 48 5.34-32h89.22v20a27.75 27.75 0 0 0 2.71 12zm254.56-12a12.01 12.01 0 0 1 -12 12h-120a12.01 12.01 0 0 1 -12-12v-216a12.01 12.01 0 0 1 12-12h22.46l7.05 18.81a8.005 8.005 0 0 0 7.49 5.19h47a8 8 0 0 0 7.59-5.47l6.18-18.53h22.23a12.01 12.01 0 0 1 12 12zm-92.46-228h41.36l-2.67 8h-35.69zm124.46 180a12.01 12.01 0 0 1 -12 12h-4v-32h16zm0-36h-16v-132a28.031 28.031 0 0 0 -28-28h-120a28.031 28.031 0 0 0 -28 28v132h-272v-276a12.01 12.01 0 0 1 12-12h84v67.06l-43.58 21.78a8.011 8.011 0 0 0 -4.42 7.16v112a8 8 0 0 0 8 8h96a8 8 0 0 0 8-8v-112a8.011 8.011 0 0 0 -4.42-7.16l-43.58-21.78v-67.06h340a12.01 12.01 0 0 1 12 12zm-360-207.06 40 20v99.06h-80v-99.06z"/><path d="m96 376h-56a8 8 0 0 0 0 16h56a8 8 0 0 0 0-16z"/><path d="m128 376h-8a8 8 0 0 0 0 16h8a8 8 0 0 0 0-16z"/><path d="m112 240a7.974 7.974 0 0 0 5.657-2.343l32-32a8 8 0 0 0 -11.314-11.314l-32 32a8 8 0 0 0 5.657 13.657z"/><circle cx="112" cy="200" r="8"/><circle cx="144" cy="232" r="8"/><path d="m394.343 314.343-32 32a8 8 0 0 0 11.314 11.314l32-32a8 8 0 0 0 -11.314-11.314z"/><circle cx="368" cy="320" r="8"/><circle cx="400" cy="352" r="8"/></g></g></svg>