<svg id="Bold" height="512" viewBox="0 0 32 32" width="512" xmlns="http://www.w3.org/2000/svg"><g><path d="m26 32h-20c-3.314 0-6-2.686-6-6v-20c0-3.314 2.686-6 6-6h20c3.314 0 6 2.686 6 6v20c0 3.314-2.686 6-6 6z" fill="#e3f8fa"/></g><path d="m22 10h-.667v-1.333c0-.369-.298-.667-.666-.667h-.667c-.368 0-.667.298-.667.667v1.333h-6.667v-1.333c.001-.369-.298-.667-.666-.667h-.667c-.368 0-.667.298-.667.667v1.333h-.666c-1.103 0-2 .897-2 2v10c0 1.103.897 2 2 2h12c1.103 0 2-.897 2-2v-10c0-1.103-.897-2-2-2zm0 12.667h-12c-.368 0-.667-.299-.667-.667v-7.973h13.333v7.973c.001.368-.298.667-.666.667z" fill="#26c6da"/><path d="m19.66 18-2.913-2.98c-.22-.227-.533-.353-.847-.353h-.007l-2.293.006c-.513 0-.927.413-.927.927l-.007 2.293c0 .32.127.633.36.853l2.974 2.914c.227.227.527.34.827.34.307 0 .613-.12.84-.347l1.987-1.987c.459-.453.459-1.206.006-1.666zm-5.013-.687c-.373 0-.667-.3-.667-.667 0-.373.293-.667.667-.667.367 0 .667.293.667.667-.001.367-.301.667-.667.667z" fill="#8ce1eb"/></svg>