<svg height="402pt" viewBox="-30 0 402 402.77333" width="402pt" xmlns="http://www.w3.org/2000/svg"><path d="m222.253906 102.398438h-102.402344c-3.769531 0-6.828124-3.050782-6.828124-6.824219v-37.546875c0-31.992188 26.03125-58.027344 58.027343-58.027344 31.996094 0 58.027344 26.035156 58.027344 58.027344v37.546875c0 3.773437-3.054687 6.824219-6.824219 6.824219zm-95.574218-13.652344h88.746093v-30.71875c0-24.46875-19.90625-44.375-44.375-44.375-24.464843 0-44.371093 19.90625-44.371093 44.375zm0 0" fill="#0e65e5"/><path d="m321.238281 129.707031h-300.371093l20.476562-34.132812h259.414062zm0 0" fill="#2a8ee6"/><path d="m321.238281 136.652344h-300.371093c-2.503907 0-4.816407-1.347656-6.046876-3.527344-1.234374-2.171875-1.203124-4.84375.089844-6.992188l20.480469-34.132812c1.25-2.09375 3.515625-3.371094 5.953125-3.371094h259.414062c2.441407 0 4.703126 1.277344 5.957032 3.371094l20.480468 34.132812c1.289063 2.148438 1.324219 4.820313.089844 6.996094-1.234375 2.175782-3.542968 3.523438-6.046875 3.523438zm-288.105469-13.890625h275.835938l-12.144531-20.242188h-251.546875zm0 0" fill="#0e65e5"/><path d="m194.207031 45.0625 93.058594 21.761719-23.316406 99.707031-93.058594-21.761719zm0 0" fill="#d7e9ff"/><path d="m263.949219 173.378906c-.519531 0-1.039063-.058594-1.554688-.179687l-93.058593-21.765625c-3.671876-.859375-5.953126-4.53125-5.09375-8.199219l23.320312-99.714844c.414062-1.765625 1.507812-3.292969 3.046875-4.246093 1.535156-.953126 3.394531-1.257813 5.152344-.847657l93.058593 21.769531c3.675782.859376 5.953126 4.53125 5.09375 8.199219l-23.320312 99.710938c-.410156 1.769531-1.503906 3.296875-3.046875 4.246093-1.089844.675782-2.335937 1.027344-3.597656 1.027344zm-84.855469-33.683594 79.761719 18.660157 20.210937-86.421875-79.765625-18.660156zm0 0" fill="#0e65e5"/><path d="m47.492188 41.070312 114.179687-13.5 14.460937 122.335938-114.179687 13.5zm0 0" fill="#94c1ff"/><path d="m61.933594 170.234375c-3.410156 0-6.359375-2.554687-6.769532-6.027344l-14.460937-122.332031c-.210937-1.800781.300781-3.609375 1.421875-5.027344 1.117188-1.421875 2.757812-2.339844 4.558594-2.554687l114.179687-13.492188c3.691407-.460937 7.140625 2.234375 7.578125 5.980469l14.460938 122.332031c.214844 1.800781-.300782 3.609375-1.417969 5.027344-1.121094 1.421875-2.761719 2.339844-4.5625 2.554687l-114.179687 13.492188c-.265626.03125-.535157.046875-.808594.046875zm-6.867188-123.179687 12.855469 108.769531 100.621094-11.890625-12.855469-108.773438zm0 0" fill="#0e65e5"/><path d="m98.492188 98.808594 109.976562-26.445313 27.832031 115.746094-109.976562 26.445313zm0 0" fill="#2a8ee6"/><path d="m126.320312 221.5c-1.273437 0-2.527343-.347656-3.628906-1.019531-1.574218-.96875-2.695312-2.515625-3.125-4.300781l-27.832031-115.746094c-.433594-1.796875-.132813-3.6875.828125-5.253906.960938-1.574219 2.507812-2.699219 4.300781-3.128907l109.976563-26.4375c3.726562-.898437 7.484375 1.398438 8.375 5.125l27.835937 115.742188c.433594 1.792969.132813 3.679687-.828125 5.25-.960937 1.574219-2.507812 2.703125-4.300781 3.128906l-109.976563 26.445313c-.539062.136718-1.085937.195312-1.625.195312zm-19.449218-117.5625 24.578125 102.234375 96.464843-23.199219-24.582031-102.226562zm0 0" fill="#0e65e5"/><path d="m334.890625 395.945312h-327.679687l13.65625-266.238281h300.371093zm0 0" fill="#94c1ff"/><path d="m334.890625 402.773438h-327.679687c-1.871094 0-3.660157-.765626-4.949219-2.125-1.285157-1.355469-1.960938-3.179688-1.867188-5.046876l13.65625-266.242187c.183594-3.632813 3.179688-6.480469 6.816407-6.480469h300.371093c3.632813 0 6.628907 2.847656 6.816407 6.480469l13.652343 266.242187c.097657 1.867188-.578125 3.691407-1.867187 5.046876-1.285156 1.359374-3.078125 2.125-4.949219 2.125zm-320.492187-13.652344h313.308593l-12.957031-252.585938h-287.398438zm0 0" fill="#0e65e5"/><path d="m235.90625 170.667969c0 7.539062-6.113281 13.652343-13.652344 13.652343-7.542968 0-13.65625-6.113281-13.65625-13.652343 0-7.542969 6.113282-13.65625 13.65625-13.65625 7.539063 0 13.652344 6.113281 13.652344 13.65625zm0 0" fill="#94c1ff"/><path d="m222.253906 191.148438c-11.292968 0-20.480468-9.1875-20.480468-20.480469s9.1875-20.480469 20.480468-20.480469c11.292969 0 20.476563 9.1875 20.476563 20.480469s-9.183594 20.480469-20.476563 20.480469zm0-27.308594c-3.765625 0-6.828125 3.058594-6.828125 6.828125 0 3.765625 3.0625 6.824219 6.828125 6.824219 3.761719 0 6.824219-3.058594 6.824219-6.824219 0-3.769531-3.0625-6.828125-6.824219-6.828125zm0 0" fill="#0e65e5"/><path d="m133.503906 170.667969c0 7.539062-6.113281 13.652343-13.652344 13.652343-7.539062 0-13.652343-6.113281-13.652343-13.652343 0-7.542969 6.113281-13.65625 13.652343-13.65625 7.539063 0 13.652344 6.113281 13.652344 13.65625zm0 0" fill="#94c1ff"/><g fill="#0e65e5"><path d="m119.851562 191.148438c-11.292968 0-20.480468-9.1875-20.480468-20.480469s9.1875-20.480469 20.480468-20.480469c11.292969 0 20.480469 9.1875 20.480469 20.480469s-9.1875 20.480469-20.480469 20.480469zm0-27.308594c-3.761718 0-6.828124 3.058594-6.828124 6.828125 0 3.765625 3.066406 6.824219 6.828124 6.824219 3.761719 0 6.828126-3.058594 6.828126-6.824219 0-3.769531-3.066407-6.828125-6.828126-6.828125zm0 0"/><path d="m171.050781 273.066406c-31.996093 0-58.027343-26.035156-58.027343-58.027344v-37.546874c0-3.773438 3.058593-6.824219 6.828124-6.824219 3.769532 0 6.828126 3.050781 6.828126 6.824219v37.546874c0 24.46875 19.90625 44.375 44.371093 44.375 24.46875 0 44.375-19.90625 44.375-44.375v-35.734374c-.171875-.574219-.261719-1.183594-.261719-1.8125 0-3.773438 2.792969-6.824219 6.5625-6.824219h.527344c3.769532 0 6.824219 3.050781 6.824219 6.824219v37.546874c0 31.992188-26.03125 58.027344-58.027344 58.027344zm0 0"/><path d="m7.210938 395.945312h327.679687l-1.046875-20.480468h-325.582031zm0 0"/><path d="m334.890625 402.773438h-327.679687c-1.871094 0-3.660157-.765626-4.949219-2.125-1.285157-1.355469-1.960938-3.179688-1.867188-5.046876l1.050781-20.480468c.1875-3.632813 3.183594-6.480469 6.816407-6.480469h325.582031c3.632812 0 6.628906 2.847656 6.816406 6.480469l1.046875 20.480468c.097657 1.867188-.578125 3.691407-1.867187 5.046876-1.285156 1.359374-3.078125 2.125-4.949219 2.125zm-320.492187-13.652344h313.308593l-.351562-6.828125h-312.605469zm0 0"/></g><path d="m78.890625 389.121094c-3.769531 0-6.824219-3.054688-6.824219-6.828125v-27.304688c0-3.773437 3.054688-6.828125 6.824219-6.828125s6.828125 3.054688 6.828125 6.828125v27.304688c0 3.773437-3.058594 6.828125-6.828125 6.828125zm0 0" fill="#fff"/><path d="m92.546875 375.464844h-27.308594c-3.769531 0-6.828125-3.050782-6.828125-6.824219s3.058594-6.828125 6.828125-6.828125h27.308594c3.769531 0 6.824219 3.054688 6.824219 6.828125s-3.054688 6.824219-6.824219 6.824219zm0 0" fill="#fff"/><path d="m37.933594 184.320312c-3.773438 0-6.828125-3.054687-6.828125-6.828124v-27.304688c0-3.773438 3.054687-6.828125 6.828125-6.828125h22.449218c3.769532 0 6.824219 3.054687 6.824219 6.828125s-3.054687 6.824219-6.824219 6.824219h-15.625v20.480469c0 3.773437-3.054687 6.828124-6.824218 6.828124zm0 0" fill="#fff"/></svg>