<svg id="bold" enable-background="new 0 0 32 32" height="512" viewBox="0 0 32 32" width="512" xmlns="http://www.w3.org/2000/svg"><path d="m26 32h-20c-3.314 0-6-2.686-6-6v-20c0-3.314 2.686-6 6-6h20c3.314 0 6 2.686 6 6v20c0 3.314-2.686 6-6 6z" fill="#e3f8fa"/><path d="m20 10.86v-.86c0-1.1-.9-2-2-2h-6.667c-1.1 0-2 .9-2 2v12c0 1.1.9 2 2 2h6.667c1.1 0 2-.9 2-2v-3.527l-.373-.107c-.267.307-.587.553-.96.72v1.58h-8v-10.666c0-.367.3-.667.667-.667h6.666c.367 0 .667.3.667.667v1.24z" fill="#26c6da"/><g fill="#8ce1eb"><path d="m17.5 18.017c-.827 0-1.5-.673-1.5-1.5 0-.525.277-1.013.722-1.272.239-.138.545-.057.684.181.139.239.058.545-.181.684-.141.081-.225.233-.225.407 0 .276.225.5.5.5s.5-.224.5-.5c0-.072-.014-.132-.042-.186-.129-.244-.036-.547.208-.676.243-.13.546-.036.676.208.105.198.158.418.158.654 0 .827-.673 1.5-1.5 1.5z"/><path d="m22.167 17.699c-.047 0-.094-.007-.141-.02l-7-2.049c-.213-.062-.359-.258-.359-.48v-1c0-.223.148-.42.363-.481l7-2c.15-.042.314-.013.438.082.126.094.199.242.199.399v5.049c0 .158-.074.306-.201.4-.087.066-.193.1-.299.1z"/><path d="m22.167 17.983c-.276 0-.5-.224-.5-.5v-5.667c0-.276.224-.5.5-.5s.5.224.5.5v5.667c0 .276-.224.5-.5.5z"/><path d="m15.167 15.983c-.276 0-.5-.224-.5-.5v-1.667c0-.276.224-.5.5-.5s.5.224.5.5v1.667c0 .276-.224.5-.5.5z"/></g></svg>