<svg height="354pt" viewBox="0 -3 354.98667 354" width="354pt" xmlns="http://www.w3.org/2000/svg"><g fill="#6628ea"><path d="m298.132812 341.824219h-261.757812c-16.320312 0-29.546875-13.226563-29.546875-29.546875v-186.664063c0-16.320312 13.226563-29.546875 29.546875-29.546875h261.757812c16.320313 0 29.546876 13.226563 29.546876 29.546875v186.664063c0 16.320312-13.226563 29.546875-29.546876 29.546875zm0 0"/><path d="m298.132812 348.652344h-261.761718c-20.050782 0-36.371094-16.320313-36.371094-36.375v-186.667969c0-20.050781 16.320312-36.371094 36.371094-36.371094h261.761718c20.054688 0 36.371094 16.320313 36.371094 36.371094v186.667969c.003906 20.054687-16.316406 36.375-36.371094 36.375zm-261.761718-245.761719c-12.523438 0-22.71875 10.195313-22.71875 22.71875v186.667969c0 12.527344 10.195312 22.722656 22.71875 22.722656h261.761718c12.527344 0 22.71875-10.195312 22.71875-22.722656v-186.667969c0-12.527344-10.195312-22.71875-22.71875-22.71875zm0 0"/><path d="m170.667969 150.679688h-143.359375v-20.503907c0-37.691406 30.550781-68.242187 68.242187-68.242187h75.117188zm0 0"/><path d="m170.667969 157.503906h-143.359375c-3.773438 0-6.828125-3.050781-6.828125-6.824218v-20.507813c0-41.394531 33.671875-75.066406 75.066406-75.066406h75.121094c3.773437 0 6.824219 3.054687 6.824219 6.828125v88.746094c0 3.773437-3.050782 6.824218-6.824219 6.824218zm-136.535157-13.652344h129.707032v-75.09375h-68.292969c-33.867187 0-61.414063 27.546876-61.414063 61.414063zm0 0"/></g><path d="m81.921875 34.625h218.453125v163.839844h-218.453125zm0 0" fill="#94c1ff"/><path d="m300.375 205.292969h-218.453125c-3.773437 0-6.828125-3.054688-6.828125-6.828125v-163.839844c0-3.773438 3.054688-6.828125 6.828125-6.828125h218.453125c3.773438 0 6.824219 3.054687 6.824219 6.828125v163.839844c0 3.773437-3.050781 6.828125-6.824219 6.828125zm-211.628906-13.65625h204.800781v-150.183594h-204.800781zm0 0" fill="#6628ea"/><path d="m81.921875 61.933594c30.160156 0 54.613281 24.449218 54.613281 54.613281 0 30.160156-24.453125 54.613281-54.613281 54.613281zm0 0" fill="#d7e9ff"/><path d="m81.921875 177.984375c-3.773437 0-6.828125-3.050781-6.828125-6.824219v-109.226562c0-3.773438 3.054688-6.828125 6.828125-6.828125 33.878906 0 61.4375 27.558593 61.4375 61.441406 0 33.878906-27.558594 61.4375-61.4375 61.4375zm6.824219-108.738281v94.597656c23.128906-3.316406 40.960937-23.265625 40.960937-47.296875 0-24.035156-17.832031-43.984375-40.960937-47.300781zm0 0" fill="#6628ea"/><path d="m259.414062 198.464844c0-22.621094 18.335938-40.960938 40.960938-40.960938" fill="#94c1ff"/><path d="m259.414062 205.292969c-3.773437 0-6.828124-3.054688-6.828124-6.828125 0-26.347656 21.441406-47.785156 47.789062-47.785156 3.773438 0 6.824219 3.050781 6.824219 6.824218 0 3.773438-3.050781 6.828125-6.824219 6.828125-18.820312 0-34.136719 15.3125-34.136719 34.132813 0 3.773437-3.050781 6.828125-6.824219 6.828125zm0 0" fill="#6628ea"/><path d="m259.414062 34.625c0 22.621094 18.335938 40.960938 40.960938 40.960938" fill="#94c1ff"/><path d="m300.375 82.410156c-26.347656 0-47.789062-21.4375-47.789062-47.785156 0-3.773438 3.054687-6.828125 6.828124-6.828125 3.773438 0 6.824219 3.054687 6.824219 6.828125 0 18.820312 15.316407 34.132812 34.136719 34.132812 3.773438 0 6.824219 3.054688 6.824219 6.828126 0 3.773437-3.050781 6.824218-6.824219 6.824218zm0 0" fill="#6628ea"/><path d="m286.71875 7.316406v27.308594h-204.796875zm0 0" fill="#94c1ff"/><path d="m286.71875 41.453125h-204.796875c-3.59375 0-6.574219-2.789063-6.816406-6.375-.230469-3.585937 2.347656-6.746094 5.914062-7.21875l204.800781-27.304687c1.953126-.261719 3.921876.332031 5.398438 1.632812 1.480469 1.289062 2.328125 3.164062 2.328125 5.128906v27.308594c0 3.773438-3.054687 6.828125-6.828125 6.828125zm-101.945312-13.65625h95.121093v-12.679687zm0 0" fill="#6628ea"/><path d="m318.613281 341.824219h-261.757812c-16.320313 0-29.546875-13.226563-29.546875-29.546875v-186.664063c0-16.320312 13.226562-29.546875 29.546875-29.546875h261.757812c16.316407 0 29.546875 13.226563 29.546875 29.546875v186.664063c0 16.320312-13.230468 29.546875-29.546875 29.546875zm0 0" fill="#d7e9ff"/><path d="m318.613281 348.652344h-261.761719c-20.050781 0-36.371093-16.320313-36.371093-36.375v-186.667969c0-20.050781 16.320312-36.371094 36.371093-36.371094h261.761719c20.050781 0 36.371094 16.320313 36.371094 36.371094v186.667969c.003906 20.054687-16.316406 36.375-36.371094 36.375zm-261.761719-245.761719c-12.523437 0-22.71875 10.195313-22.71875 22.71875v186.667969c0 12.527344 10.195313 22.722656 22.71875 22.722656h261.761719c12.527344 0 22.71875-10.195312 22.71875-22.722656v-186.667969c0-12.527344-10.195312-22.71875-22.71875-22.71875zm0 0" fill="#6628ea"/><path d="m269.652344 266.730469h78.507812v-75.09375h-78.507812c-20.734375 0-37.546875 16.8125-37.546875 37.546875 0 20.738281 16.8125 37.546875 37.546875 37.546875zm0 0" fill="#94c1ff"/><path d="m348.160156 273.558594h-78.507812c-24.464844 0-44.371094-19.90625-44.371094-44.375 0-24.464844 19.90625-44.371094 44.371094-44.371094h78.507812c3.773438 0 6.828125 3.050781 6.828125 6.824219v75.09375c0 3.773437-3.054687 6.828125-6.828125 6.828125zm-78.507812-75.09375c-16.9375 0-30.71875 13.78125-30.71875 30.71875 0 16.941406 13.78125 30.722656 30.71875 30.722656h71.679687v-61.441406zm0 0" fill="#6628ea"/><path d="m286.71875 229.183594c0 9.425781-7.640625 17.066406-17.066406 17.066406-9.425782 0-17.066406-7.640625-17.066406-17.066406 0-9.425782 7.640624-17.066406 17.066406-17.066406 9.425781 0 17.066406 7.640624 17.066406 17.066406zm0 0" fill="#94c1ff"/><path d="m269.652344 253.078125c-13.171875 0-23.890625-10.71875-23.890625-23.894531 0-13.171875 10.71875-23.890625 23.890625-23.890625 13.175781 0 23.894531 10.71875 23.894531 23.890625 0 13.175781-10.71875 23.894531-23.894531 23.894531zm0-34.132813c-5.644532 0-10.238282 4.59375-10.238282 10.238282 0 5.648437 4.59375 10.242187 10.238282 10.242187 5.648437 0 10.242187-4.59375 10.242187-10.242187 0-5.644532-4.59375-10.238282-10.242187-10.238282zm0 0" fill="#6628ea"/><path d="m40.960938 137.023438h-13.652344c-3.773438 0-6.828125-3.050782-6.828125-6.824219 0-3.773438 3.054687-6.828125 6.828125-6.828125h13.652344c3.773437 0 6.824218 3.054687 6.824218 6.828125 0 3.773437-3.050781 6.824219-6.824218 6.824219zm0 0" fill="#6628ea"/><path d="m307.820312 137.023438h-26.6875c-3.773437 0-6.828124-3.050782-6.828124-6.824219 0-3.773438 3.054687-6.828125 6.828124-6.828125h26.6875c3.773438 0 6.824219 3.054687 6.824219 6.828125 0 3.773437-3.050781 6.824219-6.824219 6.824219zm-53.375 0h-26.683593c-3.773438 0-6.828125-3.050782-6.828125-6.824219 0-3.773438 3.054687-6.828125 6.828125-6.828125h26.683593c3.773438 0 6.828126 3.054687 6.828126 6.828125 0 3.773437-3.054688 6.824219-6.828126 6.824219zm-53.367187 0h-26.6875c-3.773437 0-6.824219-3.050782-6.824219-6.824219 0-3.773438 3.050782-6.828125 6.824219-6.828125h26.6875c3.773437 0 6.828125 3.054687 6.828125 6.828125 0 3.773437-3.054688 6.824219-6.828125 6.824219zm-53.371094 0h-26.6875c-3.773437 0-6.828125-3.050782-6.828125-6.824219 0-3.773438 3.054688-6.828125 6.828125-6.828125h26.6875c3.773438 0 6.828125 3.054687 6.828125 6.828125 0 3.773437-3.054687 6.824219-6.828125 6.824219zm-53.375 0h-26.683593c-3.773438 0-6.828126-3.050782-6.828126-6.824219 0-3.773438 3.054688-6.828125 6.828126-6.828125h26.6875c3.773437 0 6.824218 3.054687 6.824218 6.828125 0 3.773437-3.054687 6.824219-6.828125 6.824219zm0 0" fill="#6628ea"/><path d="m348.160156 137.023438h-13.652344c-3.773437 0-6.828124-3.050782-6.828124-6.824219 0-3.773438 3.054687-6.828125 6.828124-6.828125h13.652344c3.773438 0 6.828125 3.054687 6.828125 6.828125 0 3.773437-3.054687 6.824219-6.828125 6.824219zm0 0" fill="#6628ea"/><path d="m68.265625 321.34375c-3.773437 0-6.824219-3.050781-6.824219-6.824219v-27.308593c0-3.773438 3.050782-6.824219 6.824219-6.824219s6.828125 3.050781 6.828125 6.824219v27.308593c0 3.773438-3.054688 6.824219-6.828125 6.824219zm0 0" fill="#fff"/><path d="m81.921875 307.691406h-27.308594c-3.773437 0-6.828125-3.054687-6.828125-6.828125 0-3.773437 3.054688-6.824219 6.828125-6.824219h27.308594c3.773437 0 6.824219 3.050782 6.824219 6.824219 0 3.773438-3.050782 6.828125-6.824219 6.828125zm0 0" fill="#fff"/><path d="m157.011719 61.933594h-34.132813c-3.773437 0-6.824218-3.054688-6.824218-6.828125 0-3.773438 3.050781-6.828125 6.824218-6.828125h34.132813c3.773437 0 6.828125 3.054687 6.828125 6.828125 0 3.773437-3.054688 6.828125-6.828125 6.828125zm0 0" fill="#fff"/></svg>
