<svg width="199" height="267" viewBox="0 0 199 267" fill="none" xmlns="http://www.w3.org/2000/svg">
<g filter="url(#filter0_i)">
<path d="M99.4928 0C44.618 0 0 45.2199 0 100.831C0 179.829 90.1229 261.389 93.9853 264.901C95.5049 266.253 97.4638 267 99.4928 267C101.522 267 103.481 266.253 105 264.901C108.877 261.389 199 179.829 199 100.831C199 45.2199 154.368 0 99.4928 0ZM131.765 93.2175L94.4431 152.815C93.8679 153.709 93.0768 154.442 92.1437 154.946C91.2106 155.449 90.1659 155.706 89.1072 155.693C88.4199 155.699 87.737 155.582 87.0902 155.348C85.7655 154.948 84.6233 154.091 83.8645 152.927C83.1058 151.764 82.779 150.369 82.9417 148.987L88.2776 108.013H72.5418C71.4245 108.02 70.3255 107.727 69.3576 107.166C68.3897 106.604 67.5878 105.794 67.0343 104.817C66.5129 103.858 66.2736 102.77 66.3445 101.679C66.4155 100.588 66.7936 99.5402 67.4348 98.6577L104.743 47.0333C105.58 45.9195 106.752 45.1076 108.085 44.7186C109.417 44.3296 110.839 44.3842 112.139 44.8745C113.419 45.3323 114.504 46.2214 115.207 47.3911C115.911 48.5609 116.192 49.9394 116.001 51.2933L110.865 84.1792H126.43C127.514 84.1664 128.584 84.4384 129.532 84.9685C130.48 85.4985 131.275 86.2682 131.837 87.2016C132.386 88.1052 132.676 89.1435 132.676 90.2023C132.676 91.2611 132.386 92.2995 131.837 93.2031L131.765 93.2175Z" fill="#5530E5"/>
</g>
<defs>
<filter id="filter0_i" x="0" y="0" width="199" height="281.625" filterUnits="userSpaceOnUse" color-interpolation-filters="sRGB">
<feFlood flood-opacity="0" result="BackgroundImageFix"/>
<feBlend mode="normal" in="SourceGraphic" in2="BackgroundImageFix" result="shape"/>
<feColorMatrix in="SourceAlpha" type="matrix" values="0 0 0 0 0 0 0 0 0 0 0 0 0 0 0 0 0 0 127 0" result="hardAlpha"/>
<feOffset dy="14.625"/>
<feGaussianBlur stdDeviation="7.3125"/>
<feComposite in2="hardAlpha" operator="arithmetic" k2="-1" k3="1"/>
<feColorMatrix type="matrix" values="0 0 0 0 0 0 0 0 0 0 0 0 0 0 0 0 0 0 0.25 0"/>
<feBlend mode="normal" in2="shape" result="effect1_innerShadow"/>
</filter>
</defs>
</svg>
