<svg width="312" height="136" viewBox="0 0 312 136" fill="none" xmlns="http://www.w3.org/2000/svg">
<g filter="url(#filter0_d)">
<g filter="url(#filter1_i)">
<path d="M49.7759 5.27271C24.5284 5.27271 4 26.0582 4 51.6199C4 87.9316 45.4649 125.421 47.242 127.035C47.9411 127.657 48.8424 128 49.7759 128C50.7095 128 51.6107 127.657 52.3099 127.035C54.0935 125.421 95.5584 87.9316 95.5584 51.6199C95.5584 26.0582 75.0234 5.27271 49.7759 5.27271ZM64.6243 48.1204L47.4526 75.5146C47.1879 75.9256 46.8239 76.2625 46.3946 76.4939C45.9653 76.7253 45.4847 76.8435 44.9976 76.8376C44.6813 76.8403 44.3671 76.7866 44.0696 76.6789C43.4601 76.495 42.9345 76.101 42.5854 75.5662C42.2363 75.0315 42.086 74.3901 42.1609 73.7549L44.6159 54.921H37.376C36.8619 54.9242 36.3563 54.7899 35.9109 54.5318C35.4656 54.2737 35.0967 53.9012 34.842 53.4523C34.6021 53.0115 34.492 52.5111 34.5246 52.0097C34.5573 51.5083 34.7313 51.0266 35.0263 50.621L52.1914 26.8917C52.5764 26.3797 53.1157 26.0066 53.7289 25.8277C54.3421 25.6489 54.9964 25.674 55.5942 25.8994C56.1834 26.1098 56.6822 26.5185 57.0061 27.0562C57.3299 27.5939 57.4589 28.2275 57.3712 28.8498L55.0084 43.9659H62.1693C62.6684 43.96 63.1604 44.0851 63.5967 44.3287C64.033 44.5723 64.3985 44.9261 64.6572 45.3552C64.9096 45.7705 65.0432 46.2478 65.0432 46.7344C65.0432 47.2211 64.9096 47.6984 64.6572 48.1138L64.6243 48.1204Z" fill="white"/>
</g>
<path d="M112.906 60V33.7793H119.547V36.123C120.458 35.179 121.638 34.4629 123.087 33.9746C124.552 33.4701 125.951 33.2178 127.286 33.2178C130.785 33.2178 133.186 34.3001 134.488 36.4648C136.653 34.3001 139.558 33.2178 143.204 33.2178C145.711 33.2178 147.721 33.9014 149.234 35.2686C150.764 36.6195 151.529 38.4017 151.529 40.6152V60H144.889V41.3965C144.889 40.127 144.555 39.2643 143.888 38.8086C143.237 38.3366 142.285 38.1006 141.031 38.1006C139.794 38.1006 138.598 38.4261 137.442 39.0771C136.303 39.7282 135.685 40.599 135.587 41.6895V60H128.946V41.3965C128.946 40.127 128.596 39.2643 127.896 38.8086C127.197 38.3366 126.204 38.1006 124.918 38.1006C123.648 38.1006 122.436 38.4505 121.28 39.1504C120.125 39.834 119.547 40.7699 119.547 41.958V60H112.906ZM159.293 30.0439V24.1602H165.934V30.0439H159.293ZM159.293 60V33.7793H165.934V60H159.293ZM170.719 60L179.752 46.8164L170.743 33.7793H177.677L183.121 41.9824L188.565 33.7793H195.328L186.539 46.9141L195.377 60H188.761L183.243 51.748L177.774 60H170.719Z" fill="#F5F5F5"/>
<path d="M122.805 104.516C119.164 104.516 116.531 103.758 114.906 102.242C113.281 100.727 112.469 98.3906 112.469 95.2344V86.5859C112.469 84.1328 113.305 82.2031 114.977 80.7969C116.648 79.3906 119.172 78.6875 122.547 78.6875C125.938 78.6875 128.453 79.3438 130.094 80.6562C131.75 81.9531 132.578 83.8125 132.578 86.2344V92.1406H116.875V95.6328C116.875 97.6953 117.289 99.1328 118.117 99.9453C118.945 100.742 120.438 101.141 122.594 101.141C124.75 101.141 125.969 101.094 126.25 101C126.531 100.906 126.82 100.797 127.117 100.672C127.414 100.547 127.617 100.398 127.727 100.227C127.852 100.055 128.008 99.7969 128.195 99.4531C128.398 99.0938 128.547 98.4062 128.641 97.3906H132.531C132.375 98.875 132.109 100.07 131.734 100.977C131.375 101.883 130.797 102.609 130 103.156C129.219 103.688 128.273 104.047 127.164 104.234C126.07 104.422 124.617 104.516 122.805 104.516ZM116.875 89.1641H128.312V85.7656C128.312 84.3594 127.828 83.3906 126.859 82.8594C125.906 82.3281 124.5 82.0625 122.641 82.0625C120.781 82.0625 119.352 82.3828 118.352 83.0234C117.367 83.6641 116.875 84.7188 116.875 86.1875V89.1641ZM156.344 85.6953C156.344 83.2734 154.492 82.0625 150.789 82.0625C148.961 82.0625 147.523 82.4531 146.477 83.2344C145.43 84.0156 144.906 85.0391 144.906 86.3047V104H140.5V79.1562H144.906V81.5703C146.562 79.6484 149.016 78.6875 152.266 78.6875C156.484 78.6875 159.156 80.1719 160.281 83.1406C160.594 83.9844 160.75 84.9219 160.75 85.9531V104H156.344V85.6953ZM180.719 104.188C177.25 104.188 174.742 103.641 173.195 102.547C171.664 101.453 170.898 99.5703 170.898 96.8984V82.4844H166.75V79.1562H171.062L171.602 71.4688H175.305V79.1562H181.539V82.4844H175.305V96.6172C175.305 98.1797 175.75 99.2188 176.641 99.7344C177.547 100.234 179.117 100.484 181.352 100.484H181.844L181.375 104.188H180.719ZM188.922 104V79.1562H193.328V82.6719C193.891 81.1406 195.414 80.0312 197.898 79.3438C199.195 78.9688 200.547 78.7891 201.953 78.8047L201.812 82.5781C199.688 82.5781 197.742 83 195.977 83.8438C194.211 84.6875 193.328 85.6094 193.328 86.6094V104H188.922ZM216.977 104.516C213.336 104.516 210.703 103.758 209.078 102.242C207.453 100.727 206.641 98.3906 206.641 95.2344V86.5859C206.641 84.1328 207.477 82.2031 209.148 80.7969C210.82 79.3906 213.344 78.6875 216.719 78.6875C220.109 78.6875 222.625 79.3438 224.266 80.6562C225.922 81.9531 226.75 83.8125 226.75 86.2344V92.1406H211.047V95.6328C211.047 97.6953 211.461 99.1328 212.289 99.9453C213.117 100.742 214.609 101.141 216.766 101.141C218.922 101.141 220.141 101.094 220.422 101C220.703 100.906 220.992 100.797 221.289 100.672C221.586 100.547 221.789 100.398 221.898 100.227C222.023 100.055 222.18 99.7969 222.367 99.4531C222.57 99.0938 222.719 98.4062 222.812 97.3906H226.703C226.547 98.875 226.281 100.07 225.906 100.977C225.547 101.883 224.969 102.609 224.172 103.156C223.391 103.688 222.445 104.047 221.336 104.234C220.242 104.422 218.789 104.516 216.977 104.516ZM211.047 89.1641H222.484V85.7656C222.484 84.3594 222 83.3906 221.031 82.8594C220.078 82.3281 218.672 82.0625 216.812 82.0625C214.953 82.0625 213.523 82.3828 212.523 83.0234C211.539 83.6641 211.047 84.7188 211.047 86.1875V89.1641ZM237.227 109.32C238.852 109.914 240.844 110.211 243.203 110.211C245.562 110.211 247.211 109.766 248.148 108.875C249.102 107.984 249.578 106.602 249.578 104.727V101.281C248.938 101.875 247.977 102.32 246.695 102.617C245.43 102.914 244.266 103.062 243.203 103.062C236.922 103.062 233.781 100.414 233.781 95.1172V86.9375C233.781 84.3594 234.562 82.3438 236.125 80.8906C237.703 79.4219 240.062 78.6875 243.203 78.6875C244.453 78.6875 245.734 78.9531 247.047 79.4844C248.375 80 249.219 80.5547 249.578 81.1484V79.1562H253.984V103.414C253.984 106.398 253.195 108.836 251.617 110.727C250.055 112.617 247.523 113.562 244.023 113.562C240.523 113.562 237.93 113.25 236.242 112.625L237.227 109.32ZM249.578 85.4844C249.578 83.2031 247.68 82.0625 243.883 82.0625C240.086 82.0625 238.188 83.5312 238.188 86.4688V95.7969C238.188 98.3906 240.086 99.6875 243.883 99.6875C246.117 99.6875 248.016 99.0625 249.578 97.8125V85.4844ZM269.148 104.516C266.633 104.516 264.68 103.836 263.289 102.477C261.898 101.102 261.203 99.3984 261.203 97.3672C261.203 96.2109 261.445 95.25 261.93 94.4844C262.914 92.9219 265.852 91.4297 270.742 90.0078C273.57 89.2266 275.195 88.5547 275.617 87.9922C276.055 87.4297 276.297 86.9922 276.344 86.6797C276.391 86.3516 276.414 85.8359 276.414 85.1328C276.414 84.4297 276.125 83.7422 275.547 83.0703C274.984 82.3984 273.75 82.0625 271.844 82.0625C269.156 82.0625 267.508 82.5781 266.898 83.6094C266.586 84.1406 266.43 84.8594 266.43 85.7656V86.8672H262.188V85.7422C262.188 83.3203 262.992 81.5391 264.602 80.3984C266.227 79.2578 268.648 78.6875 271.867 78.6875C275.086 78.6875 277.383 79.4219 278.758 80.8906C280.133 82.3438 280.82 84.4219 280.82 87.125V97.7188C280.82 99.0156 280.984 99.8594 281.312 100.25C281.641 100.625 282.344 100.812 283.422 100.812L282.906 104.188H282.016C280.453 104.188 279.289 103.891 278.523 103.297C277.758 102.688 277.172 101.75 276.766 100.484C275.469 102.422 273.906 103.641 272.078 104.141C271.203 104.391 270.227 104.516 269.148 104.516ZM271.352 93.0312C269.133 93.6719 267.594 94.3125 266.734 94.9531C265.891 95.5938 265.469 96.5 265.469 97.6719C265.469 98.8281 265.859 99.7031 266.641 100.297C267.438 100.891 268.391 101.188 269.5 101.188C270.625 101.188 271.641 101.047 272.547 100.766C273.453 100.469 274.266 100.039 274.984 99.4766C275.719 98.8984 276.195 98.2422 276.414 97.5078V90.3359C275.273 91.4766 273.586 92.375 271.352 93.0312ZM297.367 101.141C300.695 101.141 302.359 99.8984 302.359 97.4141C302.359 96.3359 302.211 95.5391 301.914 95.0234C301.617 94.4922 300.922 94.0234 299.828 93.6172L293.922 91.4375C292.109 90.7969 290.844 90.0391 290.125 89.1641C289.422 88.2734 289.07 87.1641 289.07 85.8359C289.07 84.5078 289.203 83.4453 289.469 82.6484C289.734 81.8359 290.172 81.125 290.781 80.5156C292 79.2969 294.188 78.6875 297.344 78.6875C300.5 78.6875 303.219 79.1406 305.5 80.0469L304.492 83.4219C303.695 83.0938 302.648 82.7891 301.352 82.5078C300.055 82.2109 298.922 82.0625 297.953 82.0625C295.719 82.0625 294.305 82.4219 293.711 83.1406C293.352 83.5938 293.172 84.2578 293.172 85.1328C293.172 86.0078 293.312 86.6328 293.594 87.0078C293.891 87.3672 294.461 87.6953 295.305 87.9922L301.141 90.2891C303.172 91.0859 304.508 91.9688 305.148 92.9375C305.789 93.8906 306.109 95.3984 306.109 97.4609C306.109 99.5234 305.445 101.219 304.117 102.547C302.789 103.859 300.734 104.516 297.953 104.516C295.922 104.516 294.117 104.297 292.539 103.859C290.961 103.422 289.75 102.969 288.906 102.5L289.984 99.2656C292.219 100.516 294.68 101.141 297.367 101.141Z" fill="#F5F5F5"/>
</g>
<defs>
<filter id="filter0_d" x="0" y="5.27271" width="310.109" height="130.727" filterUnits="userSpaceOnUse" color-interpolation-filters="sRGB">
<feFlood flood-opacity="0" result="BackgroundImageFix"/>
<feColorMatrix in="SourceAlpha" type="matrix" values="0 0 0 0 0 0 0 0 0 0 0 0 0 0 0 0 0 0 127 0"/>
<feOffset dy="4"/>
<feGaussianBlur stdDeviation="2"/>
<feColorMatrix type="matrix" values="0 0 0 0 0 0 0 0 0 0 0 0 0 0 0 0 0 0 0.25 0"/>
<feBlend mode="normal" in2="BackgroundImageFix" result="effect1_dropShadow"/>
<feBlend mode="normal" in="SourceGraphic" in2="effect1_dropShadow" result="shape"/>
</filter>
<filter id="filter1_i" x="4" y="5.27271" width="91.5584" height="126.727" filterUnits="userSpaceOnUse" color-interpolation-filters="sRGB">
<feFlood flood-opacity="0" result="BackgroundImageFix"/>
<feBlend mode="normal" in="SourceGraphic" in2="BackgroundImageFix" result="shape"/>
<feColorMatrix in="SourceAlpha" type="matrix" values="0 0 0 0 0 0 0 0 0 0 0 0 0 0 0 0 0 0 127 0" result="hardAlpha"/>
<feOffset dy="4"/>
<feGaussianBlur stdDeviation="2"/>
<feComposite in2="hardAlpha" operator="arithmetic" k2="-1" k3="1"/>
<feColorMatrix type="matrix" values="0 0 0 0 0 0 0 0 0 0 0 0 0 0 0 0 0 0 0.25 0"/>
<feBlend mode="normal" in2="shape" result="effect1_innerShadow"/>
</filter>
</defs>
</svg>
