<svg width="1127" height="468" viewBox="0 0 1127 468" fill="none" xmlns="http://www.w3.org/2000/svg">
<g filter="url(#filter0_i)">
<path d="M167.368 19.2789C75.0571 19.2789 6.10352e-05 95.2757 6.10352e-05 188.736C6.10352e-05 321.5 151.606 458.57 158.103 464.472C160.66 466.745 163.955 468 167.368 468C170.782 468 174.077 466.745 176.633 464.472C183.155 458.57 334.761 321.5 334.761 188.736C334.761 95.2757 259.68 19.2789 167.368 19.2789ZM221.658 175.941L158.874 276.101C157.906 277.604 156.575 278.835 155.005 279.681C153.436 280.527 151.678 280.96 149.897 280.938C148.741 280.948 147.592 280.751 146.504 280.358C144.276 279.685 142.355 278.245 141.078 276.29C139.802 274.334 139.252 271.989 139.526 269.667L148.502 200.805H122.031C120.151 200.817 118.303 200.326 116.674 199.383C115.046 198.439 113.697 197.077 112.766 195.436C111.889 193.824 111.486 191.994 111.606 190.161C111.725 188.328 112.361 186.567 113.44 185.083L176.2 98.3233C177.608 96.4515 179.579 95.087 181.821 94.4332C184.063 93.7794 186.455 93.8713 188.641 94.6952C190.796 95.4645 192.619 96.9587 193.804 98.9246C194.988 100.891 195.459 103.207 195.139 105.483L186.5 160.751H212.682C214.506 160.729 216.305 161.187 217.9 162.077C219.496 162.968 220.832 164.262 221.778 165.83C222.701 167.349 223.189 169.094 223.189 170.873C223.189 172.653 222.701 174.398 221.778 175.916L221.658 175.941Z" fill="#5530E5"/>
</g>
<path d="M398.189 220V124.131H422.469V132.7C425.801 129.248 430.116 126.63 435.412 124.845C440.768 123 445.886 122.077 450.765 122.077C463.56 122.077 472.337 126.035 477.098 133.95C485.013 126.035 495.635 122.077 508.965 122.077C518.13 122.077 525.479 124.577 531.014 129.576C536.607 134.515 539.404 141.031 539.404 149.124V220H515.125V151.981C515.125 147.339 513.905 144.185 511.465 142.519C509.084 140.793 505.603 139.93 501.021 139.93C496.498 139.93 492.124 141.12 487.899 143.501C483.733 145.881 481.472 149.065 481.115 153.052V220H456.835V151.981C456.835 147.339 455.556 144.185 452.997 142.519C450.438 140.793 446.808 139.93 442.107 139.93C437.465 139.93 433.032 141.21 428.806 143.769C424.581 146.268 422.469 149.69 422.469 154.034V220H398.189ZM567.79 110.473V88.9606H592.07V110.473H567.79ZM567.79 220V124.131H592.07V220H567.79ZM609.566 220L642.593 171.797L609.655 124.131H635.006L654.912 154.123L674.818 124.131H699.544L667.409 172.155L699.722 220H675.532L655.358 189.829L635.363 220H609.566Z" fill="#5530E5"/>
<path d="M434.38 381.073C421.069 381.073 411.443 378.302 405.501 372.76C399.56 367.219 396.589 358.678 396.589 347.138V315.517C396.589 306.548 399.646 299.493 405.758 294.351C411.871 289.209 421.098 286.639 433.437 286.639C445.834 286.639 455.032 289.038 461.031 293.837C467.086 298.579 470.114 305.377 470.114 314.232V335.827H412.7V348.595C412.7 356.136 414.214 361.392 417.241 364.362C420.269 367.276 425.725 368.733 433.609 368.733C441.493 368.733 445.949 368.561 446.977 368.219C448.005 367.876 449.062 367.476 450.148 367.019C451.233 366.562 451.976 366.019 452.376 365.391C452.833 364.762 453.404 363.82 454.089 362.563C454.832 361.249 455.375 358.735 455.718 355.022H469.943C469.371 360.449 468.4 364.82 467.029 368.133C465.715 371.446 463.601 374.103 460.688 376.102C457.831 378.045 454.375 379.359 450.319 380.044C446.32 380.73 441.007 381.073 434.38 381.073ZM412.7 324.944H454.518V312.518C454.518 307.376 452.747 303.834 449.205 301.892C445.72 299.95 440.578 298.978 433.78 298.978C426.982 298.978 421.755 300.15 418.098 302.492C414.499 304.834 412.7 308.69 412.7 314.06V324.944ZM557.007 312.261C557.007 303.406 550.237 298.978 536.698 298.978C530.014 298.978 524.758 300.407 520.93 303.263C517.103 306.12 515.189 309.862 515.189 314.489V379.187H499.078V288.352H515.189V297.179C521.245 290.152 530.214 286.639 542.097 286.639C557.521 286.639 567.29 292.066 571.404 302.92C572.546 306.005 573.118 309.433 573.118 313.204V379.187H557.007V312.261ZM646.128 379.873C633.446 379.873 624.276 377.873 618.621 373.874C613.022 369.875 610.223 362.991 610.223 353.222V300.521H595.055V288.352H610.823L612.794 260.245H626.333V288.352H649.128V300.521H626.333V352.194C626.333 357.907 627.961 361.706 631.218 363.591C634.531 365.419 640.273 366.333 648.442 366.333H650.242L648.528 379.873H646.128ZM676.121 379.187V288.352H692.231V301.206C694.288 295.608 699.858 291.552 708.942 289.038C713.683 287.667 718.625 287.01 723.766 287.067L723.252 300.864C715.483 300.864 708.37 302.406 701.915 305.491C695.459 308.576 692.231 311.947 692.231 315.603V379.187H676.121ZM778.696 381.073C765.385 381.073 755.759 378.302 749.817 372.76C743.876 367.219 740.905 358.678 740.905 347.138V315.517C740.905 306.548 743.962 299.493 750.074 294.351C756.187 289.209 765.413 286.639 777.753 286.639C790.15 286.639 799.348 289.038 805.347 293.837C811.402 298.579 814.43 305.377 814.43 314.232V335.827H757.016V348.595C757.016 356.136 758.529 361.392 761.557 364.362C764.585 367.276 770.041 368.733 777.925 368.733C785.808 368.733 790.265 368.561 791.293 368.219C792.321 367.876 793.378 367.476 794.464 367.019C795.549 366.562 796.292 366.019 796.692 365.391C797.149 364.762 797.72 363.82 798.405 362.563C799.148 361.249 799.691 358.735 800.034 355.022H814.259C813.687 360.449 812.716 364.82 811.345 368.133C810.031 371.446 807.917 374.103 805.004 376.102C802.147 378.045 798.691 379.359 794.635 380.044C790.636 380.73 785.323 381.073 778.696 381.073ZM757.016 324.944H798.834V312.518C798.834 307.376 797.063 303.834 793.521 301.892C790.036 299.95 784.894 298.978 778.096 298.978C771.298 298.978 766.07 300.15 762.414 302.492C758.815 304.834 757.016 308.69 757.016 314.06V324.944ZM852.735 398.64C858.676 400.811 865.96 401.896 874.587 401.896C883.213 401.896 889.24 400.268 892.668 397.012C896.153 393.755 897.895 388.699 897.895 381.844V369.247C895.553 371.418 892.04 373.046 887.355 374.132C882.728 375.217 878.472 375.76 874.587 375.76C851.621 375.76 840.138 366.076 840.138 346.71V316.803C840.138 307.376 842.995 300.007 848.707 294.694C854.477 289.324 863.104 286.639 874.587 286.639C879.157 286.639 883.842 287.61 888.641 289.552C893.496 291.437 896.581 293.466 897.895 295.636V288.352H914.006V377.045C914.006 387.957 911.121 396.869 905.351 403.781C899.638 410.694 890.383 414.15 877.586 414.15C864.789 414.15 855.306 413.008 849.136 410.723L852.735 398.64ZM897.895 311.49C897.895 303.149 890.954 298.978 877.072 298.978C863.19 298.978 856.248 304.349 856.248 315.089V349.195C856.248 358.678 863.19 363.42 877.072 363.42C885.241 363.42 892.182 361.135 897.895 356.564V311.49ZM969.449 381.073C960.252 381.073 953.11 378.588 948.026 373.617C942.942 368.59 940.399 362.363 940.399 354.936C940.399 350.709 941.285 347.195 943.056 344.396C946.655 338.683 957.395 333.227 975.276 328.029C985.617 325.172 991.558 322.716 993.101 320.659C994.7 318.602 995.586 317.003 995.757 315.86C995.929 314.66 996.014 312.775 996.014 310.204C996.014 307.633 994.957 305.12 992.844 302.663C990.787 300.207 986.274 298.978 979.304 298.978C969.478 298.978 963.451 300.864 961.223 304.634C960.08 306.577 959.509 309.205 959.509 312.518V316.546H943.998V312.432C943.998 303.577 946.941 297.065 952.825 292.894C958.766 288.724 967.621 286.639 979.39 286.639C991.158 286.639 999.556 289.324 1004.58 294.694C1009.61 300.007 1012.12 307.605 1012.12 317.488V356.222C1012.12 360.963 1012.72 364.048 1013.92 365.477C1015.12 366.848 1017.69 367.533 1021.64 367.533L1019.75 379.873H1016.49C1010.78 379.873 1006.53 378.788 1003.73 376.617C1000.93 374.389 998.785 370.961 997.3 366.333C992.558 373.417 986.845 377.873 980.161 379.702C976.962 380.616 973.391 381.073 969.449 381.073ZM977.505 339.083C969.392 341.425 963.765 343.768 960.623 346.11C957.538 348.452 955.995 351.766 955.995 356.05C955.995 360.278 957.424 363.477 960.28 365.648C963.194 367.819 966.679 368.904 970.735 368.904C974.848 368.904 978.561 368.39 981.875 367.362C985.188 366.276 988.159 364.705 990.787 362.649C993.472 360.535 995.214 358.135 996.014 355.45V329.228C991.844 333.399 985.674 336.684 977.505 339.083ZM1072.62 368.733C1084.79 368.733 1090.88 364.191 1090.88 355.108C1090.88 351.166 1090.33 348.252 1089.25 346.367C1088.16 344.424 1085.62 342.711 1081.62 341.225L1060.03 333.256C1053.4 330.914 1048.77 328.143 1046.14 324.944C1043.57 321.687 1042.29 317.631 1042.29 312.775C1042.29 307.919 1042.77 304.034 1043.75 301.121C1044.72 298.15 1046.32 295.551 1048.54 293.323C1053 288.867 1061 286.639 1072.54 286.639C1084.08 286.639 1094.02 288.295 1102.36 291.609L1098.67 303.949C1095.76 302.749 1091.93 301.635 1087.19 300.607C1082.45 299.521 1078.31 298.978 1074.77 298.978C1066.6 298.978 1061.43 300.292 1059.26 302.92C1057.94 304.577 1057.29 307.005 1057.29 310.204C1057.29 313.404 1057.8 315.689 1058.83 317.06C1059.91 318.374 1062 319.573 1065.08 320.659L1086.42 329.057C1093.85 331.97 1098.73 335.198 1101.07 338.74C1103.42 342.225 1104.59 347.738 1104.59 355.279C1104.59 362.82 1102.16 369.018 1097.3 373.874C1092.45 378.673 1084.94 381.073 1074.77 381.073C1067.34 381.073 1060.74 380.273 1054.97 378.673C1049.2 377.074 1044.77 375.417 1041.69 373.703L1045.63 361.877C1053.8 366.448 1062.8 368.733 1072.62 368.733Z" fill="#5530E5"/>
<defs>
<filter id="filter0_i" x="6.10352e-05" y="19.2789" width="334.761" height="463.347" filterUnits="userSpaceOnUse" color-interpolation-filters="sRGB">
<feFlood flood-opacity="0" result="BackgroundImageFix"/>
<feBlend mode="normal" in="SourceGraphic" in2="BackgroundImageFix" result="shape"/>
<feColorMatrix in="SourceAlpha" type="matrix" values="0 0 0 0 0 0 0 0 0 0 0 0 0 0 0 0 0 0 127 0" result="hardAlpha"/>
<feOffset dy="14.625"/>
<feGaussianBlur stdDeviation="7.3125"/>
<feComposite in2="hardAlpha" operator="arithmetic" k2="-1" k3="1"/>
<feColorMatrix type="matrix" values="0 0 0 0 0 0 0 0 0 0 0 0 0 0 0 0 0 0 0.25 0"/>
<feBlend mode="normal" in2="shape" result="effect1_innerShadow"/>
</filter>
</defs>
</svg>
