<svg xmlns="http://www.w3.org/2000/svg" viewBox="0 0 127.33 169.77"><defs><style>.cls-1{fill:#fff;}</style></defs><g id="Camada_2" data-name="Camada 2"><g id="Camada_1-2" data-name="Camada 1"><path class="cls-1" d="M63.66,0C28.55,0,0,28.77,0,64.13c0,50.24,57.68,102.12,60.14,104.3a5.31,5.31,0,0,0,7,0c2.46-2.18,60.14-54.06,60.14-104.3C127.33,28.77,98.77,0,63.66,0ZM84.29,59.29,60.42,97.19A4,4,0,0,1,57,99a3.83,3.83,0,0,1-1.29-.21,3.79,3.79,0,0,1-2.66-4.06l3.42-26.05H46.39a4,4,0,0,1-3.52-2,3.64,3.64,0,0,1,.25-3.92L67,29.92a4.12,4.12,0,0,1,4.73-1.37,3.77,3.77,0,0,1,2.47,4.09L70.91,53.55h10a4,4,0,0,1,3.46,1.92A3.65,3.65,0,0,1,84.29,59.29Z"/></g></g></svg>