<svg xmlns="http://www.w3.org/2000/svg" viewBox="0 0 500 500"><defs><style>.cls-1{fill:#e0e0e0;}.cls-2{fill:#f5f5f5;}.cls-3{fill:#ebebeb;}.cls-4{fill:#263238;}.cls-5{fill:#fff;}.cls-6{fill:#5530e5;}.cls-7{opacity:0.5;}.cls-8{opacity:0.3;}.cls-9{fill:#fafafa;}.cls-10{fill:#455a64;}.cls-11{fill:#ffbe9d;}.cls-12{opacity:0.6;}.cls-13{opacity:0.4;}.cls-14{fill:#eb996e;}</style></defs><g id="Background_Complete" data-name="Background Complete"><path class="cls-1" d="M259.41,103.85a20.27,20.27,0,0,0,3.19-1.46,12.54,12.54,0,0,0,5.67-7.93,13.48,13.48,0,0,0,.28-3.41,18.69,18.69,0,0,0-.74-3.72c-.69-2.59-1.44-5.41-2.25-8.42L260.1,58.37l-6.6-24.9-1.8-6.83a12.66,12.66,0,0,0-3.29-6.15,12.11,12.11,0,0,0-6.28-3.39,14.38,14.38,0,0,0-7.39.67L169.23,35a12.2,12.2,0,0,0-6.89,4.86,12,12,0,0,0-2.05,8.06,29.57,29.57,0,0,0,.94,4.19c.37,1.41.73,2.8,1.1,4.2q1.09,4.19,2.17,8.29c2.87,11,5.63,21.53,8.27,31.61,1.32,5,2.6,10,3.84,14.72a13.9,13.9,0,0,0,2.94,6.38,11.89,11.89,0,0,0,5.63,3.7c4.37,1.55,8.72-.54,12.88-1.44l12-3.11,36.11-9.32,9.83-2.49,2.57-.62a8.92,8.92,0,0,1,.88-.18s-.29.11-.86.27l-2.54.72-9.78,2.66-36,9.62-11.94,3.17L191.88,122a12.93,12.93,0,0,1-13-4.12,14.74,14.74,0,0,1-3.13-6.7q-1.87-7.14-3.88-14.71c-2.65-10.07-5.43-20.63-8.32-31.59q-1.08-4.11-2.18-8.29c-.37-1.39-.73-2.79-1.1-4.2a30.42,30.42,0,0,1-1-4.33,12.89,12.89,0,0,1,2.21-8.71A13.19,13.19,0,0,1,169,34.07l65.53-17.16a15.24,15.24,0,0,1,7.78-.66A12.93,12.93,0,0,1,249,19.9a13.37,13.37,0,0,1,3.47,6.54q.91,3.47,1.78,6.83c2.33,9,4.5,17.3,6.49,24.93s3.75,14.51,5.32,20.57l2.18,8.44A18.73,18.73,0,0,1,269,91a13.77,13.77,0,0,1-.33,3.52,12.69,12.69,0,0,1-5.94,8,10.92,10.92,0,0,1-2.42,1.06C259.71,103.79,259.41,103.85,259.41,103.85Z"/><path class="cls-1" d="M233.06,78.25a2.89,2.89,0,0,1-.6.2l-1.77.51-6.56,1.81-22,5.92-.18,0-.07-.17c-.48-1.12-1-2.31-1.48-3.52-4.31-10.31-8.15-19.52-10.65-25.53l.16.07-5.9,1.5-1.57.38a4.11,4.11,0,0,1-.55.11,2.2,2.2,0,0,1,.53-.18l1.56-.45,5.86-1.62.11,0,.05.11,10.79,25.47,1.48,3.52-.25-.12,22.08-5.78,6.59-1.68,1.79-.43A4,4,0,0,1,233.06,78.25Z"/><path class="cls-1" d="M199.43,80.29s0,0,.15-.06l.46-.14,1.76-.5,6.63-1.82,22.88-6.15-.16.22c-.34-4-.71-8.39-1.1-12.91-.19-2.32-.38-4.6-.57-6.78l.27.19-27,7.08-8,2.06-2.17.53-.56.13-.19,0,.18-.07.55-.16,2.15-.61,8-2.18,27-7.22.25-.07,0,.25c.18,2.18.38,4.46.57,6.78.38,4.52.75,8.88,1.08,12.92l0,.17-.17,0-22.92,6-6.65,1.7-1.79.44-.46.1A.62.62,0,0,1,199.43,80.29Z"/><path class="cls-1" d="M212,92.84s-.11-.26-.37-.69a3.2,3.2,0,0,0-1.56-1.31,3.08,3.08,0,0,0-2.88.36,3,3,0,1,0,4.12,4.34,3.17,3.17,0,0,0,.71-1.91c0-.5,0-.78,0-.79a1.65,1.65,0,0,1,.19.79,3.15,3.15,0,0,1-.64,2.1,3.34,3.34,0,0,1-2.95,1.33A3.4,3.4,0,0,1,207,90.87a3.32,3.32,0,0,1,3.22-.31,3.19,3.19,0,0,1,1.6,1.51A1.52,1.52,0,0,1,212,92.84Z"/><path class="cls-1" d="M232,87.55s-.11-.27-.37-.69a3.2,3.2,0,0,0-1.56-1.31A3,3,0,0,0,226,89.14a3,3,0,0,0,2.62,2.23,3.07,3.07,0,0,0,2.68-1.12,3.22,3.22,0,0,0,.71-1.92c0-.49-.06-.77,0-.78a1.58,1.58,0,0,1,.19.78,3.14,3.14,0,0,1-.64,2.1,3.34,3.34,0,0,1-2.95,1.33,3.4,3.4,0,0,1-3-2.51A3.43,3.43,0,0,1,227,85.57a3.35,3.35,0,0,1,3.22-.3,3.15,3.15,0,0,1,1.6,1.51A1.64,1.64,0,0,1,232,87.55Z"/><path class="cls-2" d="M413.66,462.68c-22.45-11-31.09-36.62-33.92-60.37-.47-4-1.54-8.05-.2-11.8s5.36-6.79,9.14-5.67c3.14.93,4.95,4.14,7,6.7A23.21,23.21,0,0,0,406.31,399c2.71.92,5.94,1.24,8.21-.51,3.11-2.4,2.79-7.16,2.16-11.08l-3.51-21.91c-.63-3.92-1.26-7.92-.61-11.83s2.81-7.79,6.38-9.4,8.52-.18,9.9,3.54c.57,1.54.5,3.25.86,4.86s1.4,3.3,3,3.52,3-1.14,4-2.47c3.44-4.58,5.4-10.1,7.19-15.57s3.48-11.05,6.49-15.93,7.57-9.09,13.13-10.28,12.09,1.37,14.36,6.66S477.82,330,475,335a88.85,88.85,0,0,1-15.56,20.18c-1.1,1.07-2.3,2.22-2.55,3.75-.45,2.74,2.43,5,5.15,5.42,3.07.53,6.2-.27,9.31-.38s6.63.73,8.24,3.45c2.22,3.76-.49,8.48-3.36,11.74A76,76,0,0,1,456,395.37c-2.72,1.5-5.62,2.9-7.63,5.28s-2.88,6.13-1.05,8.68,5.58,2.87,8.51,1.85,5.39-3.08,8.11-4.61c5.07-2.87,12.09-3.57,16.26.56,2.74,2.72,3.6,6.95,3,10.78s-2.43,7.32-4.46,10.6C471.67,440,461.87,449.84,450,456.1s-23.24,9.22-36.37,6.58"/><path class="cls-1" d="M417.48,446.93a358.18,358.18,0,0,1,8.13-40q1.36-5.25,2.67-10.37c.89-3.4,1.76-6.77,2.83-10a176.77,176.77,0,0,1,7.16-18.31c2.56-5.71,5.2-11,7.71-16s4.95-9.54,7.34-13.62A140.54,140.54,0,0,1,466,320.22c1.67-2,3-3.59,3.94-4.62l1-1.17a3.4,3.4,0,0,1,.38-.38,4.11,4.11,0,0,1-.32.43l-1,1.21c-.89,1.07-2.2,2.64-3.83,4.71a149.42,149.42,0,0,0-12.5,18.48c-2.36,4.08-4.75,8.67-7.24,13.63s-5.1,10.31-7.64,16a180.82,180.82,0,0,0-7.09,18.26c-1.06,3.23-1.92,6.57-2.8,10l-2.67,10.37a362.91,362.91,0,0,0-8.17,39.9"/><path class="cls-1" d="M431.31,386.49a8.23,8.23,0,0,1-.64-1.61c-.38-1.06-.86-2.6-1.44-4.51-1.16-3.82-2.57-9.15-4.11-15s-3-11.18-4.24-15c-.6-1.9-1.1-3.43-1.46-4.49a9,9,0,0,1-.48-1.66,7.79,7.79,0,0,1,.75,1.56c.44,1,1,2.54,1.68,4.42,1.34,3.77,2.91,9.06,4.45,14.95s2.87,11.06,3.91,15.08c.48,1.81.88,3.34,1.21,4.56A8.06,8.06,0,0,1,431.31,386.49Z"/><path class="cls-1" d="M480.29,369.31a11.48,11.48,0,0,1-2,.55c-1.27.31-3.12.76-5.39,1.38-4.54,1.21-10.76,3.1-17.52,5.48s-12.8,4.83-17.11,6.72c-2.16.92-3.89,1.72-5.09,2.26a12.05,12.05,0,0,1-1.89.79,10.05,10.05,0,0,1,1.77-1.05c1.16-.62,2.86-1.49,5-2.48,4.27-2,10.29-4.53,17.07-6.94a183.42,183.42,0,0,1,17.64-5.29c2.3-.56,4.17-.93,5.47-1.15A11,11,0,0,1,480.29,369.31Z"/><path class="cls-1" d="M418,445.91a2.93,2.93,0,0,1-.44-.56l-1.14-1.69c-1-1.48-2.36-3.65-4-6.35-3.32-5.4-7.68-13-12.37-21.47s-9-16.1-12.17-21.57c-1.57-2.65-2.86-4.84-3.81-6.46-.42-.7-.75-1.29-1-1.76a2.61,2.61,0,0,1-.32-.65,3.3,3.3,0,0,1,.44.57l1.15,1.69c1,1.47,2.35,3.64,4,6.34,3.32,5.41,7.68,13,12.37,21.48s9,16.1,12.17,21.56c1.57,2.65,2.86,4.84,3.81,6.46.42.71.76,1.29,1,1.77A2.68,2.68,0,0,1,418,445.91Z"/><path class="cls-1" d="M481.65,414s-.2.16-.62.38l-1.85.95-6.82,3.43c-5.75,2.9-13.66,7-22.39,11.52s-16.68,8.56-22.5,11.34c-2.91,1.39-5.27,2.49-6.92,3.22l-1.91.83a2.74,2.74,0,0,1-.68.24,2.94,2.94,0,0,1,.62-.38l1.85-.95,6.82-3.43c5.75-2.89,13.66-7,22.39-11.52s16.68-8.56,22.5-11.34c2.91-1.39,5.27-2.49,6.92-3.22l1.91-.83A2.91,2.91,0,0,1,481.65,414Z"/><path class="cls-3" d="M29.46,100.72s-11.16,2.71-2.31,26.85,15.52,36.37,15.52,36.37,1.42,5.53-3.12,5.81-14.14-2.46-16.78,2.73c-2.73,5.39.72,11.21,8.46,16.88S55.47,208.08,57,209.27s2.74,3.81-.32,4.5-25.35.32-24.89,10.9S56.37,247.52,59,248.91s3.13,2.63,2.73,4.11-7.89.65-14.23.8-13.67,1.45-12.89,7.53,14.24,20.31,50.16,28.27l16.89,2.6,11-13.21c21.73-29.68,22.46-49.25,19-54.34s-9.79-1.22-14.66,2.85-9.94,9.63-11.22,8.79-1.71-2.12-.66-4.89,11.1-27.92,4.46-36.18-23.14,6.73-25.9,8.24-3.53-1.34-3.2-3.18,4.12-22.56,6.19-31.93.83-16-4.79-18.26c-5.41-2.17-10.81,6.23-14.41,9s-6.18-2.3-6.18-2.3-3-13.59-12.34-37.57-19.69-18.46-19.69-18.46"/><path class="cls-1" d="M102,296.31c-6.75-17.63-18.22-49.18-28.21-76.21s-19-51.48-25.71-69.15L40.21,130l-2.15-5.68c-.24-.64-.42-1.13-.55-1.49s-.17-.51-.17-.51a4.39,4.39,0,0,1,.22.49c.15.35.34.84.6,1.47L40.4,130c1.94,4.91,4.69,12,8.07,20.86,6.75,17.63,15.87,42.07,25.85,69.09s21.4,58.6,28.06,76.27"/><path class="cls-1" d="M36,176.86a5.69,5.69,0,0,1,1.14.48c.72.33,1.75.84,3,1.48,2.53,1.29,6,3.17,9.74,5.3l9.62,5.5,2.92,1.65a5.88,5.88,0,0,1,1.06.64,4.75,4.75,0,0,1-1.15-.46c-.72-.33-1.75-.85-3-1.5-2.52-1.32-5.94-3.23-9.7-5.37L40,179.15l-2.93-1.63A4.89,4.89,0,0,1,36,176.86Z"/><path class="cls-1" d="M64.83,191c-.13-.07,3.41-7.34,7.92-16.25s8.26-16.07,8.39-16-3.41,7.34-7.92,16.25S65,191,64.83,191Z"/><path class="cls-1" d="M78.29,233.17a6.21,6.21,0,0,1,.82-1l2.34-2.5c2-2.12,4.68-5,7.56-8.4s5.38-6.46,7.18-8.73c.84-1.07,1.55-2,2.13-2.69a5.59,5.59,0,0,1,.83-.95,6.64,6.64,0,0,1-.67,1.07c-.45.67-1.13,1.63-2,2.8-1.73,2.33-4.19,5.49-7.08,8.84s-5.65,6.27-7.69,8.32c-1,1-1.87,1.84-2.47,2.39A5.94,5.94,0,0,1,78.29,233.17Z"/><path class="cls-1" d="M49.45,226.14a4.46,4.46,0,0,1,1.15.16l3.11.63c2.62.55,6.23,1.35,10.2,2.27s7.58,1.77,10.18,2.42l3.07.79a5.84,5.84,0,0,1,1.11.36,4.51,4.51,0,0,1-1.16-.16L74,232c-2.62-.55-6.22-1.35-10.2-2.27s-7.58-1.77-10.18-2.42l-3.06-.79A5.23,5.23,0,0,1,49.45,226.14Z"/><path class="cls-1" d="M56.6,264.9a9.64,9.64,0,0,1,1.48.22l4,.79c3.36.69,8,1.68,13.11,2.81s9.73,2.17,13.07,2.95l4,1a7.81,7.81,0,0,1,1.43.42,7.24,7.24,0,0,1-1.48-.22l-4-.79c-3.36-.69-8-1.68-13.11-2.81s-9.73-2.17-13.07-3l-3.95-1A6.92,6.92,0,0,1,56.6,264.9Z"/><path class="cls-1" d="M92.79,272.61a8.45,8.45,0,0,1,1-1.25l2.85-3.28c2.41-2.78,5.72-6.62,9.25-11s6.64-8.36,8.86-11.28l2.64-3.46a9.66,9.66,0,0,1,1-1.23,10,10,0,0,1-.85,1.35c-.58.86-1.43,2.08-2.5,3.57-2.15,3-5.21,7-8.76,11.39s-6.9,8.16-9.38,10.88c-1.24,1.35-2.26,2.43-3,3.17A10.76,10.76,0,0,1,92.79,272.61Z"/></g><g id="Table"><path class="cls-4" d="M462.12,464.51c0,.15-96.33.26-215.13.26s-215.15-.11-215.15-.26,96.31-.26,215.15-.26S462.12,464.37,462.12,464.51Z"/></g><g id="Screen"><path class="cls-5" d="M415.58,52.61l-29,0A7.22,7.22,0,0,0,379.52,60v5.26a7.21,7.21,0,0,1-7,7.36l-56.55,0a7.22,7.22,0,0,1-7-7.37V59.91a7.21,7.21,0,0,0-7.05-7.36h-10.2l-25.39,0A22.84,22.84,0,0,0,243.4,75.35l-.07,366.17a22.82,22.82,0,0,0,22.81,22.83l149.34.09a22.82,22.82,0,0,0,22.84-22.82l.07-366.18A22.83,22.83,0,0,0,415.58,52.61Z"/><path class="cls-4" d="M415.58,52.61l.78,0a15.35,15.35,0,0,1,2.31.17,21.54,21.54,0,0,1,8.57,3A22.27,22.27,0,0,1,432.45,60a22.8,22.8,0,0,1,4.34,6.82,23.46,23.46,0,0,1,1.71,9.27c0,3.37,0,7,0,10.76,0,30.42,0,74.42.07,128.8s0,119.13,0,191v34.22a24.53,24.53,0,0,1-.88,7,23.36,23.36,0,0,1-2.91,6.44,24.84,24.84,0,0,1-4.76,5.27,23.1,23.1,0,0,1-13.18,5.12c-4.79.14-9.54,0-14.35.06H373.47l-59.66,0-30.52,0H267.87A24.15,24.15,0,0,1,253,460.57a23.29,23.29,0,0,1-9-12.5,25,25,0,0,1-1-7.72v-7.7q0-15.37,0-30.53,0-30.3,0-59.68c0-39.13,0-76.87,0-112.83s0-70.12.05-102.1q0-24,0-46.26V75.71c0-.92.08-1.85.13-2.77s.23-1.83.47-2.72a23.34,23.34,0,0,1,4.8-9.68,23.17,23.17,0,0,1,18.61-8.24l19.9,0h14.27a7.3,7.3,0,0,1,4.49,1.25,7.61,7.61,0,0,1,2.79,3.67,12.22,12.22,0,0,1,.47,4.51V64a15.68,15.68,0,0,0,.07,2.18,7.2,7.2,0,0,0,1.7,3.82,6.72,6.72,0,0,0,3.49,2.16,7.84,7.84,0,0,0,2.06.21h10.34l30.1,0,13.27,0c1.05,0,2.12,0,3.11,0a6.79,6.79,0,0,0,2.8-1,7.3,7.3,0,0,0,3.2-4.6A13,13,0,0,0,379.4,64V61.31a15.75,15.75,0,0,1,.12-2.66,7.79,7.79,0,0,1,.86-2.44A7.24,7.24,0,0,1,384,53a11.45,11.45,0,0,1,4.53-.48l14.81,0,9.11,0,3.1,0-3.1,0-9.11,0-14.81,0a11.34,11.34,0,0,0-4.46.49,7,7,0,0,0-3.52,3.13,7.25,7.25,0,0,0-.83,2.38,15.07,15.07,0,0,0-.11,2.62V64a12.35,12.35,0,0,1-.18,2.83,7.46,7.46,0,0,1-3.3,4.77,6.86,6.86,0,0,1-2.91,1c-1.05.09-2.07,0-3.14,0H316.4a7.85,7.85,0,0,1-2.15-.21,7,7,0,0,1-3.69-2.28,7.54,7.54,0,0,1-1.8-4,16.75,16.75,0,0,1-.08-2.23V61.77a11.83,11.83,0,0,0-.45-4.37,7.09,7.09,0,0,0-2.64-3.47,6.92,6.92,0,0,0-4.26-1.18H267.16a23.68,23.68,0,0,0-10,1.89,23.42,23.42,0,0,0-8.29,6.21,23,23,0,0,0-4.69,9.48c-.23.87-.3,1.77-.45,2.66s-.11,1.8-.13,2.72v5.54q0,22.26,0,46.26c0,32,0,66.15,0,102.1V342.44q0,29.34,0,59.68v38.23a24.24,24.24,0,0,0,.93,7.54A22.73,22.73,0,0,0,253.37,460a23.45,23.45,0,0,0,14.5,4h15.42l30.52,0,59.66,0,29.08,0c4.79,0,9.6.08,14.31-.06a22.49,22.49,0,0,0,12.83-5,23.76,23.76,0,0,0,4.63-5.13,22.52,22.52,0,0,0,2.84-6.26,23.68,23.68,0,0,0,.86-6.8V434q0-13.8,0-27.29c0-71.9.08-136.65.11-191s.09-98.38.13-128.8c0-3.8,0-7.39,0-10.76a23.5,23.5,0,0,0-1.66-9.2,23,23,0,0,0-4.29-6.78,22.08,22.08,0,0,0-5.16-4.22,21.61,21.61,0,0,0-8.5-3,18.55,18.55,0,0,0-2.31-.21C415.84,52.64,415.58,52.61,415.58,52.61Z"/><path class="cls-4" d="M280.37,89.59c0,.09-3.77.2-8.43.24s-8.42,0-8.43-.1,3.78-.21,8.43-.25S280.37,89.49,280.37,89.59Z"/><path class="cls-4" d="M280.4,93.9c0,.1-3.77.21-8.42.25s-8.43,0-8.43-.11,3.77-.21,8.43-.25S280.4,93.8,280.4,93.9Z"/><path class="cls-4" d="M280.44,98.21c0,.1-3.77.21-8.43.25s-8.42,0-8.42-.11,3.77-.21,8.42-.25S280.44,98.11,280.44,98.21Z"/><rect class="cls-2" x="260.68" y="371.93" width="75.05" height="75.05"/><path class="cls-6" d="M326.86,414.86c-6.1-8.52-19.08-14.36-29.62-12.79-8.54,1.27-16.09,5.24-20.24,13.72a3.86,3.86,0,0,0,3,5.55,175.86,175.86,0,0,0,42.83-.14c2.2-.28,4.8-.89,4.95-3.6A4.32,4.32,0,0,0,326.86,414.86Z"/><g class="cls-7"><path class="cls-5" d="M326.86,414.86c-6.1-8.52-19.08-14.36-29.62-12.79-8.54,1.27-16.09,5.24-20.24,13.72"/></g><path class="cls-2" d="M293.12,414.44c-.05,0-.49-.39-1.07-1.19a9.82,9.82,0,0,1-1.62-3.54,18,18,0,0,1-.32-3.86,5.31,5.31,0,0,1,.13-1.6,4.7,4.7,0,0,1,.24,1.58,28.79,28.79,0,0,0,.46,3.76,11.9,11.9,0,0,0,1.42,3.46A6.45,6.45,0,0,1,293.12,414.44Z"/><path class="cls-2" d="M302.18,414c-.16,0,.07-2.42-.25-5.36s-1-5.25-.87-5.3a13.66,13.66,0,0,1,1.39,5.25A13.82,13.82,0,0,1,302.18,414Z"/><path class="cls-2" d="M311.53,412.64c-.14-.06.56-1.67.73-3.79S312,405,312.2,405a8.51,8.51,0,0,1-.67,7.66Z"/><g class="cls-8"><path d="M300.51,402.47l.08.15h0Z"/></g><rect class="cls-2" x="260.68" y="129.32" width="75.92" height="113.81"/><rect class="cls-2" x="260.68" y="251.71" width="75.92" height="113.81"/><rect class="cls-2" x="343.82" y="230.22" width="75.92" height="106.26"/><rect class="cls-2" x="343.21" y="343.95" width="75.92" height="103.02"/><rect class="cls-2" x="343.82" y="129.32" width="75.92" height="94"/><path class="cls-9" d="M310.56,163.35a.2.2,0,0,0,0,.05v31.5c0,1.38-1.11,2.81-3.16,3.89a19.28,19.28,0,0,1-8.75,1.82h-.05c-7.45,0-11.9-2.94-11.9-5.71V163.4a.2.2,0,0,0,0-.05s0,0,0-.06c0-3.08,2.28-6.29,4.55-9.47,1.54-2.12,1.9-5.17,2-7,0-.21,0-.4,0-.58H293a1.67,1.67,0,0,1-1.78-1.52v-1.33a1.68,1.68,0,0,1,1.78-1.54h11.19a1.83,1.83,0,0,1,1.65.93,1.55,1.55,0,0,1,.13.61v1.33a1.66,1.66,0,0,1-1.78,1.52H304c0,.18,0,.37,0,.58.07,1.8.44,4.85,2,7,2.28,3.18,4.54,6.39,4.56,9.47C310.57,163.31,310.56,163.34,310.56,163.35Z"/><path class="cls-4" d="M310.56,163.35l0-.32a7,7,0,0,0-.13-.94,12.15,12.15,0,0,0-1.31-3.4,47.89,47.89,0,0,0-3.24-4.87,13.78,13.78,0,0,1-2-7.55v-.18H304a1.6,1.6,0,0,0,1.79-1.19c0-.4,0-.89,0-1.34a1.27,1.27,0,0,0-.46-1.1,1.76,1.76,0,0,0-1.21-.39h-11a1.82,1.82,0,0,0-1.38.49,1.31,1.31,0,0,0-.32.63,7.11,7.11,0,0,0,0,.82c0,.28,0,.61,0,.84a1.16,1.16,0,0,0,.31.65,1.78,1.78,0,0,0,1.44.51l.24,0v.25a18.66,18.66,0,0,1-.42,3.84,10.51,10.51,0,0,1-1.51,3.72,30.58,30.58,0,0,0-4.13,7,8.12,8.12,0,0,0-.43,2c0,.67,0,1.41,0,2.12,0,1.43,0,2.88,0,4.34v8.92c0,5.3,0,10.48,0,15.48a9.47,9.47,0,0,0,.08,1.8,3.41,3.41,0,0,0,.84,1.49,8.19,8.19,0,0,0,2.9,2,19.42,19.42,0,0,0,6.79,1.39,23.48,23.48,0,0,0,6.59-.59,10.37,10.37,0,0,0,5.38-2.88,3.57,3.57,0,0,0,.7-1.24,4.68,4.68,0,0,0,.12-1.42c0-1,0-2,0-2.9,0-1.9,0-3.72,0-5.46,0-6.93.07-12.54.09-16.46,0-1.92,0-3.42,0-4.48s.05-1.56.05-1.56a12.57,12.57,0,0,1,.06,1.56c0,1.06,0,2.56.05,4.48,0,3.92.05,9.53.08,16.46,0,1.74,0,3.56,0,5.46,0,.95,0,1.91,0,2.9a5.15,5.15,0,0,1-.13,1.54,4.17,4.17,0,0,1-.77,1.4,10.79,10.79,0,0,1-5.6,3,23.8,23.8,0,0,1-6.73.63,19.89,19.89,0,0,1-7-1.42,8.73,8.73,0,0,1-3.08-2.09,4,4,0,0,1-.95-1.71,9.7,9.7,0,0,1-.1-1.92V164.94c0-.73,0-1.41,0-2.16a8.88,8.88,0,0,1,.46-2.13,30.82,30.82,0,0,1,4.21-7.1,13.67,13.67,0,0,0,1.86-7.28l.24.24a2.22,2.22,0,0,1-1.78-.67,1.57,1.57,0,0,1-.42-.9c0-.35,0-.6,0-.9a6.79,6.79,0,0,1,0-.89,1.7,1.7,0,0,1,.45-.87,2.23,2.23,0,0,1,1.7-.62l6.45,0h4.5a2.18,2.18,0,0,1,1.45.49,1.64,1.64,0,0,1,.59,1.39c0,.47,0,.89,0,1.39a1.94,1.94,0,0,1-2.14,1.48l.17-.17a13.63,13.63,0,0,0,1.87,7.4,45.8,45.8,0,0,1,3.18,4.94,11.81,11.81,0,0,1,1.25,3.47,6.76,6.76,0,0,1,.08.95A.76.76,0,0,1,310.56,163.35Z"/><path class="cls-4" d="M303.39,146.2a47.82,47.82,0,0,1-10,0,47.82,47.82,0,0,1,10,0Z"/><path class="cls-6" d="M309.56,167.56a3.57,3.57,0,0,0-3.41.15,12.46,12.46,0,0,1-3.28,1.41,6.23,6.23,0,0,1-4-1,24.32,24.32,0,0,0-3.71-2,7.22,7.22,0,0,0-7.45,1.75v27s1.49,4.61,12,3.89,9.63-5.34,9.63-5.34Z"/><path class="cls-9" d="M390.4,382.28v31.33c0,1.38-1.1,2.79-3.13,3.87a19.08,19.08,0,0,1-8.69,1.81h-.05c-7.41,0-11.83-2.93-11.83-5.68V382.32s0,0,0,0,0,0,0-.07c0-3.06,2.26-6.25,4.53-9.4,1.52-2.11,1.88-5.15,1.95-6.93,0-.21,0-.4,0-.57H373a1.65,1.65,0,0,1-1.76-1.52v-1.32A1.64,1.64,0,0,1,373,361h11.12a1.77,1.77,0,0,1,1.63.92,1.36,1.36,0,0,1,.14.6v1.32a1.66,1.66,0,0,1-1.77,1.52h-.2c0,.17,0,.36,0,.57.07,1.78.44,4.82,2,6.93,2.26,3.15,4.51,6.34,4.52,9.4Z"/><path class="cls-4" d="M390.4,382.28l0-.32a8.78,8.78,0,0,0-.13-.94,11.93,11.93,0,0,0-1.31-3.37,44.93,44.93,0,0,0-3.21-4.84,13.63,13.63,0,0,1-2-7.5v-.19l.18,0a1.6,1.6,0,0,0,1.78-1.19c0-.4,0-.88,0-1.33a1.24,1.24,0,0,0-.45-1.09,1.74,1.74,0,0,0-1.2-.39h-4.48l-6.4,0a1.76,1.76,0,0,0-1.37.48,1.27,1.27,0,0,0-.32.63c0,.21,0,.54,0,.81s0,.6,0,.83a1.23,1.23,0,0,0,.31.65,1.75,1.75,0,0,0,1.43.5h.23v.25a19.06,19.06,0,0,1-.41,3.81,10.73,10.73,0,0,1-1.5,3.69,29.9,29.9,0,0,0-4.11,6.95,8,8,0,0,0-.43,2c0,.67,0,1.41,0,2.11v28.56a9.33,9.33,0,0,0,.07,1.78,3.36,3.36,0,0,0,.83,1.48,8.31,8.31,0,0,0,2.88,2,19.42,19.42,0,0,0,6.75,1.38,23.19,23.19,0,0,0,6.55-.59,10.26,10.26,0,0,0,5.34-2.86,3.53,3.53,0,0,0,.7-1.23,5,5,0,0,0,.12-1.41v-2.88c0-1.89,0-3.7,0-5.42,0-6.89.06-12.47.08-16.36,0-1.91,0-3.4.05-4.44s0-1.55,0-1.55a12.13,12.13,0,0,1,.06,1.55c0,1,0,2.53.05,4.44,0,3.89,0,9.47.08,16.36,0,1.72,0,3.53,0,5.42,0,.94,0,1.9,0,2.88a5.07,5.07,0,0,1-.12,1.53,4.13,4.13,0,0,1-.77,1.39,10.74,10.74,0,0,1-5.57,3,23.41,23.41,0,0,1-6.68.63,19.75,19.75,0,0,1-6.93-1.41,8.72,8.72,0,0,1-3.06-2.08,4.06,4.06,0,0,1-.94-1.7,9.54,9.54,0,0,1-.1-1.9V383.85c0-.72,0-1.4,0-2.15a8.94,8.94,0,0,1,.46-2.11,30.39,30.39,0,0,1,4.18-7,13.6,13.6,0,0,0,1.85-7.23l.24.23a2.21,2.21,0,0,1-1.77-.66,1.64,1.64,0,0,1-.42-.9c0-.34,0-.59,0-.89a6.9,6.9,0,0,1,0-.89,1.62,1.62,0,0,1,.44-.86,2.2,2.2,0,0,1,1.69-.62l6.4,0H384a2.15,2.15,0,0,1,1.44.49,1.65,1.65,0,0,1,.58,1.38c0,.47,0,.89,0,1.38a1.94,1.94,0,0,1-2.13,1.48l.17-.17a13.33,13.33,0,0,0,1.86,7.34,45,45,0,0,1,3.15,4.91,11.46,11.46,0,0,1,1.24,3.45,5.48,5.48,0,0,1,.08.94A1,1,0,0,1,390.4,382.28Z"/><path class="cls-4" d="M383.28,365.23a47.25,47.25,0,0,1-9.9,0,47.25,47.25,0,0,1,9.9,0Z"/><path class="cls-6" d="M389.41,386.46a3.55,3.55,0,0,0-3.4.14,12.61,12.61,0,0,1-3.25,1.41,6.3,6.3,0,0,1-4-1,24.85,24.85,0,0,0-3.68-2,7.19,7.19,0,0,0-7.4,1.74v26.87s1.48,4.59,11.87,3.87,9.57-5.31,9.57-5.31Z"/><g class="cls-7"><path class="cls-5" d="M389.41,386.46a3.55,3.55,0,0,0-3.4.14,12.61,12.61,0,0,1-3.25,1.41,6.3,6.3,0,0,1-4-1,24.85,24.85,0,0,0-3.68-2,7.19,7.19,0,0,0-7.4,1.74v26.87s1.48,4.59,11.87,3.87,9.57-5.31,9.57-5.31Z"/></g><path class="cls-6" d="M406.68,268.57a2.22,2.22,0,0,0-2.11.24c-.15.1-.3.22-.46.34a28.73,28.73,0,0,1-17.56,5.63c-12.29,0-22.46-6.89-24.29-15.89v-1.7a1.22,1.22,0,1,0-2.44,0V262a1.2,1.2,0,0,0,.06.33,14.73,14.73,0,0,0-1.3,5.94c0,10.39,11,18.83,24.6,18.83,11.41,0,21-5.93,23.8-14a.19.19,0,0,0,.07-.13,5,5,0,0,0,.52-2.07A2.32,2.32,0,0,0,406.68,268.57Z"/><g class="cls-8"><path d="M361.35,263.53s11.58,26.66,43,8c0,0-8.1,8.4-18.65,10.44C376.14,283.79,362,278.41,361.35,263.53Z"/></g><path class="cls-4" d="M407.53,269.91c-.19.46-.94.59-1.67.28s-1.16-.94-1-1.4.95-.58,1.68-.28S407.73,269.45,407.53,269.91Z"/><path class="cls-4" d="M419.24,98a1.27,1.27,0,0,1-.25,0l-.71,0-2.63,0-8.83.08h-.07v-.07c-.07-.47-.14-1-.21-1.46-.62-4.28-1.16-8.1-1.52-10.6l.05,0h-3l-.22,0h.22l.62,0,2.35,0h.05V86c.37,2.49.93,6.31,1.57,10.58.07.5.14,1,.21,1.46l-.08-.07,8.83,0h3.59Z"/><path class="cls-4" d="M406.45,95.53s0,0,.06,0h.18l.71,0,2.66,0,9.16-.08-.08.07c.27-1.55.55-3.22.85-4.94l.44-2.6.08.1-10.8,0h-4.28c-.05,0-.08,0-.08,0h.3l.86,0,3.2,0,10.8-.09h.1l0,.1-.44,2.59c-.3,1.73-.58,3.4-.85,4.94v.07h-.07l-9.16,0h-3.61Z"/><path class="cls-4" d="M409.94,101.45s0-.11-.07-.3a1.18,1.18,0,1,0-1.56,1.4,1.17,1.17,0,0,0,1.11-.16,1.23,1.23,0,0,0,.46-.65c.05-.18.05-.29.06-.29a.51.51,0,0,1,0,.31,1.26,1.26,0,0,1-.44.73,1.31,1.31,0,1,1-1.25-2.27,1.29,1.29,0,0,1,1.23.2,1.21,1.21,0,0,1,.46.72A.63.63,0,0,1,409.94,101.45Z"/><path class="cls-4" d="M417.94,101.4s0-.11-.07-.29a1.33,1.33,0,0,0-.46-.65,1.22,1.22,0,0,0-1.12-.14,1.16,1.16,0,0,0-.75,1.1,1.19,1.19,0,0,0,.76,1.09,1.22,1.22,0,0,0,1.12-.16,1.28,1.28,0,0,0,.45-.65c.05-.19.05-.3.07-.3a.74.74,0,0,1,0,.31,1.21,1.21,0,0,1-.44.73,1.31,1.31,0,0,1-1.24.21,1.31,1.31,0,1,1,1.23-2.28,1.27,1.27,0,0,1,.45.72A.74.74,0,0,1,417.94,101.4Z"/><circle class="cls-6" cx="419.82" cy="86.66" r="3.54" transform="translate(-8.83 90.52) rotate(-12.18)"/><path class="cls-5" d="M420.26,85.3l0,2.69h-.62V85.79h-.53v-.5Z"/><rect class="cls-6" x="275.25" y="412.62" width="131.13" height="34.42" rx="13.88"/><g class="cls-8"><rect x="275.25" y="412.62" width="131.13" height="34.42" rx="13.88"/></g><rect class="cls-6" x="270.16" y="412.62" width="131.13" height="34.42" rx="13.88"/><path class="cls-5" d="M331.78,427.94c0,1.76-1.27,2.83-3.39,2.83h-2v2.47h-1.16V425.1h3.17C330.51,425.1,331.78,426.17,331.78,427.94Zm-1.16,0c0-1.17-.78-1.83-2.27-1.83h-2v3.65h2C329.84,429.76,330.62,429.1,330.62,427.94Z"/><path class="cls-5" d="M338.27,431.2H334l-.9,2h-1.2l3.69-8.14h1.15l3.7,8.14h-1.22Zm-.41-.93-1.75-4-1.76,4Z"/><path class="cls-5" d="M344.22,430.42v2.82h-1.15V430.4l-3.23-5.3h1.24l2.61,4.29,2.61-4.29h1.15Z"/><path class="cls-10" d="M301.17,290.44a14.73,14.73,0,0,0-12.4-16.8,1.45,1.45,0,0,0-1,.13,1.47,1.47,0,0,0-.4,1.41,17.78,17.78,0,0,0,13.83,15.68"/><path class="cls-6" d="M280.55,317.59c3.71,7.65,9.05,12.8,15.65,13.05,1.32,0,2.32-.82,3.58-.9a7.85,7.85,0,0,1,2.12.8,3.11,3.11,0,0,0,1.1.25c6.82-.37,12.64-5.17,16.56-13.2,5.46-11.25,3.77-23.33-3.76-27a18.81,18.81,0,0,0-3.08-1.21A12.56,12.56,0,0,0,309,289a27.89,27.89,0,0,0-8.56,1.93l-.36.14c-6.12-2.71-11-2.72-15.75-.43C276.76,294.26,275.09,306.34,280.55,317.59Z"/><path class="cls-9" d="M280.68,306.2a6,6,0,0,1-.62-2.27,12.14,12.14,0,0,1,3.82-10.33,5.67,5.67,0,0,1,1.94-1.31c.06.07-.7.56-1.69,1.57a13.62,13.62,0,0,0-2.91,4.63,13.47,13.47,0,0,0-.8,5.41C280.52,305.31,280.77,306.17,280.68,306.2Z"/><path class="cls-9" d="M282.07,311.54c-.14,0-.38-.5-.54-1.18s-.18-1.27,0-1.31.39.5.54,1.19S282.21,311.51,282.07,311.54Z"/><path class="cls-4" d="M316.73,272c0,.1-1.41.64-3.54,1.91a29.63,29.63,0,0,0-3.52,2.51,31,31,0,0,0-3.73,3.77,30.47,30.47,0,0,0-2.95,4.4,27.39,27.39,0,0,0-1.77,3.95c-.82,2.33-1.07,3.86-1.17,3.84a4.81,4.81,0,0,1,.12-1.08,10.55,10.55,0,0,1,.25-1.25c.13-.48.24-1,.45-1.62a26.5,26.5,0,0,1,1.69-4.07,29.13,29.13,0,0,1,3-4.5,28.59,28.59,0,0,1,3.82-3.81,26.3,26.3,0,0,1,3.65-2.46,16.44,16.44,0,0,1,1.51-.76,11,11,0,0,1,1.17-.5A5,5,0,0,1,316.73,272Z"/><path class="cls-6" d="M409.34,167.38c-6.1-8.52-19.07-14.36-29.61-12.79-8.55,1.27-16.1,5.24-20.24,13.72a3.86,3.86,0,0,0,3,5.55,176,176,0,0,0,42.84-.14c2.19-.28,4.79-.89,4.95-3.6A4.37,4.37,0,0,0,409.34,167.38Z"/><path class="cls-4" d="M375.6,167c-.05,0-.48-.39-1.07-1.19a9.91,9.91,0,0,1-1.62-3.54,17.3,17.3,0,0,1-.31-3.86,4.62,4.62,0,0,1,.13-1.6,5.25,5.25,0,0,1,.23,1.58,30.86,30.86,0,0,0,.46,3.76,12.19,12.19,0,0,0,1.42,3.46C375.33,166.4,375.67,166.91,375.6,167Z"/><path class="cls-4" d="M384.66,166.54c-.16,0,.07-2.42-.25-5.36s-1-5.25-.87-5.3a17.62,17.62,0,0,1,1.12,10.66Z"/><path class="cls-4" d="M394,165.16c-.14-.06.56-1.68.73-3.8s-.22-3.83-.06-3.86a6.74,6.74,0,0,1,.58,3.91A6.64,6.64,0,0,1,394,165.16Z"/><g class="cls-8"><path d="M383,155l.09.15h0Z"/></g><g class="cls-8"><path d="M383.08,155.14a9.06,9.06,0,0,0,1.49,10.71A14.7,14.7,0,0,0,383.08,155.14Z"/></g><g class="cls-8"><path d="M374.38,165.46a13.81,13.81,0,0,1-1.7-5.71,8.78,8.78,0,0,0-.39-2.61,6.62,6.62,0,0,0,.85,9.19,1.82,1.82,0,0,0,.7.4.68.68,0,0,0,.72-.27C374.74,166.15,374.55,165.77,374.38,165.46Z"/></g><g class="cls-8"><path d="M394.83,158.29h0a2.73,2.73,0,0,0-.3-1,.89.89,0,0,0-.85-.46c-.48.08-.7.61-.85,1.07-.62,2-1.19,4.16-.69,6.22.12.47.42,1,.91,1s.62-.39.79-.72A10,10,0,0,0,394.83,158.29Z"/></g><path class="cls-4" d="M278.46,222.32v.94h-.69v-.93a3.65,3.65,0,0,1-2-.7l.38-.85a3.19,3.19,0,0,0,1.67.64v-1.67c-.93-.23-1.92-.53-1.92-1.7,0-.85.62-1.6,1.92-1.72v-1h.69v.93a3.58,3.58,0,0,1,1.7.51l-.34.85a3.52,3.52,0,0,0-1.36-.45v1.69c.93.22,1.94.52,1.94,1.68C280.4,221.45,279.78,222.18,278.46,222.32Zm-.69-3.59v-1.49c-.59.09-.84.39-.84.76S277.29,218.59,277.77,218.73Zm1.56,1.94c0-.41-.37-.61-.87-.75v1.48C279.07,221.31,279.33,221,279.33,220.67Z"/><path class="cls-4" d="M285.41,216.39v5.86h-1.09V217.3h-1.24v-.91Z"/><path class="cls-4" d="M287.92,221.61a1.91,1.91,0,0,1-.2.72l-.42,1.19h-.68l.33-1.29a.64.64,0,0,1-.39-.62.68.68,0,1,1,1.36,0Z"/><path class="cls-4" d="M292.89,220.45c0,1-.75,1.88-2.32,1.88a3.74,3.74,0,0,1-2.21-.67l.46-.85a2.81,2.81,0,0,0,1.73.58c.78,0,1.24-.35,1.24-.9s-.36-.91-1.58-.91H288.8l.3-3.19h3.44v.91H290l-.13,1.36h.57C292.19,218.66,292.89,219.41,292.89,220.45Z"/><path class="cls-4" d="M293.52,219.32c0-1.93,1.05-3,2.44-3s2.46,1.09,2.46,3-1.06,3-2.46,3S293.52,221.25,293.52,219.32Zm3.8,0c0-1.42-.55-2.07-1.36-2.07s-1.35.65-1.35,2.07.56,2.07,1.35,2.07S297.32,220.73,297.32,219.32Z"/><path class="cls-4" d="M322.66,229.72c0,.15-10.76.26-24,.26s-24-.11-24-.26,10.75-.26,24-.26S322.66,229.58,322.66,229.72Z"/><path class="cls-4" d="M297,233.63c0,.15-5,.26-11.15.26s-11.15-.11-11.15-.26,5-.26,11.15-.26S297,233.49,297,233.63Z"/><path class="cls-4" d="M362.63,198.34v.94h-.69v-.93a3.73,3.73,0,0,1-2.05-.69l.38-.85a3.19,3.19,0,0,0,1.67.64v-1.68c-.93-.22-1.92-.53-1.92-1.69,0-.86.62-1.6,1.92-1.73v-.94h.69v.93a3.47,3.47,0,0,1,1.7.51l-.34.84a3.52,3.52,0,0,0-1.36-.45v1.69c.93.23,1.94.52,1.94,1.69C364.57,197.47,363.94,198.21,362.63,198.34Zm-.69-3.58v-1.49c-.59.09-.84.39-.84.76S361.46,194.62,361.94,194.76Zm1.56,1.93c0-.41-.37-.6-.87-.74v1.48C363.24,197.34,363.5,197.05,363.5,196.69Z"/><path class="cls-4" d="M371.8,197.35v.93h-4.32v-.73l2.32-2.21c.57-.55.67-.89.67-1.22,0-.54-.36-.84-1.08-.84a1.67,1.67,0,0,0-1.38.61l-.76-.59a2.7,2.7,0,0,1,2.23-1c1.27,0,2.09.64,2.09,1.68a2.35,2.35,0,0,1-1,1.85L369,197.35Z"/><path class="cls-4" d="M373.85,197.64a1.92,1.92,0,0,1-.19.72l-.43,1.18h-.68l.34-1.28a.65.65,0,0,1-.39-.62.68.68,0,1,1,1.35,0Z"/><path class="cls-4" d="M378.89,197.35v.93h-4.32v-.73l2.33-2.21c.56-.55.67-.89.67-1.22,0-.54-.37-.84-1.09-.84a1.67,1.67,0,0,0-1.38.61l-.76-.59a2.72,2.72,0,0,1,2.23-1c1.27,0,2.09.64,2.09,1.68a2.35,2.35,0,0,1-1,1.85l-1.56,1.49Z"/><path class="cls-4" d="M383.79,196.47c0,1-.75,1.89-2.33,1.89a3.65,3.65,0,0,1-2.2-.68l.46-.84a2.81,2.81,0,0,0,1.73.57c.78,0,1.24-.34,1.24-.89s-.36-.92-1.58-.92H379.7l.3-3.19h3.44v.92h-2.52l-.13,1.35h.57C383.09,194.68,383.79,195.44,383.79,196.47Z"/><path class="cls-4" d="M406.83,205.75c0,.14-10.76.26-24,.26s-24-.12-24-.26,10.75-.26,24-.26S406.83,205.61,406.83,205.75Z"/><path class="cls-4" d="M381.17,209.66c0,.14-5,.26-11.15.26s-11.16-.12-11.16-.26,5-.26,11.16-.26S381.17,209.52,381.17,209.66Z"/><path class="cls-4" d="M276.54,344V345h-.68V344a3.68,3.68,0,0,1-2.06-.7l.38-.84a3.19,3.19,0,0,0,1.68.63v-1.67c-.93-.23-1.93-.53-1.93-1.69,0-.86.62-1.6,1.93-1.73v-.95h.68V338a3.69,3.69,0,0,1,1.7.51l-.34.85a3.41,3.41,0,0,0-1.36-.45v1.69c.93.23,1.95.52,1.95,1.68C278.49,343.15,277.86,343.89,276.54,344Zm-.68-3.59v-1.49c-.6.1-.85.4-.85.77S275.37,340.29,275.86,340.43Zm1.55,1.94c0-.41-.36-.6-.87-.75v1.49C277.15,343,277.41,342.73,277.41,342.37Z"/><path class="cls-4" d="M281.46,341c0-1.93,1.06-3,2.45-3s2.46,1.08,2.46,3-1.06,3-2.46,3S281.46,343,281.46,341Zm3.81,0c0-1.41-.55-2.07-1.36-2.07s-1.35.66-1.35,2.07.56,2.07,1.35,2.07S285.27,342.44,285.27,341Z"/><path class="cls-4" d="M288.35,343.32a2,2,0,0,1-.2.72l-.42,1.18h-.68l.33-1.28a.65.65,0,0,1-.39-.62.68.68,0,1,1,1.36,0Z"/><path class="cls-4" d="M293.32,342.15c0,1-.75,1.89-2.32,1.89a3.74,3.74,0,0,1-2.21-.68l.46-.85a2.81,2.81,0,0,0,1.73.58c.78,0,1.24-.34,1.24-.9s-.36-.91-1.58-.91h-1.41l.3-3.19H293V339h-2.52l-.13,1.36h.57C292.62,340.36,293.32,341.11,293.32,342.15Z"/><path class="cls-4" d="M294,341c0-1.93,1.05-3,2.44-3s2.46,1.08,2.46,3-1.06,3-2.46,3S294,343,294,341Zm3.8,0c0-1.41-.55-2.07-1.36-2.07S295,339.61,295,341s.56,2.07,1.35,2.07S297.75,342.44,297.75,341Z"/><path class="cls-4" d="M320.74,351.43c0,.14-10.75.26-24,.26s-24-.12-24-.26,10.75-.26,24-.26S320.74,351.28,320.74,351.43Z"/><path class="cls-4" d="M295.08,355.34c0,.14-5,.26-11.15.26s-11.15-.12-11.15-.26,5-.26,11.15-.26S295.08,355.19,295.08,355.34Z"/><path class="cls-4" d="M358.73,312.29v.94h-.68v-.93a3.62,3.62,0,0,1-2.05-.7l.37-.84a3.27,3.27,0,0,0,1.68.63v-1.67c-.93-.23-1.93-.53-1.93-1.69,0-.86.62-1.6,1.93-1.73v-.95h.68v.93a3.77,3.77,0,0,1,1.71.51l-.35.85a3.41,3.41,0,0,0-1.36-.45v1.69c.93.23,1.95.52,1.95,1.68C360.68,311.42,360.05,312.15,358.73,312.29Zm-.68-3.59v-1.49c-.6.1-.85.4-.85.77S357.56,308.56,358.05,308.7Zm1.56,1.94c0-.41-.37-.6-.88-.75v1.49C359.35,311.28,359.61,311,359.61,310.64Z"/><path class="cls-4" d="M365.68,306.36v5.86h-1.09v-5h-1.23v-.91Z"/><path class="cls-4" d="M368.19,311.59a1.92,1.92,0,0,1-.19.72l-.43,1.18h-.68l.34-1.28a.64.64,0,0,1-.4-.62.68.68,0,1,1,1.36,0Z"/><path class="cls-4" d="M368.79,309.29c0-1.93,1.06-3,2.45-3s2.46,1.08,2.46,3-1.06,3-2.46,3S368.79,311.22,368.79,309.29Zm3.81,0c0-1.42-.55-2.07-1.36-2.07s-1.35.65-1.35,2.07.56,2.07,1.35,2.07S372.6,310.71,372.6,309.29Z"/><path class="cls-4" d="M374.44,309.29c0-1.93,1.05-3,2.44-3s2.46,1.08,2.46,3-1.06,3-2.46,3S374.44,311.22,374.44,309.29Zm3.8,0c0-1.42-.55-2.07-1.36-2.07s-1.35.65-1.35,2.07.56,2.07,1.35,2.07S378.24,310.71,378.24,309.29Z"/><path class="cls-4" d="M402.93,319.69c0,.15-10.75.27-24,.27s-24-.12-24-.27,10.75-.26,24-.26S402.93,319.55,402.93,319.69Z"/><path class="cls-4" d="M377.27,323.6c0,.15-5,.27-11.15.27S355,323.75,355,323.6s5-.26,11.15-.26S377.27,323.46,377.27,323.6Z"/><path class="cls-6" d="M366.75,95.56c0,.14-11.6.26-25.89.26S315,95.7,315,95.56s11.59-.27,25.89-.27S366.75,95.41,366.75,95.56Z"/></g><g id="Character"><path class="cls-11" d="M29.58,406.08a6.92,6.92,0,0,0-6.5,5.54,67.49,67.49,0,0,0-1.52,7.45s-5.87,5.27,0,6.69,8-6.5,8-6.5l.9-13.18Z"/><path class="cls-6" d="M88.36,305s18.34-61.59,20.21-64.24c3.08-4.39,32.77-17.59,32.77-17.59l8-16.24,49.36-7.89,12.22,15.74L245.25,240l-2.4,87.12-1.27,60.83,6.5,75.94L92,463.63l7.06-16,7.42-138.12Z"/><path class="cls-4" d="M109.51,296.72a1.65,1.65,0,0,1-.06-.5c0-.39,0-.86-.08-1.43-.05-1.24-.1-3-.14-5.25-.09-4.44-.09-10.57.1-17.34s.55-12.89.89-17.32c.17-2.21.32-4,.45-5.23.06-.57.11-1,.16-1.42a1.48,1.48,0,0,1,.09-.49,2.38,2.38,0,0,1,0,.5c0,.38,0,.85-.06,1.42-.07,1.32-.17,3.09-.28,5.25-.25,4.43-.54,10.54-.74,17.31s-.25,12.88-.26,17.32c0,2.15,0,3.93,0,5.25,0,.57,0,1,0,1.43A1.51,1.51,0,0,1,109.51,296.72Z"/><g class="cls-8"><path d="M144.87,279a3.12,3.12,0,0,1,.57-1.93,5,5,0,0,1,5.83-1.44c2.62,1.25,3.92,4.25,4.44,7.1.58,3.12.49,6.34,1.08,9.46s2,6.3,4.75,7.91c3.39,2,7.84,1.1,11.4,2.78,5.31,2.49,6.53,9.38,6.8,15.24.5,11.08,0,22.19-.46,33.28l-3.06,70.82-2.79,35.53-14.36,6.1L140.07,339Z"/></g><path class="cls-4" d="M149,268.91s-.11.1-.37.2a2.49,2.49,0,0,1-1.21.12,4.18,4.18,0,0,1-3.27-2.85,7.74,7.74,0,0,1-.29-3.08c.1-1.11.35-2.25.58-3.46.48-2.41,1-5,1.56-7.82,1.12-5.55,2.17-10.57,2.95-14.2.38-1.74.7-3.18,1-4.29a9.7,9.7,0,0,1,.42-1.56,11.11,11.11,0,0,1-.22,1.6c-.2,1.11-.47,2.57-.79,4.33-.69,3.64-1.68,8.67-2.8,14.22-.57,2.77-1.11,5.41-1.6,7.82s-1,4.59-.41,6.33a4,4,0,0,0,2.95,2.76A3.42,3.42,0,0,0,149,268.91Z"/><path class="cls-4" d="M154,245.74s-.41,0-1.09.26a5.07,5.07,0,0,0-2.41,1.7,4.26,4.26,0,0,0-.74,4.1,4.46,4.46,0,0,0,8.28.66,4.27,4.27,0,0,0-.09-4.16,5,5,0,0,0-2.11-2.06c-.64-.32-1-.38-1-.43s.1,0,.3,0a3.27,3.27,0,0,1,.82.23,5,5,0,0,1,2.34,2.06,5.17,5.17,0,0,1,.7,2.09,4.52,4.52,0,0,1-.51,2.48,4.92,4.92,0,0,1-9.16-.73,4.57,4.57,0,0,1-.1-2.53,5,5,0,0,1,1-1.95,4.9,4.9,0,0,1,2.64-1.66,3,3,0,0,1,.84-.1A.78.78,0,0,1,154,245.74Z"/><polygon class="cls-6" points="170.83 309.41 80.67 293.1 38.59 302.32 132.77 319.28 170.83 309.41"/><g class="cls-12"><polygon points="170.83 309.41 80.67 293.1 38.59 302.32 132.77 319.28 170.83 309.41"/></g><path class="cls-10" d="M113.18,348.73c1.22-16.62,5.78-58.83,9.2-75.14,1-4.88,2.2-9.87,5-14s7.74-7.15,12.67-6.39c4.4.68,7.93,4.25,9.72,8.33a29.61,29.61,0,0,1,2.26,13.07c-.84,20.16-2.59,42.74-2.57,61.43"/><path class="cls-4" d="M143.72,309.15a34.73,34.73,0,0,1-3.35,1.06,67,67,0,0,0-15.33,7,33.2,33.2,0,0,1-3,1.82,3.69,3.69,0,0,1,.71-.63c.48-.38,1.19-.89,2.09-1.5a54.44,54.44,0,0,1,7.43-4.12,52.14,52.14,0,0,1,8-2.87c1-.28,1.91-.48,2.51-.59A3.59,3.59,0,0,1,143.72,309.15Z"/><path class="cls-4" d="M145.22,290c0,.08-1.36.38-3.52,1a47.8,47.8,0,0,0-15.53,8.16c-1.77,1.4-2.8,2.36-2.86,2.3a4.27,4.27,0,0,1,.65-.75c.44-.46,1.11-1.09,2-1.83a40.4,40.4,0,0,1,7.37-5,40,40,0,0,1,8.29-3.25,25.75,25.75,0,0,1,2.63-.59A3.2,3.2,0,0,1,145.22,290Z"/><path class="cls-4" d="M143.19,274.53c0,.09-1.07.14-2.76.45a24.19,24.19,0,0,0-6.33,2.11,24.47,24.47,0,0,0-5.5,3.78c-1.26,1.16-1.95,2-2,1.93s.12-.25.41-.64a14.35,14.35,0,0,1,1.36-1.56,20.88,20.88,0,0,1,5.52-4,21.09,21.09,0,0,1,6.5-2,14.84,14.84,0,0,1,2.06-.14C142.92,274.47,143.19,274.49,143.19,274.53Z"/><path class="cls-9" d="M132,322.61a.3.3,0,0,0,0,.09v57.7c0,2.52-2,5.14-5.79,7.12s-9.2,3.33-16,3.34h-.09c-13.65,0-21.81-5.39-21.81-10.46V322.7a.3.3,0,0,0,0-.09s0-.07,0-.11c0-5.64,4.18-11.53,8.35-17.35,2.8-3.88,3.47-9.48,3.6-12.76,0-.4,0-.75,0-1.07h-.37a3,3,0,0,1-3.26-2.79v-2.44a3,3,0,0,1,3.26-2.81h20.5a3.29,3.29,0,0,1,3,1.71,2.57,2.57,0,0,1,.25,1.1v2.44a3,3,0,0,1-3.25,2.79H120c0,.32,0,.67,0,1.07.13,3.28.8,8.88,3.6,12.76C127.84,311,132,316.86,132,322.5,132,322.54,132,322.59,132,322.61Z"/><path class="cls-4" d="M132,322.61a4.35,4.35,0,0,0,0-.59,12.93,12.93,0,0,0-.21-1.72,22.52,22.52,0,0,0-2.39-6.26,84.45,84.45,0,0,0-5.9-9,18.41,18.41,0,0,1-2.68-6.21,33.44,33.44,0,0,1-.92-7.56v-.17H120a3.76,3.76,0,0,0,2.18-.5,2.59,2.59,0,0,0,1.25-1.81c.05-.77,0-1.64,0-2.47a2.46,2.46,0,0,0-.89-2.13,3.4,3.4,0,0,0-2.32-.76H112l-11.81,0a3.37,3.37,0,0,0-2.65.94,2.44,2.44,0,0,0-.65,1.25,12.93,12.93,0,0,0,0,1.54c0,.51,0,1.08,0,1.56a2.5,2.5,0,0,0,.62,1.3,3.4,3.4,0,0,0,2.77,1h.24v.24a34.89,34.89,0,0,1-.77,7A19.25,19.25,0,0,1,97,305.05c-1.41,2-2.86,4-4.19,6.12a32.49,32.49,0,0,0-3.41,6.73,16.26,16.26,0,0,0-.81,3.72c-.07,1.25,0,2.59,0,3.89v52.66a17.49,17.49,0,0,0,.15,3.35,6.5,6.5,0,0,0,1.58,2.82A15.53,15.53,0,0,0,95.67,388a30.05,30.05,0,0,0,6.21,1.84,41.08,41.08,0,0,0,6.3.72,43.12,43.12,0,0,0,12.15-1.11,26.68,26.68,0,0,0,5.48-2,14.08,14.08,0,0,0,4.46-3.35,7,7,0,0,0,1.31-2.34,8.62,8.62,0,0,0,.22-2.65c0-1.81,0-3.58,0-5.32,0-3.47,0-6.81,0-10,0-12.73.07-23,.09-30.16s.08-11.06.08-11.06a2.59,2.59,0,0,1,0,.73c0,.5,0,1.21,0,2.13,0,1.89,0,4.65.05,8.2,0,7.14,0,17.43.08,30.16,0,3.18,0,6.52,0,10,0,1.74,0,3.51,0,5.32,0,.45,0,.91,0,1.36a5.19,5.19,0,0,1-.22,1.41,7.28,7.28,0,0,1-1.39,2.49,14.18,14.18,0,0,1-4.59,3.47,27,27,0,0,1-5.57,2,44.08,44.08,0,0,1-12.28,1.14,42.23,42.23,0,0,1-6.38-.71,31.16,31.16,0,0,1-6.3-1.88,15.78,15.78,0,0,1-5.57-3.79,6.94,6.94,0,0,1-1.69-3,17.7,17.7,0,0,1-.17-3.47c0-9.16,0-18.65,0-28.36V333.47c0-2.67,0-5.33,0-8,0-1.32,0-2.6,0-3.93a16,16,0,0,1,.84-3.84,33.77,33.77,0,0,1,3.46-6.84c1.35-2.13,2.82-4.14,4.22-6.13a18.66,18.66,0,0,0,2.67-6.56,34.47,34.47,0,0,0,.77-6.89l.23.24a3.88,3.88,0,0,1-3.11-1.15,2.87,2.87,0,0,1-.73-1.55c0-.59,0-1.08,0-1.62a12.65,12.65,0,0,1,0-1.61,2.88,2.88,0,0,1,.76-1.49,3.88,3.88,0,0,1,3-1.08l11.81,0h8.25a3.75,3.75,0,0,1,2.56.86,2.88,2.88,0,0,1,1,2.42c0,.86,0,1.65,0,2.52a2.9,2.9,0,0,1-1.42,2.06,4.09,4.09,0,0,1-2.36.54l.17-.17c.08,5.28,1.1,10.16,3.48,13.62a82.75,82.75,0,0,1,5.85,9,21.6,21.6,0,0,1,2.31,6.33A11.9,11.9,0,0,1,132,322,1.67,1.67,0,0,1,132,322.61Z"/><path class="cls-4" d="M118.87,291.18a78.66,78.66,0,0,1-9.13.26,78.66,78.66,0,0,1-9.13-.26,81.43,81.43,0,0,1,9.13-.26A81.43,81.43,0,0,1,118.87,291.18Z"/><path class="cls-6" d="M130.17,330.32c-1.85-1.2-4.28-.67-6.26.27s-3.85,2.25-6,2.59c-2.53.41-5.08-.6-7.33-1.87s-4.37-2.84-6.8-3.71a13.24,13.24,0,0,0-13.64,3.22v49.54s2.73,8.45,21.89,7.12,17.65-9.78,17.65-9.78Z"/><path class="cls-10" d="M79.41,296.6a14,14,0,0,0-11.84-16,1.42,1.42,0,0,0-1,.11,1.47,1.47,0,0,0-.38,1.36,17,17,0,0,0,13.2,15"/><path class="cls-6" d="M59.73,322.51c3.55,7.3,8.63,12.22,14.94,12.46,1.26,0,2.21-.79,3.42-.86a8.31,8.31,0,0,1,2,.76,2.79,2.79,0,0,0,1,.24c6.51-.35,12.06-4.93,15.81-12.6,5.21-10.73,3.6-22.26-3.59-25.77a17.71,17.71,0,0,0-2.95-1.15,12.05,12.05,0,0,0-3.57-.42A27.09,27.09,0,0,0,78.69,297l-.35.13c-5.84-2.58-10.51-2.6-15-.41C56.12,300.25,54.52,311.78,59.73,322.51Z"/><path class="cls-9" d="M59.86,311.64a5.36,5.36,0,0,1-.61-2.16,11.6,11.6,0,0,1,3.65-9.87,5.43,5.43,0,0,1,1.86-1.25c.06.08-.66.54-1.6,1.51a12.79,12.79,0,0,0-2.78,4.42,13,13,0,0,0-.76,5.16C59.71,310.79,60,311.61,59.86,311.64Z"/><path class="cls-9" d="M61.18,316.74c-.14,0-.38-.47-.53-1.13s-.16-1.21,0-1.24.38.47.53,1.13S61.32,316.71,61.18,316.74Z"/><path class="cls-4" d="M94.26,279c0,.09-1.34.61-3.37,1.83a26.34,26.34,0,0,0-3.36,2.4A29.46,29.46,0,0,0,84,286.86a29.11,29.11,0,0,0-2.82,4.2,25.53,25.53,0,0,0-1.69,3.77c-.79,2.22-1,3.68-1.12,3.66a3.63,3.63,0,0,1,.1-1,11.37,11.37,0,0,1,.24-1.19c.12-.46.23-1,.43-1.56a24.61,24.61,0,0,1,1.61-3.88,25.24,25.24,0,0,1,6.49-7.93,23.48,23.48,0,0,1,3.49-2.35c.51-.31,1-.52,1.44-.73a10.66,10.66,0,0,1,1.12-.47A4.39,4.39,0,0,1,94.26,279Z"/><path class="cls-6" d="M38.59,302.33,27.25,445.25l105.61,25.53s36.83-12.49,37.33-13.34.64-148,.64-148l-38.06,9.87Z"/><g class="cls-13"><path d="M38.59,302.33,27.25,445.25l105.61,25.53s36.83-12.49,37.33-13.34.64-148,.64-148l-38.06,9.87Z"/></g><path class="cls-11" d="M204.21,135.85l-5.88,83.41a26,26,0,0,1-26,24.17h0a26,26,0,0,1-25.95-27.7c.52-7.94,1-14.45,1-14.45S127.23,198.14,127,178c-.14-11.66,1.87-38.12,3.6-58.39A26.47,26.47,0,0,1,157,95.33h12.19A37.37,37.37,0,0,1,204.21,135.85Z"/><path class="cls-14" d="M147.43,201.28s12.72.75,26.28-7.77c0,0-6.5,14.69-26.64,12.87Z"/><path class="cls-4" d="M134.37,140.38c.35.38,2.54-1.24,5.64-1.23s5.38,1.56,5.71,1.18c.17-.17-.2-.84-1.19-1.57a7.94,7.94,0,0,0-4.57-1.41,7.64,7.64,0,0,0-4.49,1.45C134.51,139.54,134.19,140.22,134.37,140.38Z"/><path class="cls-4" d="M168,144a2.88,2.88,0,0,0,2.78,2.91,2.76,2.76,0,0,0,3-2.6,2.88,2.88,0,0,0-2.78-2.91A2.74,2.74,0,0,0,168,144Z"/><path class="cls-4" d="M137.16,144a2.9,2.9,0,0,0,2.78,2.91,2.77,2.77,0,0,0,3-2.6,2.88,2.88,0,0,0-2.78-2.91A2.76,2.76,0,0,0,137.16,144Z"/><path class="cls-4" d="M164.55,140.38c.36.38,2.55-1.24,5.65-1.23s5.37,1.56,5.71,1.18c.17-.17-.19-.84-1.19-1.57a8,8,0,0,0-4.57-1.41,7.7,7.7,0,0,0-4.5,1.45C164.7,139.54,164.38,140.22,164.55,140.38Z"/><path class="cls-4" d="M153.29,163.39c0-.17-1.91-.51-5-.9-.79-.09-1.54-.24-1.67-.79a3.94,3.94,0,0,1,.53-2.34l2.34-6c3.25-8.59,5.61-15.65,5.26-15.78s-3.26,6.73-6.52,15.32L146,158.93a4.55,4.55,0,0,0-.41,3.11,2,2,0,0,0,1.3,1.16,5.45,5.45,0,0,0,1.34.19C151.33,163.56,153.28,163.57,153.29,163.39Z"/><path class="cls-4" d="M162.42,165.54c-.5,0-.51,3.34-3.39,5.73s-6.47,2-6.49,2.49c0,.21.8.65,2.31.7a8.39,8.39,0,0,0,5.42-1.89,7.3,7.3,0,0,0,2.63-4.81C163,166.36,162.65,165.52,162.42,165.54Z"/><path class="cls-4" d="M163.75,130.3c.31.84,3.41.44,7.05.88s6.58,1.43,7.06.68c.22-.37-.29-1.16-1.48-2a12.34,12.34,0,0,0-10.75-1.18C164.29,129.24,163.62,129.9,163.75,130.3Z"/><path class="cls-4" d="M134.8,131.5c.54.71,2.68,0,5.25-.06s4.75.47,5.25-.26c.22-.36-.12-1.07-1.08-1.73a7.23,7.23,0,0,0-4.27-1.16,7.34,7.34,0,0,0-4.19,1.42C134.86,130.43,134.56,131.16,134.8,131.5Z"/><path class="cls-11" d="M197.41,151c.34-.15,13.87-4.1,13.43,9.7s-14.21,10.51-14.22,10.12S197.41,151,197.41,151Z"/><path class="cls-14" d="M201,165.72c.06,0,.24.18.64.38a2.4,2.4,0,0,0,1.79.09c1.48-.49,2.78-2.76,2.93-5.25a7.91,7.91,0,0,0-.57-3.46,2.77,2.77,0,0,0-1.75-1.91,1.23,1.23,0,0,0-1.44.62c-.19.38-.11.66-.19.68s-.29-.24-.16-.81a1.6,1.6,0,0,1,.57-.85,1.83,1.83,0,0,1,1.34-.31,3.4,3.4,0,0,1,2.45,2.22,8.28,8.28,0,0,1,.71,3.88c-.18,2.78-1.69,5.33-3.7,5.85a2.59,2.59,0,0,1-2.19-.44C201,166.06,201,165.74,201,165.72Z"/><path class="cls-4" d="M205.09,150.53c-2.11-.51-5.75,1.44-6.65,3.41s-1.09,4.2-2,6.17-2.92,3.76-5,3.26a4.23,4.23,0,0,1-2.88-3.15,11.68,11.68,0,0,1,0-4.45c.81-6.45,2.17-12.84,2.43-19.33s-.67-13.24-4.08-18.77-9.67-9.6-16.15-9.08c-4.29.35-8.22,2.59-12.48,3.18a16.85,16.85,0,0,1-14-4.67,32,32,0,0,0-2.62-1.89c0-.33.32-3.21,1.45-4.26,8.46-7.82,23.69-10,34.86-7.2s21.64,10.7,26.44,21.17,3.38,25,.74,35.61"/><path class="cls-4" d="M128.37,115.92c1.81,4.19,6.42,6.63,11,7.09s9.08-.72,13.48-2,16.18-3.2,20.74-3.06c.69,0,1.51,0,1.87-.57.48-.77-.29-1.7-1-2.26-6-4.71-20.57-7.6-28.2-7.92s-15.66,3-19.8,9.39"/><path class="cls-6" d="M130.35,116.44s53-17,75.88,28.79c0,0,3.43-11.47,3.43-17.62,0-4.1-2.46-28.56-27.62-36.25C182,91.36,144.14,76.9,130.35,116.44Z"/><g class="cls-13"><path d="M130.35,116.44a24.63,24.63,0,0,1,16.84-7.65c15.63-.69,44.87,8.1,59,36.44,0,0,3.43-11.47,3.43-17.62,0-4.1-2.46-28.56-27.62-36.25C182,91.36,144.14,76.9,130.35,116.44Z"/></g><path class="cls-6" d="M204,139.86a99.73,99.73,0,0,0-30.86-29.55C161,102.7,140.85,95.18,127,91.49c-4.17-1.1-8.51-2.07-12.76-1.34s-8.4,3.57-9.46,7.75c-1.32,5.23,8,13.3,12.33,16.47a141.36,141.36,0,0,0,13.26,7.83s-.12-9.7,15.41-11.7C166.88,107.78,204,139.86,204,139.86Z"/><path class="cls-9" d="M160.58,100.28s-7.63-4.22-15.3-5.2a19.73,19.73,0,0,1,4.16-2.5,39.57,39.57,0,0,1,11.92,4Z"/><path class="cls-6" d="M227.12,237.87s-14.48,16.54-12.88,39.58c.22,3.19.38,7.64.77,10.82,2.45,19.76,6.22,38.1,6.22,38.1h1.38L273.1,313.9s-7.61-43.83-9.35-49.65c-5.6-18.63-24.79-28.88-24.79-28.88Z"/><path class="cls-4" d="M170.19,457.44s0-.25,0-.75,0-1.23,0-2.19c0-1.94,0-4.78,0-8.45,0-7.37,0-18,0-31.32.1-26.59.23-63.59.37-105.32l.33.25-19.21,5-18.86,4.89.19-.25c.26,20.92.19,40.66.09,58.5s-.2,33.76-.28,47.09-.05,24,0,31.4c0,3.68,0,6.53,0,8.48V467c0,.49,0,.74,0,.74s0-.25,0-.74,0-1.24-.05-2.2c0-1.95-.07-4.8-.12-8.48-.1-7.37-.15-18.08-.15-31.4s.11-29.26.17-47.1.12-37.57-.14-58.48v-.21l.19-.05,18.86-4.89,19.21-5,.32-.09v.34c-.21,41.73-.4,78.74-.54,105.32-.09,13.28-.16,23.95-.22,31.32,0,3.67-.06,6.51-.08,8.45,0,1,0,1.69,0,2.2S170.19,457.44,170.19,457.44Z"/><path class="cls-6" d="M146.81,208.11s-2,19.21,4.47,22.2c7.29,3.36,14.55.07,19-2.78,11.91-7.6,29.62-28.71,29.62-28.71l12,15.58s-30.22,36.32-36.29,36.08c-4-.15-10.15-4-14-6.71a26.29,26.29,0,0,1-5.57-5.27l-5.23-6.65c-6.52,3.22-11.8,7.35-15.46,12.64,0,0-1.74-13.45,1.39-19.56s9.37-16.62,9.37-16.62Z"/><path class="cls-4" d="M136.36,225.46l-.12.33-.39.94a21.76,21.76,0,0,0-.9,3.81A59.84,59.84,0,0,0,135,245l-.35-.07a26.51,26.51,0,0,1,6.47-7.38,48.07,48.07,0,0,1,9.58-6.07l.16-.08.13.14c2.1,2.45,4.33,5,6.69,7.59a48.07,48.07,0,0,0,7.88,7.28,19.94,19.94,0,0,0,4.49,2.37,14.71,14.71,0,0,0,2.4.65,9.84,9.84,0,0,0,2.42.09c3.25-.3,6-2.16,8.29-4.12l0,0,20.68-22.06,6-6.33,1.61-1.67.43-.43c.09-.09.15-.14.15-.13a.83.83,0,0,1-.12.16l-.4.46-1.55,1.72L204,223.52,183.46,245.7h0a21.6,21.6,0,0,1-3.85,2.75,11.92,11.92,0,0,1-4.71,1.51,10.9,10.9,0,0,1-2.55-.09,14.07,14.07,0,0,1-2.49-.67,20.14,20.14,0,0,1-4.61-2.43,48,48,0,0,1-8-7.36c-2.36-2.6-4.58-5.16-6.69-7.62l.29.06a48.64,48.64,0,0,0-9.5,6,26.5,26.5,0,0,0-6.42,7.22l-.3.52-.06-.59a58.32,58.32,0,0,1,.16-14.48,20,20,0,0,1,1-3.82c.19-.41.35-.72.45-.92A1.46,1.46,0,0,1,136.36,225.46Z"/><g class="cls-8"><path d="M137.09,241.65a2.57,2.57,0,0,0,.74,2.93,2.44,2.44,0,0,0,2.49-.45,9,9,0,0,0,1.68-2,22.11,22.11,0,0,1,4.27-4.58c1.61-1.3,3.82-2.4,5.67-1.48a6.4,6.4,0,0,1,2.5,3.19c2.51,5.13,5.52,10.35,10.43,13.28s11.22,3.06,16.63,1.15a32.86,32.86,0,0,0,13.72-10.07,97,97,0,0,0,9.49-14.34c2.26-3.91,4.55-7.94,5.26-12.4-.63.35-2.08,2.6-2.71,2.95,0,0-23.3,25.67-25.5,27s-8.23,10.19-25.34-9l-5.66-6.14S140,236.87,137.09,241.65Z"/></g><rect class="cls-5" x="173.17" y="295.01" width="25.93" height="7.83" transform="translate(47.45 -24.76) rotate(8.72)"/><path class="cls-11" d="M268.87,314.87l-40.05,9.67,4.62,37.73-76.6,57.53c-3.06.43-6.2.92-7.94,1.36-4.19,1-11.58,11.55-13.68,12.6l-14.93,11.52s-1.31,5.24,5.5,4.19,14.41-6.28,15.19-6.28,3.17,1.59,2.05,5c-1,3-5.11,13.32-5.11,13.32l-5.06,9.3s21.91.72,28-7.41c4.16-5.52,17-21.18,17-21.18s90.16-44.35,95.57-53.64C280.8,375.94,268.87,314.87,268.87,314.87Z"/><path class="cls-14" d="M250.42,378.53a24.91,24.91,0,0,0-.18-4.12,14.36,14.36,0,0,0-13.55-12.26,24.82,24.82,0,0,0-4.12.23,3.81,3.81,0,0,1,1.08-.33,12.78,12.78,0,0,1,3.06-.27,14.24,14.24,0,0,1,13.9,12.58,12.65,12.65,0,0,1,0,3.07A3.82,3.82,0,0,1,250.42,378.53Z"/><path class="cls-14" d="M150.87,456.72a12.87,12.87,0,0,1-.53,2.52,26.91,26.91,0,0,1-2.21,5.83,11.69,11.69,0,0,1-4.22,4.61,6.38,6.38,0,0,1-1.78.72c-.44.1-.69.1-.69.07a16.22,16.22,0,0,0,2.27-1.1,12.56,12.56,0,0,0,4-4.55,35.94,35.94,0,0,0,2.32-5.69A12.41,12.41,0,0,1,150.87,456.72Z"/><path class="cls-14" d="M161.49,453.23a10.94,10.94,0,0,1-.78,2.43,47.9,47.9,0,0,1-2.62,5.58,47.28,47.28,0,0,1-3.31,5.2,10.18,10.18,0,0,1-1.65,2,14.94,14.94,0,0,1,1.35-2.17c.85-1.31,2-3.15,3.16-5.24s2.08-4,2.73-5.47A14.2,14.2,0,0,1,161.49,453.23Z"/><path class="cls-4" d="M161.2,387.93a7.13,7.13,0,0,1,.17,1.27c.09.83.16,2,.2,3.5a68.63,68.63,0,0,1-3.3,22.76c-.45,1.4-.86,2.53-1.18,3.29a6.34,6.34,0,0,1-.53,1.17,6.65,6.65,0,0,1,.34-1.24c.26-.78.61-1.92,1-3.33a83.36,83.36,0,0,0,2.45-11.21,85.48,85.48,0,0,0,.84-11.44c0-1.47,0-2.66,0-3.48A5.46,5.46,0,0,1,161.2,387.93Z"/><path class="cls-4" d="M139.52,399.94a24.7,24.7,0,0,1,1.26,3.15c.74,2,1.77,4.66,3,7.61s2.37,5.6,3.21,7.51a25.35,25.35,0,0,1,1.31,3.13,19.74,19.74,0,0,1-1.64-3c-.94-1.88-2.15-4.51-3.37-7.47s-2.18-5.69-2.83-7.69A19,19,0,0,1,139.52,399.94Z"/><path class="cls-4" d="M133.72,425.83a4.23,4.23,0,0,1-.63.18l-1.84.44c-.79.19-1.77.41-2.92.6s-2.44.47-3.9.65-3,.43-4.75.57-3.55.29-5.49.4a112.26,112.26,0,0,1-12.59-.2,114,114,0,0,1-12.49-1.71c-1.89-.41-3.7-.77-5.36-1.23s-3.21-.86-4.61-1.29-2.65-.86-3.76-1.23-2-.73-2.79-1l-1.75-.71a2.43,2.43,0,0,1-.59-.28,4.32,4.32,0,0,1,.63.19l1.78.61c.77.28,1.71.62,2.82,1s2.35.78,3.76,1.15,2.94.84,4.62,1.22,3.46.79,5.35,1.18A121,121,0,0,0,101.64,428a119.29,119.29,0,0,0,12.53.24c1.93-.1,3.76-.17,5.47-.35s3.3-.32,4.74-.5,2.75-.4,3.9-.58,2.13-.35,2.93-.51l1.85-.34A2.92,2.92,0,0,1,133.72,425.83Z"/><path class="cls-4" d="M129.91,408.44a26.42,26.42,0,0,1-4.75-2.29,27.17,27.17,0,0,1-4.5-2.74,26.64,26.64,0,0,1,4.75,2.28A27.05,27.05,0,0,1,129.91,408.44Z"/><path class="cls-4" d="M273.1,313.9a1.26,1.26,0,0,1-.25.08l-.73.2-2.87.73-10.76,2.66-37.2,9-.26.06,0-.27c-1.06-6.87-2.5-14.28-3.88-22-.92-5.15-1.71-10.2-2.24-15.1s-.79-9.67-.85-14.21a77,77,0,0,1,.74-12.86A37.33,37.33,0,0,1,218,251.51a26.73,26.73,0,0,1,5.52-7.43,21.65,21.65,0,0,1,5.77-3.94,19.29,19.29,0,0,1,4.22-1.33l1.14-.14.39,0a1.74,1.74,0,0,1-.38.08l-1.13.2a19.43,19.43,0,0,0-4.15,1.4,22,22,0,0,0-5.66,4,27,27,0,0,0-5.39,7.38,37.41,37.41,0,0,0-3.18,10.63,76.17,76.17,0,0,0-.69,12.79c.07,4.52.34,9.26.87,14.15s1.34,9.93,2.25,15.07c1.39,7.71,2.82,15.13,3.86,22l-.31-.21,37.25-8.85,10.79-2.52,2.89-.65.74-.16A.74.74,0,0,1,273.1,313.9Z"/></g></svg>