<svg enable-background="new 0 0 32 32" height="512" viewBox="0 0 32 32" width="512" xmlns="http://www.w3.org/2000/svg"><g id="Layer_2"><path d="m26 32h-20c-3.314 0-6-2.686-6-6v-20c0-3.314 2.686-6 6-6h20c3.314 0 6 2.686 6 6v20c0 3.314-2.686 6-6 6z" fill="#fff9dd"/></g><g id="bold_1_"><g><path d="m16.833 8h-7c-1.013 0-1.833.82-1.833 1.833v10.333c0 1.014.82 1.834 1.833 1.834h7c.44 0 .84-.153 1.153-.407-.66-.74-1.007-1.687-.987-2.693.007-.36.067-.706.167-1.033-.088.081-.203.133-.333.133h-7c-.276 0-.5-.224-.5-.5s.224-.5.5-.5h7c.258 0 .463.198.49.449.001-.003.002-.006.004-.009.28-.673.753-1.253 1.34-1.68v-5.927c0-1.013-.82-1.833-1.834-1.833zm-4.166 8.333h-2.667v-1.833c0-.273.227-.5.5-.5h1.667c.273 0 .5.227.5.5zm4 0h-2.667v-4.5c0-.273.227-.5.5-.5h1.667c.273 0 .5.227.5.5z" fill="#ffd200"/><g fill="#ffe777"><path d="m17.167 17.867c.101-.092.167-.22.167-.367 0-.018-.008-.033-.01-.051-.065.131-.118.274-.157.418z"/><path d="m22.36 22.78v.48c0 .407-.333.74-.747.74h-1.227c-.36 0-.747-.267-.747-.86v-.36z"/><path d="m24 18.98c0 .9-.4 1.74-1.1 2.307-.28.227-.46.52-.52.827h-2.753c-.047-.3-.213-.58-.487-.793-.74-.58-1.16-1.453-1.14-2.4.033-1.587 1.36-2.9 2.953-2.92.807-.02 1.58.293 2.16.867.574.559.887 1.312.887 2.112z"/></g></g></g></svg>