<svg id="bold" enable-background="new 0 0 32 32" height="512" viewBox="0 0 32 32" width="512" xmlns="http://www.w3.org/2000/svg"><path d="m26 32h-20c-3.314 0-6-2.686-6-6v-20c0-3.314 2.686-6 6-6h20c3.314 0 6 2.686 6 6v20c0 3.314-2.686 6-6 6z" fill="#e3f8fa"/><path d="m12.832 18.333c-.568 0-1.081-.315-1.338-.822-.257-.51-.207-1.11.131-1.568l3.882-5.277h-5.675c-1.011 0-1.833.822-1.833 1.833v6.333c0 1.011.823 1.833 1.833 1.833h3.351l.521-2.333h-.872z" fill="#26c6da"/><path d="m22.826 12.666h-.161v-.166c0-1.011-.823-1.833-1.833-1.833h-1.856c-.006.056-.01.112-.023.169l-.648 2.831h1.027c.574 0 1.089.319 1.343.833.255.513.198 1.116-.148 1.573l-3.48 4.594h3.785c1.011 0 1.833-.822 1.833-1.833v-.167h.161c.643 0 1.167-.523 1.167-1.167v-3.667c0-.643-.524-1.167-1.167-1.167z" fill="#26c6da"/><path d="m14.534 22c-.071 0-.142-.015-.21-.046-.213-.099-.329-.333-.278-.563l.905-4.058h-2.119c-.188 0-.361-.106-.446-.274s-.068-.37.044-.522l4.659-6.333c.14-.191.395-.258.611-.158.215.099.332.335.279.566l-.929 4.055h2.282c.19 0 .363.107.448.277s.065.373-.049.525l-4.798 6.333c-.098.128-.246.198-.399.198z" fill="#8ce1eb"/></svg>