<svg enable-background="new 0 0 32 32" height="512" viewBox="0 0 32 32" width="512" xmlns="http://www.w3.org/2000/svg"><g id="Layer_2"><path d="m26 32h-20c-3.314 0-6-2.686-6-6v-20c0-3.314 2.686-6 6-6h20c3.314 0 6 2.686 6 6v20c0 3.314-2.686 6-6 6z" fill="#f5e6fe"/></g><g id="bold_1_"><g><path d="m22.167 8h-12.334c-1.011 0-1.833.822-1.833 1.833v9c0 1.011.822 1.833 1.833 1.833h.833v2.834c0 .202.122.384.309.462.062.026.127.038.192.038.13 0 .258-.051.354-.146l3.187-3.187h7.46c1.011 0 1.833-.822 1.833-1.833v-9c-.001-1.012-.823-1.834-1.834-1.834zm-2.834 6.167c0 .202-.122.384-.309.462-.062.026-.127.038-.191.038-.13 0-.258-.051-.354-.146l-.479-.481-1.146 1.146c-.168.169-.432.194-.631.063l-.685-.457-2.046 1.754c-.094.081-.21.12-.326.12-.141 0-.281-.059-.38-.174-.18-.21-.156-.525.054-.705l2.333-2c.171-.146.416-.16.603-.036l.659.439.857-.857-.48-.48c-.143-.143-.186-.358-.109-.545.079-.186.261-.308.464-.308h1.667c.276 0 .5.224.5.5v1.667z" fill="#be63f9"/></g></g></svg>