<?xml version="1.0" encoding="iso-8859-1"?>
<!-- Generator: Adobe Illustrator 18.0.0, SVG Export Plug-In . SVG Version: 6.00 Build 0)  -->
<!DOCTYPE svg PUBLIC "-//W3C//DTD SVG 1.1//EN" "http://www.w3.org/Graphics/SVG/1.1/DTD/svg11.dtd">
<svg version="1.1" id="Capa_1" xmlns="http://www.w3.org/2000/svg" xmlns:xlink="http://www.w3.org/1999/xlink" x="0px" y="0px"
	 viewBox="0 0 58.566 58.566" style="enable-background:new 0 0 58.566 58.566;" xml:space="preserve">
<path fill='#0B10FD' d="M56.704,1.212C55.901,0.407,54.811,0,53.465,0c-2.722,0-6.374,1.744-9.834,4.569l-1.006,4.643
	c-0.614,2.069,0.754,3.393,2.006,4.15c0.473,0.286,0.624,0.901,0.338,1.373c-0.188,0.311-0.519,0.482-0.856,0.482
	c-0.177,0-0.355-0.047-0.517-0.145c-2.585-1.564-3.645-3.883-2.906-6.358c0,0-0.203-1.218-0.495-0.899
	c-0.752,0.379-2.933,1.524-3.961,2.553c-0.302,0.302-0.575,0.622-0.834,0.949V17c-0.004,1.896,0.796,3.448,2.251,4.374
	c0.466,0.297,0.604,0.915,0.307,1.381c-0.19,0.3-0.515,0.463-0.845,0.463c-0.184,0-0.369-0.051-0.536-0.156
	c-2.023-1.288-3.182-3.498-3.177-6.063c0,0-0.089-0.952-0.118-0.715c-2.188,0.27-4.261,1.298-5.915,2.952
	c-0.34,0.34-0.647,0.702-0.933,1.074V26c-0.019,1.891,0.771,3.441,2.222,4.377c0.464,0.3,0.598,0.919,0.299,1.383
	c-0.191,0.297-0.514,0.458-0.842,0.458c-0.186,0-0.373-0.052-0.541-0.159c-2.02-1.303-3.163-3.514-3.138-6.068v-0.957
	c-0.005,0.039-0.015,0.078-0.02,0.117c-2.188,0.27-4.261,1.298-5.915,2.952c-0.311,0.312-0.593,0.642-0.859,0.981V34
	c-0.098,1.772,0.896,3.214,2.954,4.341c0.484,0.266,0.662,0.873,0.396,1.357c-0.182,0.332-0.524,0.52-0.878,0.52
	c-0.162,0-0.327-0.039-0.479-0.123c-3.477-1.904-4.09-4.396-3.991-6.15c0,0-0.071-0.117-0.095,0.073
	c-2.188,0.27-4.262,1.298-5.915,2.952c-0.293,0.293-0.547,0.591-0.783,0.895v4.136c-0.09,1.512,0.87,2.974,2.851,4.406
	c0.447,0.324,0.548,0.949,0.225,1.396c-0.196,0.271-0.502,0.414-0.812,0.414c-0.203,0-0.408-0.062-0.585-0.189
	c-2.572-1.861-3.809-3.909-3.677-6.088l0-0.744C2.631,45.681-2.133,53.221,1.28,56.635c1.245,1.245,3.328,1.932,5.866,1.932
	c0.001,0,0,0,0.001,0c4.08,0,8.395-1.778,11.257-4.642l35-35c2.397-2.397,4.144-5.857,4.789-9.493
	C58.829,5.853,58.273,2.78,56.704,1.212z"/>
<g>
</g>
<g>
</g>
<g>
</g>
<g>
</g>
<g>
</g>
<g>
</g>
<g>
</g>
<g>
</g>
<g>
</g>
<g>
</g>
<g>
</g>
<g>
</g>
<g>
</g>
<g>
</g>
<g>
</g>
</svg>
