<svg height="511pt" viewBox="-23 0 511 511.12588" width="511pt" xmlns="http://www.w3.org/2000/svg"><path fill='#4d04ea' d="m196.117188 498.957031c7.042968 7.730469 17.011718 12.144531 27.472656 12.167969h18.617187c10.460938-.023438 20.429688-4.4375 27.476563-12.167969-15.410156-4.773437-28.507813-15.070312-36.785156-28.914062-8.277344 13.84375-21.375 24.140625-36.78125 28.914062zm0 0"/><path fill='#4d04ea' d="m176.40625 300.605469c-1.773438-16.53125-9.628906-31.816407-22.042969-42.882813-12.640625-9.816406-30.253906-12.683594-52.410156-8.554687-5.144531 16.660156 1.007813 34.742187 15.25 44.808593 4.039063 3.070313 8.519531 5.507813 13.296875 7.230469v-22.808593c0-5.140626 4.167969-9.308594 9.308594-9.308594s9.308594 4.167968 9.308594 9.308594v26.453124c9.273437.15625 18.503906-1.277343 27.289062-4.246093zm0 0"/><path fill='#4d04ea' d="m348.597656 293.976562c14.242188-10.066406 20.394532-28.144531 15.25-44.808593-22.210937-4.15625-39.863281-1.253907-52.507812 8.625-12.390625 11.03125-20.222656 26.28125-21.96875 42.773437 8.800781 2.9375 18.03125 4.363282 27.308594 4.21875v-26.386718c0-5.140626 4.167968-9.308594 9.308593-9.308594s9.308594 4.167968 9.308594 9.308594v22.785156c4.777344-1.707032 9.261719-4.136719 13.300781-7.207032zm0 0"/><path fill='#4d04ea' d="m233.488281 408.582031 35.902344-37.542969-72.558594.449219 35.476563 37.101563c.371094.183594.808594.179687 1.179687-.007813zm0 0"/><path fill='#4d04ea' d="m400.441406 60.402344c-8.40625 13.445312-14.765625 28.066406-18.875 43.382812-7.34375 29.375 21.84375 44.648438 23.085938 45.285156.738281.429688 1.410156.960938 1.996094 1.582032 17.734374 11.09375 32.765624 26.007812 43.992187 43.660156 1.121094-3.761719 2.304687-7.449219 3.542969-11.152344 8.378906-23.160156 12.261718-47.707031 11.441406-72.324218-.046875-40.59375-14.464844-79.859376-40.699219-110.835938-4.785156 21.34375-13.058593 41.75-24.484375 60.402344zm0 0"/><path fill='#4d04ea' d="m384.253906 51.203125c9.445313-15.355469 16.582032-32.019531 21.175782-49.453125-26.679688 19.457031-47.886719 45.464844-61.574219 75.511719-30.003907 70.003906-71.953125 70.808593-73.722657 70.808593h-74.472656c-1.765625 0-43.714844-.804687-73.714844-70.804687-13.691406-30.046875-34.898437-56.058594-61.578124-75.515625 4.59375 17.433594 11.730468 34.097656 21.175781 49.453125 9.25 14.910156 16.242187 31.105469 20.75 48.0625 5.710937 26.035156-6.683594 52.671875-30.277344 65.070313-.207031.148437-.332031.367187-.554687.5-34.910157 20.558593-57.207032 57.226562-59.390626 97.679687l-4.476562 65.296875c-3.429688 63.789062 43.355469 119.234375 106.808594 126.59375-1.660156-5.773438-2.507813-11.746094-2.523438-17.753906 0-5.140625 4.167969-9.308594 9.308594-9.308594 5.144531 0 9.3125 4.167969 9.3125 9.308594 0 25.707031 20.835938 46.546875 46.542969 46.546875s46.546875-20.839844 46.546875-46.546875v-11.730469c-1.753906-.898437-3.351563-2.070313-4.738282-3.46875l-36.886718-38.574219c-2.664063-2.792968-4.316406-6.402344-4.691406-10.25-.101563-.371094-.179688-.753906-.230469-1.140625v-51.625c-8.527344 2.429688-17.347657 3.691407-26.21875 3.75-16.265625.253907-32.140625-5.007812-45.035157-14.929687-22.441406-16.359375-30.445312-46.148438-19.230468-71.554688 1.222656-2.589844 3.574218-4.476562 6.371094-5.105468 30.238281-6.828126 54.796874-3.101563 72.980468 11.09375 28.496094 22.25 29.710938 61.710937 29.75 63.378906 0 .039062-.011718.074218-.011718.113281l.019531.09375v46.21875c.117187 0 .226562-.050781.347656-.050781h73.773437c.121094 0 .230469.046875.351563.050781v-46.21875l.015625-.09375c0-.039063-.011719-.078125-.011719-.117187.035157-1.667969 1.25-41.125 29.738281-63.375 18.183594-14.195313 42.757813-17.921876 72.984376-11.097657 2.796874.632813 5.144531 2.515625 6.367187 5.109375 11.21875 25.40625 3.214844 55.195313-19.226563 71.554688-12.890624 9.921875-28.765624 15.183594-45.035156 14.925781-8.867187-.054687-17.691406-1.316406-26.21875-3.746094v51.625c-.050781.386719-.128906.765625-.230468 1.136719-.375 3.847656-2.027344 7.457031-4.691407 10.253906l-36.886719 38.570313c-1.386718 1.402343-2.984374 2.574219-4.738281 3.472656v11.730469c0 25.707031 20.839844 46.546875 46.546875 46.546875 25.707032 0 46.542969-20.839844 46.542969-46.546875 0-5.140625 4.167969-9.308594 9.3125-9.308594 5.140625 0 9.308594 4.167969 9.308594 9.308594-.015625 5.996094-.863281 11.960937-2.515625 17.726562 63.5-7.34375 110.300781-62.863281 106.792968-126.691406l-4.460937-65.035156c-2.160156-40.792969-24.761719-77.746094-60.09375-98.25-.175781-.101563-.269531-.273438-.433594-.382813-23.265625-12.515625-35.390625-38.957031-29.703125-64.753906 4.507813-16.957031 11.5-33.152344 20.75-48.0625zm0 0"/><path fill='#4d04ea' d="m11.605469 183.167969c1.246093 3.707031 2.429687 7.398437 3.550781 11.167969 11.199219-17.605469 26.183594-32.5 43.859375-43.589844.621094-.65625 1.335937-1.21875 2.125-1.667969 1.277344-.652344 30.429687-15.917969 23.085937-45.285156-4.109374-15.316407-10.46875-29.933594-18.875-43.378907-11.425781-18.65625-19.695312-39.0625-24.480468-60.4062495-26.230469 30.9765625-40.648438 70.2382815-40.699219 110.8281255-.824219 24.617187 3.058594 49.167968 11.433594 72.332031zm0 0"/></svg>
