<?xml version="1.0" encoding="iso-8859-1"?>
<!-- Generator: Adobe Illustrator 19.0.0, SVG Export Plug-In . SVG Version: 6.00 Build 0)  -->
<svg version="1.1" id="Capa_1" xmlns="http://www.w3.org/2000/svg" xmlns:xlink="http://www.w3.org/1999/xlink" x="0px" y="0px"
	 viewBox="0 0 58.726 58.726" style="enable-background:new 0 0 58.726 58.726;" xml:space="preserve">
<g>
	<path fill='#4d04ea' d="M8.726,0.942l-5.19,0.424c-0.519,0.043-0.917,0.476-0.81,0.996v18.085l6-0.502V0.942z"/>
	<circle fill='#4d04ea' cx="51.618" cy="44.362" r="2"/>
	<circle fill='#4d04ea' cx="35.499" cy="44.362" r="2"/>
	<path fill='#4d04ea' d="M58.644,46.093c0.175-1.121,0.08-3.841-0.367-5.075c-0.957-2.646-3.574-4.425-6.609-4.425c-0.001,0-0.001,0-0.002,0
		c-0.477,0.006-1.027,0.107-1.683,0.311c-1.07,0.332-2.158,0.571-3.257,0.728v-3.27h-0.002v-18h0.002v-9
		c0-0.477-0.444-0.887-0.911-0.98l-30-6c-0.041-0.008-0.081,0.006-0.122,0.003C15.64,0.38,15.589,0.36,15.535,0.365l-4.81,0.41
		v19.002l5.893-0.407V2.581l28.107,5.6v14.995L16.618,19.37l-0.005,0.312v1.692l-5.888,0.41v30.578h-2V21.95l-6,0.502v30.672
		L0,58.362h17h2.236h13.742h16.258l-2.618-5.236v-1.764h1.343l1.832,3.907c0.583,1.825,2.313,3.093,4.233,3.093
		c2.451,0,4.445-1.994,4.443-4.514l-0.285-4.149c-0.087-1.264-0.039-1.436,0.09-1.895C58.37,47.462,58.502,46.994,58.644,46.093z
		 M18.236,56.362l-1-2h11.319c0.012,0.125,0.037,0.245,0.06,0.366c0.007,0.039,0.011,0.079,0.019,0.117
		c0.054,0.251,0.132,0.493,0.226,0.726c0.02,0.05,0.042,0.099,0.064,0.148c0.099,0.223,0.21,0.44,0.344,0.641H18.236z
		 M28.727,41.023c-0.446,1.237-0.54,3.954-0.364,5.069c0.142,0.901,0.272,1.37,0.368,1.712c0.129,0.459,0.177,0.63,0.09,1.894
		l-0.183,2.664h-12.02v-30.86l28.107,3.691v12.62c-2.351,0.105-4.75-0.177-7.176-0.902c-0.668-0.2-1.409-0.307-2.203-0.317
		c-0.004,0-0.097-0.001-0.102-0.001C32.303,36.592,29.684,38.372,28.727,41.023z M31.499,44.362c0-2.206,1.794-4,4-4s4,1.794,4,4
		s-1.794,4-4,4S31.499,46.568,31.499,44.362z M44.618,51.362v1h-6.029c0.106-0.224,0.197-0.414,0.275-0.578
		c0.001-0.003,0.003-0.007,0.005-0.01c0.078-0.164,0.144-0.3,0.198-0.412H44.618z M36.694,56.362
		c0.057-0.087,0.103-0.183,0.154-0.274c0.037-0.067,0.078-0.13,0.112-0.199c0.097-0.198,0.184-0.403,0.253-0.618l0.429-0.908H45l1,2
		H36.694z M46.618,43.362c0,0.553-0.447,1-1,1h-4c-0.553,0-1-0.447-1-1v-1c0-0.553,0.447-1,1-1s1,0.447,1,1h2c0-0.553,0.447-1,1-1
		s1,0.447,1,1V43.362z M51.618,48.362c-2.206,0-4-1.794-4-4s1.794-4,4-4s4,1.794,4,4S53.824,48.362,51.618,48.362z"/>
</g>
<g>
</g>
<g>
</g>
<g>
</g>
<g>
</g>
<g>
</g>
<g>
</g>
<g>
</g>
<g>
</g>
<g>
</g>
<g>
</g>
<g>
</g>
<g>
</g>
<g>
</g>
<g>
</g>
<g>
</g>
</svg>
