<?xml version="1.0" encoding="iso-8859-1"?>
<!-- Generator: Adobe Illustrator 19.0.0, SVG Export Plug-In . SVG Version: 6.00 Build 0)  -->
<svg version="1.1" id="Layer_1" xmlns="http://www.w3.org/2000/svg" xmlns:xlink="http://www.w3.org/1999/xlink" x="0px" y="0px"
	 viewBox="0 0 300.3 300.3" style="enable-background:new 0 0 300.3 300.3;" xml:space="preserve">
<g>
	<g>
		<g>
			<path fill='#6628ea' d="M250.002,81.901H150.15H50.297c-5.908,9.198-9.347,20.126-9.347,31.849v109.2c0,25.564,16.304,47.387,39.058,55.631
				c-1.663,2.262-2.658,5.046-2.658,8.069c0,7.538,6.112,13.65,13.65,13.65h118.3c7.538,0,13.65-6.112,13.65-13.65
				c0-3.023-0.995-5.807-2.658-8.069c22.755-8.244,39.058-30.067,39.058-55.631v-109.2
				C259.35,102.027,255.911,91.099,250.002,81.901z"/>
			<path fill='#6628ea' d="M86.45,26.507V54.6h50.05v-4.55c0-7.538,6.112-13.65,13.65-13.65s13.65,6.112,13.65,13.65v4.55h50.05V26.507
				c5.298-1.876,9.1-6.916,9.1-12.857C222.95,6.112,216.838,0,209.3,0h-9.1H100.1H91c-7.538,0-13.65,6.112-13.65,13.65
				C77.35,19.59,81.152,24.631,86.45,26.507z"/>
		</g>
	</g>
</g>
<g>
</g>
<g>
</g>
<g>
</g>
<g>
</g>
<g>
</g>
<g>
</g>
<g>
</g>
<g>
</g>
<g>
</g>
<g>
</g>
<g>
</g>
<g>
</g>
<g>
</g>
<g>
</g>
<g>
</g>
</svg>
