<?xml version="1.0" encoding="iso-8859-1"?>
<!-- Generator: Adobe Illustrator 18.0.0, SVG Export Plug-In . SVG Version: 6.00 Build 0)  -->
<!DOCTYPE svg PUBLIC "-//W3C//DTD SVG 1.1//EN" "http://www.w3.org/Graphics/SVG/1.1/DTD/svg11.dtd">
<svg version="1.1" id="Capa_1" xmlns="http://www.w3.org/2000/svg" xmlns:xlink="http://www.w3.org/1999/xlink" x="0px" y="0px"
	 viewBox="0 0 59.104 59.104" style="enable-background:new 0 0 59.104 59.104;" xml:space="preserve">
<g>
	<path fill='#0B10FD' d="M46.552,9.5c0-4.136-3.364-7.5-7.5-7.5c-0.897,0-1.787,0.164-2.646,0.488c-0.333,0.126-0.574,0.419-0.633,0.771
		c-0.059,0.351,0.073,0.706,0.347,0.934c2.181,1.813,3.432,4.477,3.432,7.308c0,0.35-0.022,0.713-0.064,1.077
		c-0.001,0.005-0.003,0.01-0.004,0.015c-0.53,4.626-4.328,8.145-8.934,8.385C30.538,16.025,26.507,12,21.552,12
		c-4.963,0-9,4.037-9,9s4.037,9,9,9c3.33,0,6.236-1.822,7.793-4.517C31.008,27.072,33.227,28,35.552,28c4.963,0,9-4.037,9-9
		c0-1.29-0.282-2.533-0.793-3.671C45.522,13.914,46.552,11.797,46.552,9.5z"/>
	<path fill='#0B10FD' d="M32.294,18.653c2.761-0.865,4.859-3.279,5.204-6.288c0.001-0.007,0.004-0.013,0.005-0.019
		c0.032-0.286,0.05-0.571,0.05-0.845c0-2.234-0.988-4.337-2.71-5.77c-0.817-0.681-1.216-1.754-1.041-2.802
		c0.123-0.738,0.53-1.385,1.102-1.841C33.426,0.397,31.786,0,30.052,0c-5.974,0-10.894,4.58-11.445,10.412
		C19.546,10.151,20.531,10,21.552,10C26.811,10,31.214,13.712,32.294,18.653z"/>
	<path fill='#0B10FD' d="M29.747,28.312C27.731,30.569,24.809,32,21.552,32c-0.187,0-0.369-0.019-0.553-0.028l8.269,26.43
		c0.129,0.414,0.512,0.697,0.945,0.701c0.003,0,0.006,0,0.009,0c0.431,0,0.813-0.275,0.949-0.685l9.951-29.95
		C39.486,29.435,37.586,30,35.552,30C33.477,30,31.471,29.392,29.747,28.312z M32.937,34.201l-1.414,1.414l-1.414-1.414l1.414-1.414
		L32.937,34.201z M31.523,38.444l-1.414,1.414l-1.414-1.414l1.414-1.414L31.523,38.444z M27.28,34.201l1.414,1.414l-1.414,1.414
		l-1.414-1.414L27.28,34.201z M24.451,39.858l1.414-1.414l1.414,1.414l-1.414,1.414L24.451,39.858z M28.694,41.272l1.414,1.414
		L28.694,44.1l-1.414-1.414L28.694,41.272z M30.108,51.172l-1.414-1.414l1.414-1.414l1.414,1.414L30.108,51.172z M31.523,46.929
		l-1.414-1.414l1.414-1.414l1.414,1.414L31.523,46.929z M32.937,42.686l-1.414-1.414l1.414-1.414l1.414,1.414L32.937,42.686z
		 M34.351,38.444l-1.414-1.414l1.414-1.414l1.414,1.414L34.351,38.444z M37.18,32.787l-1.414,1.414l-1.414-1.414l1.414-1.414
		L37.18,32.787z"/>
</g>
<g>
</g>
<g>
</g>
<g>
</g>
<g>
</g>
<g>
</g>
<g>
</g>
<g>
</g>
<g>
</g>
<g>
</g>
<g>
</g>
<g>
</g>
<g>
</g>
<g>
</g>
<g>
</g>
<g>
</g>
</svg>
