<?xml version="1.0" encoding="iso-8859-1"?>
<!-- Generator: Adobe Illustrator 18.1.1, SVG Export Plug-In . SVG Version: 6.00 Build 0)  -->
<svg version="1.1" id="Capa_1" xmlns="http://www.w3.org/2000/svg" xmlns:xlink="http://www.w3.org/1999/xlink" x="0px" y="0px"
	 viewBox="0 0 36.771 36.771" style="enable-background:new 0 0 36.771 36.771;" xml:space="preserve">
<g>
	<g>
		<path fill='#6628ea'  d="M19.647,10.884V7.837V7.725h-0.011c-0.019-0.344-0.117-0.678-0.287-1
			c-0.185-0.351-0.452-0.686-0.798-1c-1.633-1.484-4.924-2.5-8.727-2.5s-7.094,1.016-8.727,2.5c-0.346,0.314-0.612,0.649-0.798,1
			c-0.17,0.322-0.27,0.656-0.287,1H0v0.112V20.6c-0.001,3.161,4.397,5.725,9.823,5.725c2.398,0,4.594-0.502,6.299-1.334v-9.929
			V14.95l0.012-1h0.196c0.057-0.158,0.126-0.313,0.208-0.467c0.24-0.454,0.58-0.882,1.009-1.273
			C18.103,11.704,18.824,11.264,19.647,10.884z M9.822,10.448c-5.135,0-7.825-1.941-7.825-2.612
			c0.002-0.033,0.014-0.072,0.027-0.112c0.087-0.255,0.447-0.622,1.082-1c0.6-0.357,1.445-0.72,2.522-1
			c1.14-0.296,2.538-0.5,4.195-0.5s3.056,0.204,4.195,0.5c1.077,0.28,1.922,0.643,2.522,1c0.634,0.377,0.995,0.745,1.082,1
			c0.013,0.04,0.025,0.078,0.025,0.112C17.647,8.507,14.957,10.448,9.822,10.448z"/>
		<path fill='#6628ea'  d="M36.76,14.949c-0.018-0.344-0.118-0.678-0.288-1c-0.185-0.351-0.452-0.686-0.798-1
			c-1.633-1.484-4.924-2.5-8.727-2.5c-1.957,0-3.771,0.272-5.3,0.735c-0.348,0.105-0.684,0.219-1,0.344
			c-0.356,0.141-0.688,0.294-1,0.457c-0.556,0.291-1.042,0.613-1.428,0.964c-0.346,0.314-0.612,0.649-0.798,1
			c-0.17,0.322-0.27,0.656-0.288,1h-0.012v0.112v9.36v1.173v1.114v1.114c0,3.162,4.399,5.725,9.826,5.725
			c5.426,0,9.824-2.562,9.824-5.725V15.061v-0.112H36.76z M26.948,17.673c-2.238,0-4.012-0.369-5.3-0.84
			c-0.374-0.137-0.708-0.282-1-0.43c-0.42-0.213-0.752-0.429-1-0.632c-0.347-0.284-0.525-0.538-0.525-0.71
			c0-0.034,0.012-0.073,0.025-0.112c0.054-0.16,0.23-0.367,0.5-0.59c0.16-0.133,0.347-0.27,0.582-0.41
			c0.126-0.075,0.271-0.15,0.418-0.225c0.291-0.147,0.628-0.29,1-0.426c0.339-0.124,0.699-0.243,1.104-0.349
			c1.14-0.296,2.537-0.5,4.195-0.5c1.656,0,3.055,0.204,4.194,0.5c1.077,0.28,1.922,0.643,2.522,1c0.635,0.378,0.994,0.745,1.082,1
			c0.013,0.04,0.024,0.078,0.024,0.112C34.772,15.732,32.082,17.673,26.948,17.673z"/>
		<path fill='#6628ea' d="M28.368,13.949c-0.488-0.087-0.984-0.141-1.42-0.141c-0.385,0-0.818,0.047-1.248,0.116
			c-0.25-0.073-0.555-0.116-0.886-0.116c-0.848,0-1.534,0.28-1.534,0.626c0,0.109,0.074,0.21,0.194,0.3
			c-0.069,0.07-0.126,0.141-0.151,0.215c-0.014,0.038-0.043,0.074-0.043,0.112c0,0.692,2.194,1.253,3.668,1.253
			c0.362,0,0.77-0.035,1.176-0.096c0.227,0.057,0.5,0.096,0.81,0.096c0.735,0,1.333-0.19,1.333-0.425
			c0-0.085-0.098-0.16-0.232-0.226c0.348-0.179,0.582-0.382,0.582-0.602c0-0.038-0.029-0.075-0.043-0.112
			C30.42,14.51,29.434,14.14,28.368,13.949z"/>
		<path fill='#6628ea' d="M13.448,7.724c-0.083-0.24-0.41-0.46-0.876-0.642c0.098-0.107,0.164-0.225,0.178-0.358
			c0.002-0.018,0.016-0.034,0.016-0.053c0-0.437-0.522-0.792-1.167-0.792c-0.614,0-1.104,0.325-1.15,0.734
			c-0.217-0.019-0.428-0.031-0.626-0.031c-0.436,0-0.934,0.054-1.421,0.141C8.227,6.754,8.056,6.789,7.888,6.829
			c-0.097-0.042-0.195-0.081-0.31-0.106C7.44,6.693,7.295,6.67,7.14,6.67s-0.3,0.023-0.438,0.053
			C6.206,6.831,5.848,7.108,5.848,7.441c0,0.1,0.037,0.194,0.095,0.282c0.062,0.093,0.151,0.174,0.262,0.245
			C6.46,8.597,8.445,9.09,9.823,9.09c0.042,0,0.089-0.005,0.131-0.006c0.269,0.368,0.928,0.63,1.703,0.63
			c1.013,0,1.834-0.445,1.834-0.995c0-0.181-0.096-0.348-0.252-0.495c0.148-0.123,0.252-0.252,0.252-0.388
			C13.491,7.798,13.461,7.761,13.448,7.724z"/>
	</g>
</g>
<g>
</g>
<g>
</g>
<g>
</g>
<g>
</g>
<g>
</g>
<g>
</g>
<g>
</g>
<g>
</g>
<g>
</g>
<g>
</g>
<g>
</g>
<g>
</g>
<g>
</g>
<g>
</g>
<g>
</g>
</svg>
