<svg height="511pt" viewBox="0 -91 511.96658 511" width="511pt" xmlns="http://www.w3.org/2000/svg"><path fill='#6628ea' d="m189.605469 178.289062 177.9375-64.777343c-6.707031-6.863281-14.878907-12.117188-23.910157-15.371094l-120.246093-43.773437-43.792969 120.300781zm0 0"/><path fill='#6628ea' d="m192.75 196.609375h-.054688l-24.347656 8.859375c-21.488281 7.820312-37.171875 26.507812-41.144531 49.027344-3.976563 22.515625 4.367187 45.445312 21.882813 60.144531 17.511718 14.699219 41.539062 18.941406 63.027343 11.121094l120.285157-43.773438-43.757813-120.265625zm-9.890625 41.601563c-5.050781 0-9.144531-4.09375-9.144531-9.144532 0-5.046875 4.09375-9.140625 9.144531-9.140625 5.046875 0 9.140625 4.09375 9.140625 9.140625 0 5.050782-4.09375 9.144532-9.140625 9.144532zm81.050781-27.984376-32.210937 11.726563c-1 .371094-2.058594.5625-3.128907.558594-4.4375.003906-8.238281-3.183594-9.011718-7.554688-.769532-4.371093 1.710937-8.667969 5.886718-10.179687l32.21875-11.722656c3.105469-1.273438 6.65625-.746094 9.253907 1.375 2.601562 2.125 3.828125 5.5 3.199219 8.792968-.628907 3.296875-3.011719 5.984375-6.207032 7.003906zm0 0"/><path fill='#6628ea' d="m206.207031 48.113281-120.265625-43.785156c-33.222656-12.015625-69.910156 5.066406-82.101562 38.226563-2.5625 7-3.8632815 14.398437-3.839844 21.851562.0351562 26.90625 16.863281 50.925781 42.140625 60.148438l120.300781 43.804687zm-178.777343 16.382813c-5.050782 0-9.144532-4.09375-9.144532-9.140625 0-5.050781 4.09375-9.144531 9.144532-9.144531 5.046874 0 9.140624 4.09375 9.140624 9.144531 0 5.046875-4.09375 9.140625-9.140624 9.140625zm57.726562-31.296875c-1.71875 4.746093-6.957031 7.203125-11.703125 5.488281l-9.398437-1.621094c-2.820313.007813-5.625.449219-8.308594 1.308594-4.679688 1.191406-9.480469-1.460938-10.960938-6.054688-1.480468-4.597656.867188-9.554687 5.363282-11.316406 2.226562-.707031 4.503906-1.25 6.8125-1.617187 2.34375-.386719 4.71875-.589844 7.09375-.605469l11.792968 1.566406 3.804688 1.195313c4.726562 1.710937 7.1875 6.917969 5.503906 11.65625zm70.777344 35.53125-27.503906-10.058594c-3.152344-1.050781-5.488282-3.730469-6.097657-7-.605469-3.269531.609375-6.609375 3.171875-8.726563 2.566406-2.113281 6.078125-2.671874 9.171875-1.453124l27.5 10.011718c3.15625 1.050782 5.488281 3.734375 6.097657 7.003906.605468 3.265626-.605469 6.609376-3.171876 8.722657-2.566406 2.117187-6.078124 2.671875-9.167968 1.453125zm0 0"/><path fill='#6628ea' d="m508.125 149.917969c-5.804688-15.960938-17.714844-28.957031-33.109375-36.132813-15.390625-7.175781-33.003906-7.9375-48.957031-2.121094l-40.183594 14.628907c-.0625 0-.101562.082031-.164062.101562l-79.929688 29.082031 43.804688 120.21875 120.292968-43.785156c33.160156-12.125 50.261719-48.792968 38.246094-81.992187zm-133.960938 19.574219-32.222656 11.722656c-4.746094 1.722656-9.992187-.726563-11.714844-5.472656-1.722656-4.746094.726563-9.992188 5.472657-11.714844l32.210937-11.757813c4.746094-1.726562 9.992188.71875 11.71875 5.464844 1.726563 4.746094-.71875 9.996094-5.464844 11.722656zm102.253907-22.378907c-2.902344 4.125-8.597657 5.125-12.730469 2.230469-2.277344-1.582031-4.777344-2.816406-7.421875-3.660156-1.324219-.417969-2.679687-.738282-4.050781-.957032-1.394532-.230468-2.800782-.355468-4.214844-.367187l-9.398438 1.683594-32.230468 11.710937c-4.699219 1.566406-9.789063-.894531-11.484375-5.550781-1.691407-4.65625.632812-9.8125 5.242187-11.628906l43.832032-14.335938 4.039062-.164062c2.375 0 4.742188.1875 7.085938.558593 2.308593.359376 4.585937.902344 6.8125 1.617188 2.191406.707031 4.332031 1.570312 6.398437 2.585938 2.0625 1.03125 4.046875 2.214843 5.933594 3.539062 4.117187 2.914062 5.097656 8.617188 2.1875 12.738281zm0 0"/></svg>
