<?xml version="1.0" encoding="iso-8859-1"?>
<!-- Generator: Adobe Illustrator 18.0.0, SVG Export Plug-In . SVG Version: 6.00 Build 0)  -->
<!DOCTYPE svg PUBLIC "-//W3C//DTD SVG 1.1//EN" "http://www.w3.org/Graphics/SVG/1.1/DTD/svg11.dtd">
<svg version="1.1" id="Capa_1" xmlns="http://www.w3.org/2000/svg" xmlns:xlink="http://www.w3.org/1999/xlink" x="0px" y="0px"
	 viewBox="0 0 54 54" style="enable-background:new 0 0 54 54;" xml:space="preserve">
<path fill='#4d04ea' d="M45.5,20.231h-5V13c0-0.202-0.075-0.379-0.178-0.536C40.428,11.979,40.5,11.491,40.5,11c0-3.859-3.141-7-7-7
	c-1.189,0-2.333,0.295-3.358,0.861C28.835,3.073,26.758,2,24.5,2c-0.713,0-1.411,0.106-2.085,0.318C21.002,0.837,19.066,0,17,0
	c-3.198,0-6.036,2.061-7.077,5.018C9.78,5.006,9.64,5,9.5,5c-3.309,0-6,2.691-6,6v8c0,1.654,1.346,3,3,3h1
	c0.352,0,0.686-0.072,1-0.184V26v21v1c0,3.309,2.691,6,6,6h20c3.309,0,6-2.691,6-6v-1v-2.769h5c2.757,0,5-2.243,5-5v-14
	C50.5,22.475,48.257,20.231,45.5,20.231z M32.5,46h-4V26c0-1.103,0.897-2,2-2s2,0.897,2,2V46z M30.5,22
	c-1.201,0-2.266,0.542-3,1.382c-0.734-0.84-1.799-1.382-3-1.382s-2.266,0.542-3,1.382c-0.734-0.84-1.799-1.382-3-1.382
	s-2.266,0.542-3,1.382c-0.734-0.84-1.799-1.382-3-1.382c-0.732,0-1.409,0.212-2,0.556V19v-0.121C10.852,18.959,11.209,19,11.567,19
	h1.968c1.127,0,2.2-0.383,3.072-1.077C17.914,19.239,19.698,20,21.567,20c3.521,0,6.442-2.612,6.929-6H38.5v7.231v1.325
	C37.909,22.212,37.232,22,36.5,22c-1.201,0-2.266,0.542-3,1.382C32.766,22.542,31.701,22,30.5,22z M20.5,46h-4V26
	c0-1.103,0.897-2,2-2s2,0.897,2,2V46z M40.5,26.231h3c0.552,0,1,0.448,1,1v10c0,0.552-0.448,1-1,1h-3V26.231z M34.5,52h-20
	c-2.206,0-4-1.794-4-4h5h6h6h6h5C38.5,50.206,36.706,52,34.5,52z"/>
<g>
</g>
<g>
</g>
<g>
</g>
<g>
</g>
<g>
</g>
<g>
</g>
<g>
</g>
<g>
</g>
<g>
</g>
<g>
</g>
<g>
</g>
<g>
</g>
<g>
</g>
<g>
</g>
<g>
</g>
</svg>
