<?xml version="1.0" encoding="iso-8859-1"?>
<!-- Generator: Adobe Illustrator 18.0.0, SVG Export Plug-In . SVG Version: 6.00 Build 0)  -->
<!DOCTYPE svg PUBLIC "-//W3C//DTD SVG 1.1//EN" "http://www.w3.org/Graphics/SVG/1.1/DTD/svg11.dtd">
<svg version="1.1" id="Capa_1" xmlns="http://www.w3.org/2000/svg" xmlns:xlink="http://www.w3.org/1999/xlink" x="0px" y="0px"
	 viewBox="0 0 58.393 58.393" style="enable-background:new 0 0 58.393 58.393;" xml:space="preserve">
<g>
	<path fill='#0B10FD' d="M57.51,18.857c-0.009-0.024-0.028-0.041-0.038-0.064c-0.217-0.838-0.47-1.654-0.782-2.431l-2.812,2.306
		c0.405,0.733,0.781,1.479,1.126,2.235l1.301,3.727c-0.097,0.696-0.279,1.35-0.568,1.949c-1.142,2.372-3.455,3.199-3.529,3.227
		L34.388,37.03c-0.025-0.674-0.118-1.399-0.296-2.187c-0.021-0.092-0.034-0.184-0.039-0.274l20.274-8.429
		c0.117-0.048,0.218-0.118,0.33-0.173l-1.507-4.318c-0.396-0.866-0.829-1.733-1.316-2.587c-0.002-0.002-0.005-0.003-0.007-0.005
		c-0.018-0.021-0.022-0.048-0.037-0.071c-0.869-1.51-1.919-2.977-3.297-4.315c-0.036-0.018-0.073-0.028-0.107-0.051
		c-0.128-0.085-0.223-0.198-0.296-0.322c-1.409-1.286-3.141-2.441-5.329-3.386c-0.093-0.01-0.187-0.018-0.278-0.056
		c-0.084-0.035-0.148-0.094-0.217-0.147c-1.783-0.722-3.846-1.313-6.273-1.726c-0.036,0.004-0.071,0.016-0.108,0.016
		c-0.12,0-0.241-0.021-0.359-0.066c-0.016-0.006-0.025-0.019-0.04-0.026c-3.635-0.571-8.042-0.761-13.43-0.446
		c-0.018,0.001-0.033,0.01-0.052,0.01c-0.011,0-0.02-0.006-0.031-0.006c-4.279,0.254-9.165,0.823-14.779,1.775l-1.259,0.147
		L4.527,28.371c-1.821,1.161-5.663,4.307-4.204,9.463c0.515,1.818,1.356,2.887,2.501,3.174c0.209,0.053,0.55,0.227,0.5,0.545
		c-0.386,2.448-1.042,6.965-1.091,9.713c-0.023,1.26,0.351,2.291,1.111,3.065c1.195,1.217,2.994,1.398,3.96,1.398
		c0.341,0,0.565-0.022,0.566-0.023c0.375-0.025,3.474-0.3,4.5-2.446c0.627-1.312,0.297-2.912-0.972-4.751l16.396-6.647
		c0.003,0.002,0.007,0.002,0.01,0.004c0.195,0.103,0.404,0.184,0.62,0.25c0.034,0.011,0.065,0.028,0.1,0.038
		c0.25,0.069,0.512,0.115,0.787,0.134c0.132,0.009,0.271,0.014,0.413,0.014h0c0.04,0,0.075-0.01,0.114-0.011
		c0.304-0.007,0.61-0.03,0.915-0.086c0.119-0.021,0.227-0.059,0.342-0.088c0.172-0.044,0.341-0.094,0.507-0.156
		c0.141-0.053,0.277-0.111,0.409-0.176c0.13-0.064,0.254-0.141,0.378-0.219c0.125-0.079,0.254-0.15,0.368-0.24
		c0.202-0.16,0.391-0.342,0.564-0.547c0.021-0.025,0.049-0.042,0.07-0.068c0.319-0.399,0.553-0.867,0.722-1.388
		c0.003-0.009,0.008-0.016,0.011-0.025l18.779-7.615c0.125-0.042,3.097-1.074,4.619-4.198C58.687,25.094,58.683,22.192,57.51,18.857
		z M10.263,45.282c0.2-0.662,0.928-1.241,2.185-1.729l13.254-5.511c0.052,0.706,0.21,1.527,0.595,2.269l-15.877,6.437
		C10.204,46.174,10.142,45.68,10.263,45.282z M24.803,31.832c-0.013-0.573,0.187-1.119,0.563-1.539
		c0.393-0.437,0.926-0.685,1.504-0.697c0.047-0.001,0.115-0.077,0.112-0.193c-0.026-1.207,0.901-2.209,2.067-2.235
		c0.047-0.001,0.115-0.077,0.112-0.193c-0.012-0.552,0.426-1.01,0.979-1.021c0.579,0.029,1.01,0.427,1.021,0.979
		c0.026,1.207-0.902,2.21-2.068,2.236c-0.047,0.001-0.114,0.076-0.111,0.192c0.026,1.207-0.902,2.21-2.068,2.236
		c-0.074,0.001-0.113,0.117-0.112,0.191c0.013,0.553-0.425,1.01-0.977,1.022c-0.008,0-0.015,0-0.023,0
		C25.26,32.81,24.815,32.376,24.803,31.832z M41.669,15.746c0.799,0,1.886,0,2.823,0.451c0.841,0.404,1.844,1.316,1.844,3.363
		c0,3.365-3.439,6.103-7.667,6.103c-3.577,0-6.667,0-6.667-4.103C32.003,17.77,40.096,15.746,41.669,15.746z M25.778,9.838
		c0.69-0.145,1.398-0.021,1.99,0.347c0.608,0.376,1.021,0.964,1.164,1.653c0.066,0.322,0.419,0.525,0.79,0.446
		c0.691-0.145,1.398-0.021,1.989,0.347c0.608,0.376,1.021,0.964,1.164,1.653c0.041,0.197,0.179,0.31,0.258,0.358
		c0.154,0.095,0.34,0.127,0.53,0.087c0.542-0.108,1.07,0.236,1.182,0.776c0.112,0.541-0.235,1.07-0.776,1.183
		c-0.188,0.039-0.378,0.058-0.566,0.058c-0.502,0-0.994-0.138-1.423-0.404c-0.608-0.377-1.021-0.964-1.163-1.653
		c-0.041-0.197-0.18-0.31-0.259-0.358c-0.153-0.096-0.341-0.129-0.53-0.087c-1.452,0.293-2.864-0.601-3.153-2.001
		c-0.041-0.197-0.18-0.31-0.259-0.358c-0.153-0.096-0.343-0.13-0.53-0.087c-0.545,0.11-1.07-0.237-1.182-0.776
		C24.89,10.479,25.237,9.95,25.778,9.838z M26.433,20.893c0.185,0.079,0.356,0.033,0.442-0.003c0.167-0.07,0.301-0.206,0.378-0.382
		c0.223-0.507,0.812-0.736,1.318-0.513c0.506,0.222,0.735,0.813,0.513,1.317c-0.285,0.647-0.794,1.152-1.436,1.421
		c-0.659,0.277-1.378,0.272-2.021-0.011c-0.185-0.08-0.356-0.033-0.442,0.003c-0.167,0.07-0.301,0.206-0.378,0.382
		c-0.596,1.354-2.147,1.988-3.458,1.409c-0.185-0.08-0.356-0.033-0.442,0.003c-0.167,0.07-0.301,0.206-0.378,0.382
		c-0.165,0.375-0.532,0.598-0.916,0.598c-0.134,0-0.271-0.027-0.402-0.085c-0.506-0.222-0.735-0.813-0.513-1.317
		c0.285-0.647,0.795-1.152,1.436-1.421c0.659-0.277,1.378-0.272,2.021,0.011c0.3,0.132,0.669-0.04,0.821-0.385
		c0.284-0.646,0.794-1.151,1.435-1.42C25.07,20.604,25.787,20.609,26.433,20.893z M19.365,10.788c1.407,0,4.667,0,4.667,3.813
		c0,3.365-3.439,6.104-7.667,6.104c-3.578,0-6.667,0-6.667-4.104C9.698,12.812,17.792,10.788,19.365,10.788z M7.379,32.827
		c0-3.79,8.093-5.813,9.667-5.813c1.407,0,4.667,0,4.667,3.813c0,3.365-3.439,6.104-7.667,6.104
		C10.469,36.931,7.379,36.931,7.379,32.827z"/>
	<circle fill='#0B10FD' cx="36.504" cy="21.837" r="1"/>
	<circle fill='#0B10FD' cx="41.722" cy="19.189" r="1"/>
	<circle  fill='#0B10FD' cx="40.41" cy="21.705" r="1"/>
	<circle fill='#0B10FD' cx="14.256" cy="17.07" r="1"/>
	<circle fill='#0B10FD' cx="20.088" cy="15.746" r="1"/>
	<circle fill='#0B10FD' cx="16.865" cy="14.746" r="1"/>
	<circle fill='#0B10FD' cx="12.006" cy="33.134" r="1"/>
	<circle fill='#0B10FD' cx="15.256" cy="30.81" r="1"/>
	<circle fill='#0B10FD' cx="16.865" cy="32.81" r="1"/>
	<path fill='#0B10FD' d="M13.003,7.339V3.665c-0.785,0.108-1.536,0.216-2.205,0.321C8.463,4.354,6.659,6.099,6.16,8.347L6.91,8.26
		C9.037,7.899,11.065,7.594,13.003,7.339z"/>
	<path fill='#0B10FD' d="M51,8.905c-1.537-1.191-3.307-2.221-5.322-3.075l-1.525,3.631c1.764,0.826,3.275,1.785,4.569,2.853L51,8.905z"/>
	<path fill='#0B10FD' d="M21.003,2.858c-2.151,0.137-4.174,0.332-6,0.551v3.687c2.109-0.247,4.112-0.434,6-0.557V2.858z"/>
	<path fill='#0B10FD' d="M36.598,3.365c-2.062-0.317-4.254-0.535-6.595-0.634V6.42c1.882,0.09,3.617,0.26,5.226,0.499L36.598,3.365z"/>
	<path fill='#0B10FD' d="M43.815,5.1c-1.605-0.56-3.346-1.02-5.208-1.387l-1.369,3.552c1.875,0.373,3.562,0.848,5.073,1.416L43.815,5.1z"/>
	<path fill='#0B10FD' d="M28.003,6.354V2.689c-0.416-0.006-0.817-0.026-1.241-0.026c-1.275,0-2.528,0.036-3.759,0.089v3.68
		C24.764,6.354,26.433,6.327,28.003,6.354z"/>
	<path fill='#0B10FD' d="M52.833,16.938l2.98-2.444c-0.86-1.58-1.96-3.004-3.287-4.274l-2.313,3.464C51.22,14.704,52.081,15.796,52.833,16.938z"/>
</g>
<g>
</g>
<g>
</g>
<g>
</g>
<g>
</g>
<g>
</g>
<g>
</g>
<g>
</g>
<g>
</g>
<g>
</g>
<g>
</g>
<g>
</g>
<g>
</g>
<g>
</g>
<g>
</g>
<g>
</g>
</svg>
