<svg id="Capa_1" enable-background="new 0 0 512 512" height="512" viewBox="0 0 512 512" width="512" xmlns="http://www.w3.org/2000/svg"><g><path fill='#6628ea' d="m200.395 25.697c-1.993 1.978-19.395 20.406-19.395 55.606 0 22.778-10.342 34.102-10.605 34.395l21.211 21.211c1.992-1.978 19.394-20.406 19.394-55.606 0-22.778 10.342-34.102 10.781-34.57z"/><path fill='#6628ea' d="m281.781 46.732-21.387-21.035c-1.992 1.978-19.394 20.406-19.394 55.606 0 22.778-10.342 34.102-10.605 34.395l21.211 21.211c1.992-1.978 19.394-20.406 19.394-55.606 0-22.779 10.342-34.102 10.781-34.571z"/><path fill='#6628ea' d="m320.395 25.697c-1.993 1.978-19.395 20.406-19.395 55.606 0 22.778-10.342 34.102-10.605 34.395l21.211 21.211c1.992-1.978 19.394-20.406 19.394-55.606 0-22.778 10.342-34.102 10.781-34.57z"/><path fill='#6628ea' d="m482 291.303h-452c-16.569 0-30 13.431-30 30 0 16.567 13.431 30 30 30h452c16.569 0 30-13.433 30-30 0-16.569-13.431-30-30-30z"/><path fill='#6628ea' d="m471.775 381.303h-431.55l39.375 105h352.8z"/><path fill='#6628ea' d="m167.851 156.303h-88.251l-39.375 105h431.55l-39.375-105h-88.248l-24.006 60h-128.292z"/><path fill='#6628ea' d="m212.157 186.303h87.686l12.001-30h-111.686z"/></g></svg>
